<svg id="Capa_1" data-name="Capa 1" xmlns="http://www.w3.org/2000/svg" xmlns:xlink="http://www.w3.org/1999/xlink" viewBox="0 0 645.82 966.79"><defs><style>.cls-1,.cls-3,.cls-4,.cls-5{fill-rule:evenodd;}.cls-1{fill:url(#GradientFill_3);}.cls-2{fill:url(#GradientFill_3-2);}.cls-3{fill:url(#GradientFill_3-3);}.cls-4{fill:url(#GradientFill_3-4);}.cls-5{fill:url(#GradientFill_3-5);}</style><linearGradient id="GradientFill_3" x1="632.82" y1="83.96" x2="1097.8" y2="83.96" gradientUnits="userSpaceOnUse"><stop offset="0" stop-color="#41c0f0"/><stop offset="1" stop-color="#1b5892"/></linearGradient><linearGradient id="GradientFill_3-2" x1="162.47" y1="156.98" x2="482.32" y2="156.98" xlink:href="#GradientFill_3"/><linearGradient id="GradientFill_3-3" x1="560.12" y1="430.21" x2="1177.54" y2="430.21" xlink:href="#GradientFill_3"/><linearGradient id="GradientFill_3-4" x1="554.55" y1="841.8" x2="1173.14" y2="841.8" xlink:href="#GradientFill_3"/><linearGradient id="GradientFill_3-5" x1="543.18" y1="627.87" x2="1189" y2="627.87" xlink:href="#GradientFill_3"/></defs><title>Artesanias</title><path class="cls-1" d="M662.21,122.71h406.17c17.71-4.83,29.58-19.75,29.42-38.79-.18-22.07-18.34-38.71-42.3-38.71H960.22q-143.55,0-287.13.12a42.19,42.19,0,0,0-15.27,3,39.22,39.22,0,0,0-24.24,44.12C636.51,107.12,647.73,118.59,662.21,122.71Z" transform="translate(-543.18 -45.21)"/><rect class="cls-2" x="162.47" y="105.13" width="319.84" height="103.7"/><path class="cls-3" d="M632,446.46a15.77,15.77,0,0,1,12.51-4.74,15.59,15.59,0,0,1,11.65,6.49L752.57,584,856.22,447.8a15.85,15.85,0,0,1,24.62-.5l113.4,136.85,89.39-135.52a15.66,15.66,0,0,1,12.84-6.95,15.44,15.44,0,0,1,13.06,6.53l68,95.74A539.24,539.24,0,0,0,1140.93,434c-25.87-56.87-61.34-107.56-105.2-152.81a14.3,14.3,0,0,0-11.35-4.81q-67,.21-134,.11c-11.61-.24-21.77-.37-24.23-.13H866c-2.45-.24-12.61-.11-24.21.13q-67,0-134-.11a14.3,14.3,0,0,0-11.35,4.81c-43.86,45.25-79.31,95.94-105.2,152.81A546.88,546.88,0,0,0,560.12,521Z" transform="translate(-543.18 -45.21)"/><path class="cls-4" d="M1097.21,674.87,1008.77,809a15.82,15.82,0,0,1-25.21,1.31L869.25,672.32,764.64,809.77a15.83,15.83,0,0,1-25.31-.4L641.46,671.59l-86.91,90.18c18.52,90.33,51.82,148.86,113.14,219.92,17.09,19.8,147.81,30.31,222.1,30.31.22,0,161.48,0,182.06-30.31,48.8-71.86,81.1-117.64,101.29-199.91Z" transform="translate(-543.18 -45.21)"/><path class="cls-5" d="M632,637.33a15.88,15.88,0,0,1,12.51-4.74,15.66,15.66,0,0,1,11.65,6.49l96.46,135.79L856.22,638.68a15.68,15.68,0,0,1,12.18-6.13,15.9,15.9,0,0,1,12.44,5.63L994.24,775l89.39-135.52a15.81,15.81,0,0,1,25.9-.43l72,101.43A533.76,533.76,0,0,0,1187.4,611l-90.18-127-88.44,134.08a15.84,15.84,0,0,1-25.22,1.31L869.25,481.44,764.63,618.89a15.84,15.84,0,0,1-25.31-.39L641.47,480.72,548.63,577a522.81,522.81,0,0,0-.49,147.26Z" transform="translate(-543.18 -45.21)"/></svg>