<svg id="Capa_1" data-name="Capa 1" xmlns="http://www.w3.org/2000/svg" xmlns:xlink="http://www.w3.org/1999/xlink" viewBox="0 0 1028.76 980"><defs><style>.cls-1,.cls-2{fill-rule:evenodd;}.cls-1{fill:url(#GradientFill_3);}.cls-2{fill:url(#GradientFill_3-2);}</style><linearGradient id="GradientFill_3" x1="446" y1="540" x2="1474.76" y2="540" gradientUnits="userSpaceOnUse"><stop offset="0" stop-color="#41c0f0"/><stop offset="1" stop-color="#1b5892"/></linearGradient><linearGradient id="GradientFill_3-2" x1="753.75" y1="641.98" x2="1167.38" y2="641.98" xlink:href="#GradientFill_3"/></defs><title>Cine</title><path class="cls-1" d="M446,135.47H669.14c0-17.74,0-33.82,0-49.9,0-5.1-.27-10.23.22-15.28,1.08-11.53,7-19.27,19.49-20.22,11-.84,20.1,7.54,21,20.2.94,12.43.39,25,.46,37.5,0,8.29,0,16.62,0,26.28h500.52c0-13.14,0-26.8,0-40.46,0-7.42-.37-14.87.27-22.23C1212.32,58,1221.25,49.48,1232.7,50c11.09.54,18.85,8.79,19.25,21.93.49,16.65.14,33.35.15,50,0,3.64,0,7.29,0,12.76h222.66V1030H446V135.47ZM541.3,937h838.43V373.53H541.3V937ZM669.08,172.19c-42.19,6.22-70.8,46.8-66.36,92.47,4,41.47,45.38,76.1,88.86,74.44,48-1.84,85.81-39.53,85.74-85.39-.06-39.58-31.88-78.59-67-80.55,0,9.23-1.06,18.56.37,27.52,1,6,4,13.06,8.62,17,21.18,18.11,23.56,48.18,4.37,67.79-18.37,18.77-51,18.51-69.21-.53C636,265.59,639.13,234.34,661,217c3.35-2.65,7.44-6.65,7.75-10.31,1-11.37.38-22.88.38-34.53Zm541.75-.33c-43.34,9.3-72.16,51.25-66.15,93.15,6.18,43,46.24,76.16,89.48,74.05,47.79-2.36,83.41-37.07,85-82.89,1.45-40.59-28.89-79.09-67.08-83.8,0,10.24-.74,20.45.32,30.46.5,4.68,3.33,10.4,7,13.31,22.5,17.5,25.86,47.67,7,68.79-16.94,19-50.17,19.2-69.16.46-19.19-18.94-16.79-49.38,4.92-67.62,3.62-3,7.73-7.58,8.17-11.78C1211.59,195.1,1210.83,184,1210.83,171.86Z" transform="translate(-446 -50)"/><path class="cls-2" d="M832.79,833c8-38.47,13.11-73.91,23.18-108,7.33-24.76.73-39.77-19-55.23-28.09-22-53.76-46.89-83.19-73,19.7-2.38,36.24-4.53,52.84-6.34,27.93-3,55.94-5.52,83.78-9.19,4.78-.64,10.9-5.16,13-9.45,19-39.15,37.28-78.67,57.11-120.9,5.88,12.1,10.75,21.83,15.37,31.68,13.78,29.45,27.64,58.89,41.08,88.51,3.25,7.13,7.52,10.05,15.82,10.85,43.91,4.29,87.75,9.38,134.65,14.54-18.89,17-35.78,32.27-52.79,47.43-14.74,13.14-29.15,26.71-44.66,39-9.12,7.21-10.51,14.33-8,25.07,8.79,37.88,16.49,76,24.56,114,.56,2.66.69,5.39,1.31,10.49-23.79-13-45.91-25.12-68-37.27-16.56-9.12-33.23-18.11-49.52-27.67-6.86-4-12.12-4.08-19.34,0C912.8,789.19,874.25,810.15,832.79,833Z" transform="translate(-446 -50)"/></svg>