<svg id="Capa_1" data-name="Capa 1" xmlns="http://www.w3.org/2000/svg" xmlns:xlink="http://www.w3.org/1999/xlink" viewBox="0 0 1436 618.53"><defs><style>.cls-1,.cls-2,.cls-3,.cls-4,.cls-5,.cls-6,.cls-7{fill-rule:evenodd;}.cls-1{fill:url(#GradientFill_7);}.cls-2{fill:url(#GradientFill_7-2);}.cls-3{fill:url(#GradientFill_7-3);}.cls-4{fill:url(#GradientFill_8);}.cls-5{fill:#fdfdfd;}.cls-6{fill:url(#GradientFill_9);}.cls-7{fill:url(#GradientFill_10);}</style><linearGradient id="GradientFill_7" x1="571.22" y1="183.7" x2="571.22" y2="336.74" gradientUnits="userSpaceOnUse"><stop offset="0" stop-color="#d76929"/><stop offset="1" stop-color="#e48327"/></linearGradient><linearGradient id="GradientFill_7-2" x1="1066.67" y1="255.38" x2="1066.67" y2="408.42" xlink:href="#GradientFill_7"/><linearGradient id="GradientFill_7-3" x1="404.34" y1="454.93" x2="404.34" y2="607.97" xlink:href="#GradientFill_7"/><linearGradient id="GradientFill_8" x1="150.44" y1="461.48" x2="1225.76" y2="461.48" gradientUnits="userSpaceOnUse"><stop offset="0" stop-color="#c8272c"/><stop offset="1" stop-color="#d52a34"/></linearGradient><linearGradient id="GradientFill_9" x1="722.93" y1="246.51" x2="713.07" y2="106.08" gradientUnits="userSpaceOnUse"><stop offset="0" stop-color="#214985"/><stop offset="0.03" stop-color="#1f4d87"/><stop offset="1" stop-color="#007cb3"/></linearGradient><linearGradient id="GradientFill_10" x1="955.55" y1="413.24" x2="955.55" y2="189.99" gradientUnits="userSpaceOnUse"><stop offset="0" stop-color="#e9a311"/><stop offset="1" stop-color="#e3b210"/></linearGradient></defs><title>LogoCUN2</title><polygon class="cls-1" points="850.15 173.17 850.15 173.14 300.35 229.9 292.3 347.29 842.08 290.54 850.15 173.17"/><polygon class="cls-2" points="795.81 301.58 787.74 418.97 1337.52 362.22 1345.59 244.82 795.81 301.58"/><polygon class="cls-3" points="133.49 501.13 125.42 618.52 675.2 561.77 683.27 444.38 133.49 501.13"/><polygon class="cls-4" points="162.68 441.4 150.44 591.31 1213.53 481.56 1225.76 331.65 162.68 441.4"/><path class="cls-5" d="M471.51,717.31q.42-6.07-2.72-9.44T460,705.08a14,14,0,0,0-9.24,4.65,16.46,16.46,0,0,0-4.1,10.16l-1.87,26.55q-.44,6.07,2.71,9.46c2.1,2.24,5,3.18,8.7,2.79a14.09,14.09,0,0,0,9.37-4.66,16.29,16.29,0,0,0,4.1-10.15l1.88-26.57Zm7-27.63a22.31,22.31,0,0,1,10.95,10.14q3.65,6.9,3,16.45l-1.82,25.94a34.56,34.56,0,0,1-7.33,19.29,38,38,0,0,1-17.1,12.3.75.75,0,0,0-.56.67l-.69,9.69a1.64,1.64,0,0,1-.51,1.1,1.83,1.83,0,0,1-1.11.54l-17.94,1.85a1.24,1.24,0,0,1-1-.33,1.2,1.2,0,0,1-.37-1l.69-9.68a.49.49,0,0,0-.47-.57c-6.87-1.09-12.1-4-15.74-8.78s-5.2-10.82-4.68-18.19l1.84-25.93a38,38,0,0,1,5.37-17.31,36.79,36.79,0,0,1,12.55-12.56,41.45,41.45,0,0,1,17.72-5.84Q471.19,686.43,478.48,689.68Z" transform="translate(-203.85 -231)"/><path class="cls-5" d="M553.69,701.87a1.83,1.83,0,0,1,1.11-.54l17.94-1.86a1.3,1.3,0,0,1,1,.33,1.17,1.17,0,0,1,.36,1L569.83,762a1.72,1.72,0,0,1-.52,1.09,1.79,1.79,0,0,1-1.11.55l-17.94,1.85a1.24,1.24,0,0,1-1-.33,1.17,1.17,0,0,1-.37-1l.31-4.34c0-.25,0-.41-.22-.48s-.33,0-.52.3c-3.71,5.07-9.17,8-16.43,8.72q-9.6,1-15.11-4.36t-4.77-16L515,706.92a1.69,1.69,0,0,1,.51-1.11,1.84,1.84,0,0,1,1.11-.55l17.94-1.84a1.26,1.26,0,0,1,1,.32,1.16,1.16,0,0,1,.36,1l-2.57,36.37q-.3,4.35,1.78,6.72c1.4,1.57,3.39,2.23,6,2a10,10,0,0,0,6-2.71,11.12,11.12,0,0,0,3.24-5.88l2.7-38.23A1.66,1.66,0,0,1,553.69,701.87Z" transform="translate(-203.85 -231)"/><path class="cls-5" d="M616.75,717.48a12.77,12.77,0,0,0-.82,2.67c-.2.43,0,.62.46.57l17.94-1.86a.53.53,0,0,0,.54-.54,7.12,7.12,0,0,0-.32-2.43,6.58,6.58,0,0,0-2.9-4.39,9,9,0,0,0-5.75-1,10.44,10.44,0,0,0-9.15,7Zm39.1,9.39a1.81,1.81,0,0,1-1.75,1.66l-38.54,4a1,1,0,0,0-.52.25c-.18.14-.23.29-.16.44a14,14,0,0,0,1,3.47,8.63,8.63,0,0,0,4.24,3.75,14.41,14.41,0,0,0,7.35.85,19.18,19.18,0,0,0,12.87-6.38,1.7,1.7,0,0,1,1.17-.74,1,1,0,0,1,1,.39l9,9.92a1,1,0,0,1,.45.94,1.73,1.73,0,0,1-.59,1,36.6,36.6,0,0,1-11.42,8.33,43.75,43.75,0,0,1-14.4,3.94q-11.5,1.2-19.18-2.88a21.63,21.63,0,0,1-10.59-12.52q-2.22-5.92-1.55-15.24a41.92,41.92,0,0,1,2.89-12.61,37,37,0,0,1,11.83-15.58,35.34,35.34,0,0,1,18.25-7.13,28.13,28.13,0,0,1,14.65,2,22.57,22.57,0,0,1,10,8.71,30.48,30.48,0,0,1,4.36,13.65A48.49,48.49,0,0,1,655.85,726.87Z" transform="translate(-203.85 -231)"/><path class="cls-5" d="M760.15,692.94a11.35,11.35,0,0,0,3.75-7.78c.22-3.14-.68-5.57-2.68-7.3s-4.74-2.41-8.2-2l-13,1.34a.67.67,0,0,0-.68.68l-1.39,19.61c0,.41.18.6.59.55l13-1.34a14.3,14.3,0,0,0,8.6-3.72Zm12.5-33.2a19.18,19.18,0,0,1,9.55,8.69,25.41,25.41,0,0,1,2.58,14.09A30.8,30.8,0,0,1,780,697.17a31.51,31.51,0,0,1-11.22,10.64,40,40,0,0,1-16,5l-15.41,1.6a.67.67,0,0,0-.68.68L734.58,745a1.64,1.64,0,0,1-.51,1.09,1.84,1.84,0,0,1-1.11.55L715,748.47a1.23,1.23,0,0,1-1-.32,1.26,1.26,0,0,1-.36-1l5.93-83.89a1.69,1.69,0,0,1,.51-1.1,1.74,1.74,0,0,1,1.11-.55l36.51-3.77A29.32,29.32,0,0,1,772.65,659.74Z" transform="translate(-203.85 -231)"/><path class="cls-5" d="M847.5,671.84a1.42,1.42,0,0,1,.63,1.79L844,691.19c-.16,1-.77,1.35-1.83,1a19.08,19.08,0,0,0-4.26-.06,17,17,0,0,0-3.3.59,14.34,14.34,0,0,0-6.85,3.66,10.25,10.25,0,0,0-3.18,6.86l-2.31,32.65a1.67,1.67,0,0,1-.52,1.09,1.74,1.74,0,0,1-1.1.55l-17.94,1.85a1.27,1.27,0,0,1-1-.33,1.2,1.2,0,0,1-.37-1l4.32-61.19a1.73,1.73,0,0,1,.51-1.1,1.83,1.83,0,0,1,1.12-.54l17.94-1.86a1.25,1.25,0,0,1,1,.32,1.17,1.17,0,0,1,.36,1l-.28,4c0,.25.07.42.23.48s.29,0,.39-.29q5.52-7.1,13.61-7.93Q845.09,670.5,847.5,671.84Z" transform="translate(-203.85 -231)"/><path class="cls-5" d="M898.44,710.76a17.16,17.16,0,0,0,4-6.63,33.49,33.49,0,0,0,1.27-7.16,28.25,28.25,0,0,0-.38-7.11,9.36,9.36,0,0,0-3-5.59,7.66,7.66,0,0,0-5.92-1.49q-7.32.75-10.18,9.06a31.52,31.52,0,0,0-1.26,7.27,29.4,29.4,0,0,0,.26,7,10.16,10.16,0,0,0,3,5.9,7.39,7.39,0,0,0,6,1.67,10.05,10.05,0,0,0,6.23-2.92Zm-26.39,16.58q-7.54-5.15-9.47-15a36.71,36.71,0,0,1-.73-11,43.44,43.44,0,0,1,2.49-12.2,35,35,0,0,1,11.89-16.45,37.83,37.83,0,0,1,19.53-7.49q11.12-1.15,18.44,3.57c4.88,3.16,8.1,7.84,9.66,14.1a36.63,36.63,0,0,1,.93,11.73,45.82,45.82,0,0,1-2.16,11.06A36.4,36.4,0,0,1,891,731.3Q879.59,732.49,872.05,727.34Z" transform="translate(-203.85 -231)"/><path class="cls-5" d="M986.21,688a39.62,39.62,0,0,0,.12-5.25,11.46,11.46,0,0,0-.75-3.55,6.93,6.93,0,0,0-2.92-4,8.19,8.19,0,0,0-5.26-1q-5.94.62-8.88,6.71a21.58,21.58,0,0,0-2.54,9.37q-.43,6.09,1,8.77a7.8,7.8,0,0,0,3.11,3.87,8.1,8.1,0,0,0,5.33,1.05,10.34,10.34,0,0,0,9-6.59c.9-2,1.49-5.13,1.79-9.43Zm2.64-31a1.79,1.79,0,0,1,1.1-.55l17.94-1.85a1.29,1.29,0,0,1,1.05.33,1.23,1.23,0,0,1,.37,1l-3.92,55.48q-1.23,17-11.7,25.35t-25.79,9.94a77.09,77.09,0,0,1-11.94.24c-.84,0-1.22-.49-1.15-1.48L956.54,730a1.5,1.5,0,0,1,.58-1.23,1.54,1.54,0,0,1,1.26-.19,44.36,44.36,0,0,0,9.53.13q7.2-.75,11.6-4.4c2.93-2.44,4.57-6,4.89-10.62l-.95,1q-4.86,4.93-13.46,5.82a29.64,29.64,0,0,1-15-2q-6.71-2.86-9.1-11.63a43.21,43.21,0,0,1-1-14.43,47.14,47.14,0,0,1,3.5-15.88,33.23,33.23,0,0,1,10.16-13.25,29,29,0,0,1,15.17-6.13q9.1-.93,13.64,4a.45.45,0,0,0,.49.13c.17,0,.26-.22.29-.45l.19-2.74A1.65,1.65,0,0,1,988.85,657Z" transform="translate(-203.85 -231)"/><path class="cls-5" d="M1074.3,648.44a1.38,1.38,0,0,1,.62,1.78l-4.12,17.55q-.24,1.5-1.83,1.05a19.76,19.76,0,0,0-4.27-.05,18.14,18.14,0,0,0-3.29.58,14.32,14.32,0,0,0-6.85,3.67,10.11,10.11,0,0,0-3.17,6.86l-2.32,32.64a1.69,1.69,0,0,1-.51,1.09,1.74,1.74,0,0,1-1.11.55L1029.52,716a1.32,1.32,0,0,1-1-.32,1.2,1.2,0,0,1-.37-1l4.32-61.19a1.7,1.7,0,0,1,.52-1.09,1.79,1.79,0,0,1,1.1-.55l18-1.85a1.25,1.25,0,0,1,1,.32,1.17,1.17,0,0,1,.36,1l-.28,4c0,.24.06.4.22.46s.3,0,.4-.28q5.52-7.11,13.61-7.94C1070.37,647.24,1072.69,647.53,1074.3,648.44Z" transform="translate(-203.85 -231)"/><path class="cls-5" d="M1111.66,666.38a12.67,12.67,0,0,0-.82,2.68c-.19.43,0,.62.47.56l17.94-1.85a.51.51,0,0,0,.53-.55,7,7,0,0,0-.32-2.43,6.5,6.5,0,0,0-2.88-4.38,9.16,9.16,0,0,0-5.77-1,10.51,10.51,0,0,0-9.15,7Zm39.1,9.4a1.79,1.79,0,0,1-1.75,1.66l-38.54,4a1,1,0,0,0-.51.23c-.17.14-.23.29-.16.44a14.1,14.1,0,0,0,1,3.48,8.54,8.54,0,0,0,4.26,3.75,14.34,14.34,0,0,0,7.33.84,19.14,19.14,0,0,0,12.87-6.38,1.81,1.81,0,0,1,1.18-.73,1,1,0,0,1,1,.38l9,9.92a1,1,0,0,1,.43.95,1.7,1.7,0,0,1-.58,1,36.3,36.3,0,0,1-11.43,8.32,44,44,0,0,1-14.4,4q-11.49,1.18-19.17-2.89a21.62,21.62,0,0,1-10.59-12.52c-1.49-4-2-9-1.56-15.25a42.29,42.29,0,0,1,2.89-12.61,37.16,37.16,0,0,1,11.83-15.57,35.36,35.36,0,0,1,18.26-7.12,27.9,27.9,0,0,1,14.66,2,22.43,22.43,0,0,1,10,8.7,30.48,30.48,0,0,1,4.37,13.65A49.38,49.38,0,0,1,1150.76,675.78Z" transform="translate(-203.85 -231)"/><path class="cls-5" d="M1181.49,698.91q-6.52-1.73-9.82-5.77a13.34,13.34,0,0,1-2.88-9.74l.1-1.36a1.65,1.65,0,0,1,.5-1.1,1.76,1.76,0,0,1,1.11-.55l17.06-1.76a1.26,1.26,0,0,1,1,.32,1.23,1.23,0,0,1,.36,1c-.12,1.56.68,2.78,2.38,3.63a11.91,11.91,0,0,0,6.59.86,13,13,0,0,0,5.7-1.76,4.37,4.37,0,0,0,2.31-3.38,2.5,2.5,0,0,0-2-2.69,32.47,32.47,0,0,0-7-1.06,55.35,55.35,0,0,1-12.63-2.27,23.29,23.29,0,0,1-9.78-5.46c-2.34-2.34-3.34-5.79-3-10.34a22,22,0,0,1,8.73-16.11q8-6.45,20.55-7.74a35.68,35.68,0,0,1,14.66,1.14,17.88,17.88,0,0,1,9.39,6.49,16,16,0,0,1,2.74,10.8,1.61,1.61,0,0,1-.52,1.1,1.66,1.66,0,0,1-1.1.54l-16.54,1.71a1.22,1.22,0,0,1-1.05-.32,1.17,1.17,0,0,1-.37-1,3.62,3.62,0,0,0-2-3.61q-2.15-1.26-6.08-.85a13.73,13.73,0,0,0-5.83,1.77,4.5,4.5,0,0,0-2.44,3.52,2.56,2.56,0,0,0,2.18,2.79,48.59,48.59,0,0,0,7.94,1.21q7.23.75,10.08,1.3c5.1,1.13,9,2.93,11.71,5.45s3.9,6.12,3.57,10.84a20.78,20.78,0,0,1-8.83,15.76c-5.44,4.05-12.52,6.52-21.29,7.43A43.4,43.4,0,0,1,1181.49,698.91Z" transform="translate(-203.85 -231)"/><path class="cls-5" d="M1280.77,674a9.37,9.37,0,0,0,3.54-6.71l.21-3c0-.41-.17-.6-.59-.56l-7.58.78a16.11,16.11,0,0,0-7.5,2.38,6.5,6.5,0,0,0-2.93,5.11,4.52,4.52,0,0,0,1.58,4.14c1.19,1,2.92,1.31,5.2,1.08a14.65,14.65,0,0,0,8.07-3.24Zm12.68-47.14a20.52,20.52,0,0,1,10.19,6.59,14.56,14.56,0,0,1,3.15,10.45l-3,42.32a1.7,1.7,0,0,1-.52,1.1,1.66,1.66,0,0,1-1.1.54l-17.93,1.86a1.27,1.27,0,0,1-1-.32,1.23,1.23,0,0,1-.37-1l.3-4.34c0-.32,0-.51-.2-.53s-.35.14-.54.48q-5.31,7.46-16.92,8.66-10.11,1-15.78-3t-5-13.11a21.18,21.18,0,0,1,7.8-15.46q7.13-5.93,20-7.24l12.25-1.26a.68.68,0,0,0,.68-.69l.16-2.36a5.49,5.49,0,0,0-1.9-5q-2.15-1.69-6.18-1.27a13,13,0,0,0-5.32,1.66,6.89,6.89,0,0,0-3.05,3.15c-.48,1-1.1,1.43-1.85,1.42l-18-.48c-1-.07-1.48-.38-1.44-1a20.73,20.73,0,0,1,5.06-10.32,33.11,33.11,0,0,1,10.85-8,43.84,43.84,0,0,1,14.65-4A37.38,37.38,0,0,1,1293.45,626.86Z" transform="translate(-203.85 -231)"/><path class="cls-5" d="M1338,653.68a1.19,1.19,0,0,1-.37-1l1.63-53.39a1.64,1.64,0,0,1,1.64-1.65l17.93-1.84c1-.11,1.49.33,1.41,1.33l-5.93,53.83a1.72,1.72,0,0,1-.52,1.11,1.78,1.78,0,0,1-1.11.54L1339.06,654a1.22,1.22,0,0,1-1-.32Zm-2.84,27.64a8.83,8.83,0,0,1-2.54-7.43,12.18,12.18,0,0,1,3.63-8,13.17,13.17,0,0,1,8.11-3.79q4.81-.5,7.69,2.16c1.93,1.78,2.78,4.23,2.55,7.38a12.39,12.39,0,0,1-3.64,8,12.73,12.73,0,0,1-8.11,3.92Q1338.06,684,1335.18,681.32Z" transform="translate(-203.85 -231)"/><polygon class="cls-6" points="14.55 146.75 0 352.62 0 352.62 1421.45 205.87 1436 0 14.55 146.75"/><path class="cls-5" d="M377.85,484.52,395,495.74a2.54,2.54,0,0,1,.21,3.83c-12,13.66-29.08,23.27-47.51,25.17-33.46,3.46-58.59-19.46-56.34-51.34s31-60.37,64.48-63.82c18.43-1.91,34.43,4.29,44.62,15.66a2.78,2.78,0,0,1-.74,3.91l-19,15.08a2.65,2.65,0,0,1-3.58.06c-5.43-5.75-13.71-8.76-23.22-7.78-17.7,1.83-33.14,17.1-34.33,34s12.29,29.16,30,27.33a39.58,39.58,0,0,0,24.66-12.62A2.88,2.88,0,0,1,377.85,484.52Z" transform="translate(-203.85 -231)"/><path class="cls-5" d="M506.86,395.83a1.78,1.78,0,0,1,2.06,1.95l-4.57,64.69c-2.11,29.87-20.65,48.23-52,51.46s-47.54-11.53-45.44-41.4l4.58-64.69a2.74,2.74,0,0,1,2.37-2.41l26.75-2.76a1.8,1.8,0,0,1,2.07,1.95l-4.57,64.68c-.9,12.54,4.94,18.86,16.15,17.7s18-8.78,18.92-21.31L477.75,401a2.72,2.72,0,0,1,2.37-2.41Z" transform="translate(-203.85 -231)"/><path class="cls-5" d="M616.24,387.44l-7.46,105.68c-.18,2.52-3.32,4.18-5.12,2.69l-52.82-43.94c-1.79-1.49-4.93.16-5.11,2.69l-3.2,45.31a3.64,3.64,0,0,1-3.18,3.23l-25.23,2.6a2.4,2.4,0,0,1-2.77-2.61l7.47-105.68c.18-2.52,3.31-4.18,5.12-2.69l52.81,43.94c1.8,1.49,4.94-.16,5.12-2.69l3.2-45.32a3.67,3.67,0,0,1,3.19-3.23l25.22-2.6A2.4,2.4,0,0,1,616.24,387.44Z" transform="translate(-203.85 -231)"/><path class="cls-5" d="M696.35,431.59c1.42-20.29-7.52-30.57-25.06-28.77L659.75,404a3.8,3.8,0,0,0-3.29,3.34l-4,57.09a2.49,2.49,0,0,0,2.88,2.71L666.83,466c17.54-1.81,28.08-14.11,29.52-34.38Zm31.17-3.22c-2.46,34.82-25.86,58-62.4,61.75l-42.71,4.4a2.5,2.5,0,0,1-2.88-2.71L627,386.44a3.78,3.78,0,0,1,3.29-3.35L673,378.68C709.53,374.91,730,393.54,727.52,428.37Z" transform="translate(-203.85 -231)"/><path class="cls-5" d="M762.18,480.09l-26.67,2.76a1.73,1.73,0,0,1-1.88-2l7.56-107.06a2.61,2.61,0,0,1,2.21-2.39l26.65-2.76a1.72,1.72,0,0,1,1.89,2L764.37,477.7A2.62,2.62,0,0,1,762.18,480.09Z" transform="translate(-203.85 -231)"/><path class="cls-5" d="M880.77,359.89l-7.53,106.46c-.16,2.33-3,3.84-4.69,2.47L815,424.25c-1.65-1.37-4.53.14-4.7,2.46L807,472.81a3.34,3.34,0,0,1-2.91,3l-25.72,2.65a2.21,2.21,0,0,1-2.55-2.39l7.53-106.46c.16-2.32,3-3.83,4.7-2.46l53.58,44.56c1.64,1.37,4.53-.14,4.7-2.46l3.25-46.1a3.35,3.35,0,0,1,2.92-3l25.72-2.66A2.2,2.2,0,0,1,880.77,359.89Z" transform="translate(-203.85 -231)"/><path class="cls-5" d="M1111.62,334.62l-7.64,108a2.74,2.74,0,0,1-2.39,2.43l-26.7,2.75a1.81,1.81,0,0,1-2.09-2l3.37-47.61c.13-1.92-2.11-2.68-3.64-1.26l-17.19,16a2.33,2.33,0,0,1-3,.3l-15.16-12.7c-1.35-1.12-3.72.12-3.86,2l-3.37,47.63a2.75,2.75,0,0,1-2.39,2.43l-26.7,2.75a1.8,1.8,0,0,1-2.08-2l7.62-108c.14-1.91,2.5-3.15,3.87-2l44.41,36.92a2.32,2.32,0,0,0,3-.31l50.33-46.7C1109.53,331.94,1111.75,332.71,1111.62,334.62Z" transform="translate(-203.85 -231)"/><path class="cls-5" d="M1263.93,364.52a1.4,1.4,0,0,0,1.63,1.53l10.92-1.13c19.65-2,26.52-5.81,27.18-15.08s-5.78-11.7-25.43-9.67l-10.92,1.12a2.17,2.17,0,0,0-1.87,1.9l-1.51,21.33Zm32.17,59.7L1273.61,390a1.47,1.47,0,0,0-1.41-.61l-8.35.86a2.15,2.15,0,0,0-1.87,1.9l-2.47,34.95a2.16,2.16,0,0,1-1.87,1.9L1230,431.8a1.41,1.41,0,0,1-1.63-1.53l7.64-108a2.14,2.14,0,0,1,1.88-1.89l42.09-4.35c41.08-4.23,56.73,4.59,54.89,30.6-1.23,17.36-9.26,28.49-26.52,35.29a2,2,0,0,0-1.09,2.71l22.63,34.21a2,2,0,0,1-1.65,2.83l-30.69,3.16A1.46,1.46,0,0,1,1296.1,424.22Z" transform="translate(-203.85 -231)"/><path class="cls-5" d="M1426.36,376.08l17.7,11.6a2.17,2.17,0,0,1,.18,3.29c-12,13.84-29.2,23.58-47.8,25.5-33.45,3.45-58.59-19.46-56.34-51.35,2.25-31.72,31-60.35,64.48-63.81,18.59-1.92,34.68,4.38,44.88,15.93a2.41,2.41,0,0,1-.65,3.37L1429.2,336.2a2.29,2.29,0,0,1-3.09.05c-5.42-5.9-13.79-9-23.43-8-17.7,1.83-33.12,17.1-34.32,34s12.29,29.17,30,27.34a39.6,39.6,0,0,0,24.91-12.88A2.47,2.47,0,0,1,1426.36,376.08Z" transform="translate(-203.85 -231)"/><path class="cls-5" d="M942.12,351.14,881.39,464.77a1.82,1.82,0,0,0,1.73,2.84l24.74-2.55a2.69,2.69,0,0,0,2-1.39l27.92-51.19c.89-1.66,3.18-1.89,3.86-.4l20.91,46.15a1.79,1.79,0,0,0,1.86,1l24.84-2.56a2.51,2.51,0,0,0,2.16-3.24L946,350.74C945.34,349.22,943,349.46,942.12,351.14Z" transform="translate(-203.85 -231)"/><path class="cls-5" d="M1172.42,327.33,1111.65,441a1.81,1.81,0,0,0,1.72,2.82l24.79-2.57a2.65,2.65,0,0,0,2-1.37l27.93-51.24c.89-1.65,3.16-1.87,3.83-.39l20.93,46.19a1.75,1.75,0,0,0,1.84,1l24.91-2.57a2.48,2.48,0,0,0,2.13-3.21l-45.46-102.73C1175.61,325.43,1173.31,325.66,1172.42,327.33Z" transform="translate(-203.85 -231)"/><path class="cls-5" d="M1503.07,293.1,1442.23,407a1.75,1.75,0,0,0,1.67,2.75l24.88-2.57a2.61,2.61,0,0,0,2-1.33l28-51.38c.87-1.6,3.08-1.83,3.73-.38l21,46.31a1.71,1.71,0,0,0,1.79.95l25-2.58a2.43,2.43,0,0,0,2.09-3.13l-45.53-102.9C1506.19,291.24,1503.94,291.48,1503.07,293.1Z" transform="translate(-203.85 -231)"/><polygon class="cls-7" points="600.13 264.46 589.61 413.24 1310.96 338.77 1321.48 189.99 600.13 264.46"/><path class="cls-5" d="M883.46,554.54a1.85,1.85,0,0,1,1.2-.58l14.76-1.52a1.31,1.31,0,0,1,1.52,1.43l-1.77,57.64a1.76,1.76,0,0,1-1.75,1.79l-19.42,2c-1.09.12-1.59-.36-1.52-1.43l6.42-58.13a1.84,1.84,0,0,1,.56-1.19Zm18.24-31.61q3.12,2.94,2.76,8a13.46,13.46,0,0,1-3.94,8.75,14,14,0,0,1-8.78,4.17q-5.19.54-8.32-2.41t-2.75-8.05a13.46,13.46,0,0,1,3.94-8.73,14,14,0,0,1,8.79-4.18C896.85,520.16,899.63,521,901.7,522.93Z" transform="translate(-203.85 -231)"/><path class="cls-5" d="M959.87,534.32l-1.35,19.08c0,.44.19.64.64.59l15.17-1.57a14.16,14.16,0,0,0,8.41-3.59,11.18,11.18,0,0,0,3.66-7.65c.21-3.13-.65-5.53-2.61-7.19s-4.64-2.32-8-2l-15.17,1.57a.73.73,0,0,0-.74.74Zm21.5,70.3-13.61-34a.71.71,0,0,0-.78-.45l-9,.92a.76.76,0,0,0-.73.75L954.74,607a1.85,1.85,0,0,1-.56,1.18,2,2,0,0,1-1.2.6l-19.42,2a1.33,1.33,0,0,1-1.12-.35,1.24,1.24,0,0,1-.4-1.09l6.42-90.78a2,2,0,0,1,1.74-1.78l40.61-4.2q9-.93,15.61,2a20,20,0,0,1,9.87,9.19,27.13,27.13,0,0,1,2.68,14.85,31.1,31.1,0,0,1-5.6,16,32.44,32.44,0,0,1-13.26,10.83c-.47.24-.63.55-.47,1l15.43,35.07a2,2,0,0,1,.22.78c-.06.71-.59,1.12-1.58,1.23l-20.51,2.12A1.58,1.58,0,0,1,981.37,604.62Z" transform="translate(-203.85 -231)"/><path class="cls-5" d="M1102.35,518.48a1.86,1.86,0,0,1-1.19.59l-42.94,4.43a.72.72,0,0,0-.72.74l-1.17,16.53c0,.44.17.64.63.59l27.49-2.84a1.38,1.38,0,0,1,1.12.36,1.3,1.3,0,0,1,.4,1.09l-1.11,15.72a1.91,1.91,0,0,1-.55,1.18,2,2,0,0,1-1.2.6l-27.49,2.83a.72.72,0,0,0-.72.74l-1.26,17.72c0,.46.18.66.64.61l42.93-4.43a1.36,1.36,0,0,1,1.13.35,1.33,1.33,0,0,1,.4,1.09l-1.13,15.84a1.8,1.8,0,0,1-.56,1.19,1.83,1.83,0,0,1-1.19.6l-64.67,6.67a1.35,1.35,0,0,1-1.14-.35,1.3,1.3,0,0,1-.39-1.09l6.42-90.79a1.82,1.82,0,0,1,.56-1.18,1.92,1.92,0,0,1,1.19-.6L1102.5,500a1.35,1.35,0,0,1,1.13.35,1.3,1.3,0,0,1,.4,1.09l-1.11,15.85A1.91,1.91,0,0,1,1102.35,518.48Z" transform="translate(-203.85 -231)"/><path class="cls-5" d="M1138.27,586.42a24.2,24.2,0,0,1-12-10.75c-2.67-4.88-3.79-10.72-3.3-17.52l1.94-27.53a39.48,39.48,0,0,1,5.85-18.41,40.57,40.57,0,0,1,13.7-13.33,46.59,46.59,0,0,1,19.52-6.29c7.21-.75,13.48,0,18.85,2.11a24.44,24.44,0,0,1,12.13,9.89,25,25,0,0,1,3.46,15.24l0,.67a1.82,1.82,0,0,1-.56,1.2,1.9,1.9,0,0,1-1.19.58l-19.42,2a1.37,1.37,0,0,1-1.12-.36,1.22,1.22,0,0,1-.4-1.09,10.16,10.16,0,0,0-3.13-8.54c-2.34-2.21-5.64-3.08-9.93-2.64a15.89,15.89,0,0,0-10.4,5.08,17.23,17.23,0,0,0-4.57,10.86l-2,28.87q-.45,6.45,3.5,10c2.63,2.38,6.09,3.37,10.38,2.91a16.83,16.83,0,0,0,9.92-4.15,13.1,13.1,0,0,0,4.33-9.17l.25-3.76c0-.46-.17-.65-.62-.61l-13.68,1.42a1.38,1.38,0,0,1-1.13-.36,1.27,1.27,0,0,1-.4-1.09l1-14.76a1.78,1.78,0,0,1,.56-1.2,1.86,1.86,0,0,1,1.19-.59l35-3.62a1.37,1.37,0,0,1,1.12.36,1.22,1.22,0,0,1,.4,1.09l-1.28,18.27a38.9,38.9,0,0,1-5.83,18.2,39.68,39.68,0,0,1-13.7,13.14,47.89,47.89,0,0,1-19.49,6.15Q1146.23,589.86,1138.27,586.42Z" transform="translate(-203.85 -231)"/><path class="cls-5" d="M1220,580.73a1.3,1.3,0,0,1-.4-1.09l6.42-90.79a1.82,1.82,0,0,1,.56-1.19,1.91,1.91,0,0,1,1.2-.59l19.41-2a1.32,1.32,0,0,1,1.53,1.44l-6.43,90.79a1.81,1.81,0,0,1-.55,1.19,2,2,0,0,1-1.2.58l-19.41,2A1.37,1.37,0,0,1,1220,580.73Z" transform="translate(-203.85 -231)"/><path class="cls-5" d="M1302.2,470.72a1.47,1.47,0,0,1,.22-1.35l8-14a2.52,2.52,0,0,1,2.14-1.43l16.81-1.73c.91-.09,1.35.18,1.31.8a2.66,2.66,0,0,1-.49,1.11l-10.92,14.47a2.78,2.78,0,0,1-2,1.13l-13.94,1.44c-.64.06-1-.07-1.19-.41Zm15,78.84A18.2,18.2,0,0,0,1322,538l2-27.8c.33-4.56-.77-8.12-3.25-10.67s-5.93-3.58-10.29-3.13a16.65,16.65,0,0,0-10.77,5.31,18.19,18.19,0,0,0-4.81,11.5l-2,27.8q-.5,7,3.25,10.72c2.49,2.51,5.88,3.53,10.16,3.09a16.89,16.89,0,0,0,10.9-5.26Zm-31.42,22a24.67,24.67,0,0,1-12.2-10.94q-4.08-7.46-3.33-17.92l1.89-26.86a39.72,39.72,0,0,1,5.93-18.54A40.92,40.92,0,0,1,1292,483.71a47.34,47.34,0,0,1,19.78-6.37q11.09-1.15,19.25,2.34a24.56,24.56,0,0,1,12.26,10.87q4.1,7.36,3.37,17.58L1344.75,535a40.3,40.3,0,0,1-20,32.52,47.51,47.51,0,0,1-19.86,6.38Q1293.87,575,1285.77,571.54Z" transform="translate(-203.85 -231)"/><path class="cls-5" d="M1429.31,466.73a2,2,0,0,1,1.2-.59l19.4-2a1.34,1.34,0,0,1,1.14.35,1.31,1.31,0,0,1,.4,1.08L1445,556.36a1.82,1.82,0,0,1-.56,1.19,1.91,1.91,0,0,1-1.2.59l-18.59,1.92a1.58,1.58,0,0,1-1.83-.88l-27.82-48c-.18-.24-.35-.34-.53-.28s-.29.28-.31.63L1390.75,562a1.82,1.82,0,0,1-.56,1.19,1.86,1.86,0,0,1-1.19.59l-19.42,2a1.34,1.34,0,0,1-1.12-.36,1.24,1.24,0,0,1-.4-1.09l6.41-90.77a1.86,1.86,0,0,1,.55-1.19,2,2,0,0,1,1.2-.6l18.73-1.93a1.63,1.63,0,0,1,1.85.87l27.69,47.94c.16.24.33.34.52.28s.29-.27.31-.63l3.42-50.35A1.88,1.88,0,0,1,1429.31,466.73Z" transform="translate(-203.85 -231)"/></svg>