<svg id="Capa_1" data-name="Capa 1" xmlns="http://www.w3.org/2000/svg" xmlns:xlink="http://www.w3.org/1999/xlink" viewBox="0 0 1686 727.41"><defs><style>.cls-1{fill:#03a0ca;}.cls-2,.cls-3,.cls-4,.cls-5,.cls-6,.cls-7,.cls-8{fill-rule:evenodd;}.cls-2{fill:url(#GradientFill_7);}.cls-3{fill:url(#GradientFill_7-2);}.cls-4{fill:url(#GradientFill_7-3);}.cls-5{fill:url(#GradientFill_8);}.cls-6{fill:#fdfdfd;}.cls-7{fill:url(#GradientFill_9);}.cls-8{fill:url(#GradientFill_10);}</style><linearGradient id="GradientFill_7" x1="642.09" y1="206.49" x2="642.09" y2="378.51" gradientUnits="userSpaceOnUse"><stop offset="0" stop-color="#d76929"/><stop offset="1" stop-color="#e48327"/></linearGradient><linearGradient id="GradientFill_7-2" x1="1199" y1="287.06" x2="1199" y2="459.09" xlink:href="#GradientFill_7"/><linearGradient id="GradientFill_7-3" x1="454.51" y1="511.37" x2="454.51" y2="683.4" xlink:href="#GradientFill_7"/><linearGradient id="GradientFill_8" x1="169.11" y1="518.73" x2="1377.82" y2="518.73" gradientUnits="userSpaceOnUse"><stop offset="0" stop-color="#c8272c"/><stop offset="1" stop-color="#d52a34"/></linearGradient><linearGradient id="GradientFill_9" x1="812.61" y1="277.09" x2="801.54" y2="119.24" gradientUnits="userSpaceOnUse"><stop offset="0" stop-color="#214985"/><stop offset="0.03" stop-color="#1f4d87"/><stop offset="1" stop-color="#007cb3"/></linearGradient><linearGradient id="GradientFill_10" x1="1074.09" y1="464.51" x2="1074.09" y2="213.56" gradientUnits="userSpaceOnUse"><stop offset="0" stop-color="#e9a311"/><stop offset="1" stop-color="#e3b210"/></linearGradient></defs><title>LOGO GOB1</title><rect class="cls-1" x="1683.28" y="125.3" width="2.72" height="602.11"/><polygon class="cls-2" points="955.62 194.66 955.62 194.62 337.62 258.42 328.56 390.38 946.54 326.58 955.62 194.66"/><polygon class="cls-3" points="894.54 339 885.47 470.95 1503.45 407.15 1512.53 275.2 894.54 339"/><polygon class="cls-4" points="150.05 563.3 140.98 695.26 758.96 631.46 768.03 499.5 150.05 563.3"/><polygon class="cls-5" points="182.86 496.16 169.11 664.67 1364.08 541.31 1377.82 372.8 182.86 496.16"/><path class="cls-6" d="M426.86,760.77c.32-4.55-.7-8.1-3.05-10.62s-5.67-3.57-9.94-3.13a15.66,15.66,0,0,0-10.37,5.22,18.48,18.48,0,0,0-4.62,11.42l-2.1,29.85q-.48,6.82,3.05,10.63c2.36,2.52,5.62,3.58,9.78,3.14A15.81,15.81,0,0,0,420.14,802a18.26,18.26,0,0,0,4.61-11.41l2.11-29.85Zm7.84-31.07A25.13,25.13,0,0,1,447,741.1q4.1,7.75,3.34,18.49l-2.05,29.16a38.93,38.93,0,0,1-8.24,21.69,42.73,42.73,0,0,1-19.23,13.82.83.83,0,0,0-.62.76l-.77,10.89a1.87,1.87,0,0,1-.58,1.23,2,2,0,0,1-1.25.61l-20.16,2.08a1.42,1.42,0,0,1-1.18-.37,1.39,1.39,0,0,1-.41-1.12l.78-10.88a.55.55,0,0,0-.53-.65c-7.72-1.22-13.6-4.53-17.7-9.87s-5.84-12.16-5.25-20.44l2.06-29.15a42.9,42.9,0,0,1,6-19.46,41.41,41.41,0,0,1,14.1-14.12,46.74,46.74,0,0,1,19.92-6.56Q426.5,726.06,434.7,729.7Z" transform="translate(-126 -214.12)"/><path class="cls-6" d="M519.24,743.41a2,2,0,0,1,1.24-.61l20.17-2.09a1.42,1.42,0,0,1,1.18.37,1.34,1.34,0,0,1,.41,1.14L537.38,811a1.87,1.87,0,0,1-.58,1.23,2,2,0,0,1-1.25.62l-20.17,2.08a1.35,1.35,0,0,1-1.16-.37,1.32,1.32,0,0,1-.42-1.13l.35-4.88c0-.28-.06-.46-.25-.53s-.38,0-.58.34c-4.18,5.69-10.32,9-18.47,9.8q-10.78,1.11-17-4.9t-5.36-18l3.27-46.17a1.9,1.9,0,0,1,.58-1.24,2,2,0,0,1,1.24-.62l20.17-2.08a1.45,1.45,0,0,1,1.17.37,1.32,1.32,0,0,1,.41,1.13l-2.88,40.87c-.23,3.26.43,5.78,2,7.56s3.81,2.51,6.75,2.21a11.27,11.27,0,0,0,6.77-3,12.54,12.54,0,0,0,3.65-6.62l3-43A1.87,1.87,0,0,1,519.24,743.41Z" transform="translate(-126 -214.12)"/><path class="cls-6" d="M590.12,761a14.49,14.49,0,0,0-.92,3c-.22.48-.05.7.52.64l20.17-2.08a.6.6,0,0,0,.6-.61,8.23,8.23,0,0,0-.36-2.73,7.33,7.33,0,0,0-3.26-4.93,10,10,0,0,0-6.47-1.13q-7.39.75-10.28,7.84Zm44,10.56a2,2,0,0,1-2,1.86l-43.32,4.47a1,1,0,0,0-.58.28c-.2.16-.26.33-.18.49a16.15,16.15,0,0,0,1.14,3.9,9.69,9.69,0,0,0,4.77,4.22,16.25,16.25,0,0,0,8.26,1,21.58,21.58,0,0,0,14.47-7.18,1.88,1.88,0,0,1,1.32-.82,1.09,1.09,0,0,1,1.1.43l10.06,11.15a1.07,1.07,0,0,1,.5,1.05,2,2,0,0,1-.66,1.18,41.23,41.23,0,0,1-12.84,9.36A49.33,49.33,0,0,1,600,807.29q-12.93,1.35-21.55-3.24A24.24,24.24,0,0,1,566.5,790q-2.5-6.66-1.75-17.13A47.26,47.26,0,0,1,568,758.67a41.66,41.66,0,0,1,13.29-17.51,39.69,39.69,0,0,1,20.52-8,31.58,31.58,0,0,1,16.47,2.25,25.29,25.29,0,0,1,11.23,9.78,34.19,34.19,0,0,1,4.91,15.35A54.27,54.27,0,0,1,634.07,771.51Z" transform="translate(-126 -214.12)"/><path class="cls-6" d="M751.31,733.37a12.72,12.72,0,0,0,4.21-8.74c.26-3.53-.75-6.27-3-8.21s-5.33-2.71-9.21-2.29l-14.63,1.5a.75.75,0,0,0-.76.77l-1.56,22c0,.46.19.67.66.62l14.63-1.51a16.08,16.08,0,0,0,9.67-4.18Zm14.06-37.32a21.61,21.61,0,0,1,10.73,9.77q3.55,6.61,2.9,15.83a34.79,34.79,0,0,1-5.33,16.48,35.59,35.59,0,0,1-12.61,12,44.89,44.89,0,0,1-18,5.59l-17.32,1.8a.76.76,0,0,0-.77.77l-2.38,33.62a1.9,1.9,0,0,1-.58,1.23,2,2,0,0,1-1.24.62l-20.17,2.07A1.36,1.36,0,0,1,699,794.3L705.66,700a1.92,1.92,0,0,1,.58-1.24,2,2,0,0,1,1.24-.62l41-4.24C755,693.24,760.58,694,765.37,696.05Z" transform="translate(-126 -214.12)"/><path class="cls-6" d="M849.5,709.66a1.57,1.57,0,0,1,.71,2l-4.64,19.74c-.19,1.12-.87,1.52-2.07,1.18a22,22,0,0,0-4.78-.06,20.36,20.36,0,0,0-3.71.65,16.16,16.16,0,0,0-7.7,4.12,11.48,11.48,0,0,0-3.57,7.71l-2.6,36.7a2.08,2.08,0,0,1-1.82,1.84l-20.16,2.08a1.42,1.42,0,0,1-1.18-.36,1.32,1.32,0,0,1-.41-1.13l4.85-68.78a2,2,0,0,1,.58-1.24,2,2,0,0,1,1.25-.6l20.17-2.09a1.41,1.41,0,0,1,1.17.36,1.37,1.37,0,0,1,.41,1.14l-.32,4.46c0,.28.08.46.26.53s.33,0,.43-.33q6.21-8,15.3-8.9Q846.79,708.14,849.5,709.66Z" transform="translate(-126 -214.12)"/><path class="cls-6" d="M906.75,753.4a19,19,0,0,0,4.47-7.46,36.93,36.93,0,0,0,1.42-8,31.42,31.42,0,0,0-.42-8,10.54,10.54,0,0,0-3.36-6.29,8.69,8.69,0,0,0-6.66-1.68q-8.22.85-11.43,10.19a35.1,35.1,0,0,0-1.43,8.17,33.4,33.4,0,0,0,.3,7.87,11.29,11.29,0,0,0,3.41,6.64,8.33,8.33,0,0,0,6.7,1.87,11.26,11.26,0,0,0,7-3.28ZM877.1,772q-8.49-5.77-10.65-16.9a41.1,41.1,0,0,1-.82-12.39,48.76,48.76,0,0,1,2.8-13.71,39.29,39.29,0,0,1,13.36-18.48,42.47,42.47,0,0,1,22-8.43q12.5-1.29,20.73,4T935.33,722a41,41,0,0,1,1,13.19A51.55,51.55,0,0,1,934,747.61a40.92,40.92,0,0,1-35.59,28.88C889.83,777.38,882.74,775.88,877.1,772Z" transform="translate(-126 -214.12)"/><path class="cls-6" d="M1005.42,727.77a48.68,48.68,0,0,0,.14-5.9,13.15,13.15,0,0,0-.86-4,7.75,7.75,0,0,0-3.27-4.44,9.21,9.21,0,0,0-5.92-1.11q-6.68.69-10,7.54a24.28,24.28,0,0,0-2.85,10.53c-.32,4.57.05,7.85,1.13,9.86a8.73,8.73,0,0,0,3.5,4.35,9,9,0,0,0,6,1.17,11.59,11.59,0,0,0,10.12-7.4q1.5-3.35,2-10.6Zm3-34.86a2,2,0,0,1,1.24-.61l20.17-2.08a1.44,1.44,0,0,1,1.18.36,1.42,1.42,0,0,1,.41,1.13L1027,754.07q-1.37,19.13-13.15,28.5t-29,11.17a86,86,0,0,1-13.41.27c-.95,0-1.38-.55-1.3-1.66L972.06,775a1.69,1.69,0,0,1,.66-1.38,1.75,1.75,0,0,1,1.42-.22,49.47,49.47,0,0,0,10.7.15q8.11-.84,13-4.94c3.3-2.75,5.14-6.72,5.5-11.94l-1.07,1.08q-5.46,5.55-15.12,6.55A33.35,33.35,0,0,1,970.3,762c-5-2.15-8.42-6.51-10.22-13.07q-1.82-6.46-1.11-16.22.75-10.74,3.94-17.85A37.2,37.2,0,0,1,974.33,700a32.55,32.55,0,0,1,17-6.89q10.23-1.05,15.33,4.52a.51.51,0,0,0,.56.15.53.53,0,0,0,.31-.51l.22-3.07A1.9,1.9,0,0,1,1008.38,692.91Z" transform="translate(-126 -214.12)"/><path class="cls-6" d="M1104.44,683.35a1.55,1.55,0,0,1,.69,2l-4.63,19.73c-.18,1.12-.87,1.52-2.06,1.18a21.42,21.42,0,0,0-4.79-.06,21.64,21.64,0,0,0-3.71.65,16.14,16.14,0,0,0-7.69,4.13,11.34,11.34,0,0,0-3.57,7.71l-2.6,36.69a1.92,1.92,0,0,1-.58,1.22,2,2,0,0,1-1.24.63l-20.17,2.08a1.43,1.43,0,0,1-1.17-.36,1.33,1.33,0,0,1-.42-1.14l4.86-68.78a2,2,0,0,1,.58-1.23,2,2,0,0,1,1.24-.62l20.18-2.08a1.41,1.41,0,0,1,1.16.36,1.33,1.33,0,0,1,.42,1.14l-.32,4.47c0,.27.06.45.24.52s.34,0,.45-.31q6.21-8,15.3-8.93C1100,682,1102.62,682.33,1104.44,683.35Z" transform="translate(-126 -214.12)"/><path class="cls-6" d="M1146.43,703.51a14.28,14.28,0,0,0-.92,3c-.22.48,0,.69.52.62l20.17-2.07a.59.59,0,0,0,.6-.62,7.82,7.82,0,0,0-.36-2.73,7.37,7.37,0,0,0-3.24-4.93,10.32,10.32,0,0,0-6.48-1.13q-7.38.76-10.29,7.84Zm44,10.57a2,2,0,0,1-2,1.87l-43.31,4.46a1.26,1.26,0,0,0-.58.27c-.2.16-.26.33-.18.5a16.23,16.23,0,0,0,1.13,3.91,9.68,9.68,0,0,0,4.79,4.21,16.18,16.18,0,0,0,8.24,1,21.48,21.48,0,0,0,14.47-7.18,2,2,0,0,1,1.32-.82,1.15,1.15,0,0,1,1.1.43l10.07,11.15a1.08,1.08,0,0,1,.49,1.07,1.9,1.9,0,0,1-.64,1.16,40.8,40.8,0,0,1-12.86,9.36,49.47,49.47,0,0,1-16.18,4.45q-12.91,1.32-21.55-3.24a24.29,24.29,0,0,1-11.91-14.09c-1.67-4.44-2.24-10.15-1.75-17.13a47.71,47.71,0,0,1,3.25-14.18,41.71,41.71,0,0,1,13.3-17.5,39.76,39.76,0,0,1,20.52-8,31.46,31.46,0,0,1,16.48,2.24,25.17,25.17,0,0,1,11.22,9.79,34.27,34.27,0,0,1,4.91,15.34A55.16,55.16,0,0,1,1190.38,714.08Z" transform="translate(-126 -214.12)"/><path class="cls-6" d="M1224.92,740.08q-7.34-2-11-6.48a15,15,0,0,1-3.25-11l.11-1.53a1.91,1.91,0,0,1,.57-1.24,2.07,2.07,0,0,1,1.25-.62l19.17-2a1.43,1.43,0,0,1,1.18.37,1.35,1.35,0,0,1,.41,1.14c-.13,1.76.77,3.13,2.68,4.08a13.43,13.43,0,0,0,7.4,1,14.65,14.65,0,0,0,6.41-2,5,5,0,0,0,2.6-3.8,2.81,2.81,0,0,0-2.26-3,36.24,36.24,0,0,0-7.88-1.2,62.27,62.27,0,0,1-14.2-2.54,26.17,26.17,0,0,1-11-6.15c-2.64-2.63-3.76-6.51-3.41-11.61q.78-10.89,9.82-18.12t23.09-8.69a40.16,40.16,0,0,1,16.49,1.27,20.15,20.15,0,0,1,10.55,7.3,18,18,0,0,1,3.08,12.14,1.87,1.87,0,0,1-.58,1.24,2,2,0,0,1-1.24.61l-18.6,1.92a1.36,1.36,0,0,1-1.17-.37,1.29,1.29,0,0,1-.42-1.13,4.07,4.07,0,0,0-2.26-4.06c-1.61-.94-3.89-1.25-6.83-.95a15.29,15.29,0,0,0-6.56,2,5,5,0,0,0-2.74,3.95c-.11,1.58.7,2.63,2.45,3.14a53.85,53.85,0,0,0,8.93,1.36c5.41.56,9.19,1,11.32,1.47q8.6,1.89,13.17,6.12t4,12.19a23.35,23.35,0,0,1-9.93,17.71q-9.16,6.82-23.93,8.35A49,49,0,0,1,1224.92,740.08Z" transform="translate(-126 -214.12)"/><path class="cls-6" d="M1336.52,712.08a10.56,10.56,0,0,0,4-7.55l.24-3.35c0-.46-.19-.66-.67-.62l-8.52.88a17.89,17.89,0,0,0-8.43,2.67,7.33,7.33,0,0,0-3.3,5.74,5.08,5.08,0,0,0,1.79,4.66c1.33,1.07,3.27,1.47,5.84,1.21a16.43,16.43,0,0,0,9.07-3.64Zm14.25-53a23,23,0,0,1,11.46,7.41,16.41,16.41,0,0,1,3.54,11.75l-3.37,47.57a2,2,0,0,1-.58,1.23,1.93,1.93,0,0,1-1.24.61l-20.17,2.09a1.41,1.41,0,0,1-1.17-.36,1.33,1.33,0,0,1-.41-1.15l.33-4.87c0-.37,0-.57-.23-.6s-.39.16-.61.54q-6,8.38-19,9.73-11.36,1.17-17.73-3.36c-4.25-3-6.15-7.94-5.66-14.73a23.82,23.82,0,0,1,8.76-17.38q8-6.66,22.51-8.14L1341,688a.77.77,0,0,0,.77-.78l.18-2.64a6.18,6.18,0,0,0-2.14-5.67c-1.6-1.27-3.92-1.74-6.94-1.42a14.69,14.69,0,0,0-6,1.85,7.76,7.76,0,0,0-3.42,3.55c-.55,1.07-1.24,1.6-2.09,1.59l-20.26-.54c-1.12-.07-1.67-.42-1.62-1.08a23.25,23.25,0,0,1,5.68-11.59,37.21,37.21,0,0,1,12.2-9,49.59,49.59,0,0,1,16.47-4.53A41.92,41.92,0,0,1,1350.77,659.09Z" transform="translate(-126 -214.12)"/><path class="cls-6" d="M1400.87,689.24a1.35,1.35,0,0,1-.41-1.14l1.83-60a1.84,1.84,0,0,1,1.84-1.85l20.16-2.08c1.13-.12,1.67.38,1.58,1.5l-6.66,60.51a2.07,2.07,0,0,1-1.84,1.85L1402,689.6a1.41,1.41,0,0,1-1.17-.36Zm-3.19,31.06c-2.16-2-3.11-4.83-2.85-8.35a13.65,13.65,0,0,1,4.08-9,14.76,14.76,0,0,1,9.11-4.26c3.61-.38,6.49.44,8.65,2.43s3.12,4.76,2.86,8.29a14,14,0,0,1-4.09,9,14.33,14.33,0,0,1-9.12,4.4C1402.72,723.17,1399.84,722.35,1397.68,720.3Z" transform="translate(-126 -214.12)"/><polygon class="cls-7" points="16.36 164.95 0 396.36 0 396.36 1597.8 231.41 1614.15 0 16.36 164.95"/><path class="cls-6" d="M321.58,499.09l19.26,12.62a2.84,2.84,0,0,1,.23,4.29c-13.45,15.36-32.68,26.17-53.4,28.31-37.61,3.88-65.86-21.88-63.33-57.72,2.52-35.67,34.88-67.85,72.48-71.74,20.72-2.14,38.7,4.83,50.16,17.6,1.06,1.19.65,3.23-.83,4.4l-21.34,17a3,3,0,0,1-4,.06c-6.09-6.46-15.4-9.85-26.1-8.74-19.9,2.05-37.25,19.22-38.58,38.18s13.81,32.78,33.71,30.72a44.53,44.53,0,0,0,27.73-14.18A3.23,3.23,0,0,1,321.58,499.09Z" transform="translate(-126 -214.12)"/><path class="cls-6" d="M466.6,399.39a2,2,0,0,1,2.31,2.2l-5.14,72.71c-2.36,33.58-23.21,54.22-58.44,57.85s-53.44-13-51.08-46.53l5.15-72.73a3.07,3.07,0,0,1,2.66-2.7l30.07-3.1a2,2,0,0,1,2.32,2.19L389.32,482c-1,14.09,5.56,21.2,18.15,19.89s20.27-9.86,21.27-24l5.13-72.71a3.08,3.08,0,0,1,2.67-2.71Z" transform="translate(-126 -214.12)"/><path class="cls-6" d="M589.55,390l-8.39,118.8c-.21,2.84-3.73,4.7-5.76,3L516,462.39c-2-1.67-5.55.19-5.74,3l-3.61,50.92a4.08,4.08,0,0,1-3.57,3.64l-28.36,2.92a2.69,2.69,0,0,1-3.11-2.94L480,401.18c.21-2.84,3.73-4.7,5.76-3l59.36,49.38c2,1.68,5.55-.18,5.76-3l3.59-50.94a4.12,4.12,0,0,1,3.58-3.63L586.44,387A2.69,2.69,0,0,1,589.55,390Z" transform="translate(-126 -214.12)"/><path class="cls-6" d="M679.59,439.59c1.61-22.8-8.45-34.35-28.16-32.33l-13,1.35a4.25,4.25,0,0,0-3.7,3.75l-4.54,64.18a2.8,2.8,0,0,0,3.23,3l13-1.33c19.72-2,31.57-15.87,33.18-38.66Zm35-3.62c-2.76,39.15-29.06,65.17-70.13,69.41l-48,4.95a2.79,2.79,0,0,1-3.23-3l8.38-118.44a4.24,4.24,0,0,1,3.7-3.77l48-5C694.42,375.88,717.4,396.82,714.63,436Z" transform="translate(-126 -214.12)"/><path class="cls-6" d="M753.59,494.11l-30,3.1A1.94,1.94,0,0,1,721.5,495L730,374.65a2.93,2.93,0,0,1,2.48-2.69l30-3.1a1.94,1.94,0,0,1,2.13,2.22l-8.51,120.34A2.94,2.94,0,0,1,753.59,494.11Z" transform="translate(-126 -214.12)"/><path class="cls-6" d="M886.89,359l-8.46,119.67c-.18,2.61-3.42,4.31-5.27,2.77l-60.23-50.09c-1.86-1.54-5.09.16-5.28,2.77L804,485.93a3.77,3.77,0,0,1-3.28,3.33l-28.91,3a2.47,2.47,0,0,1-2.86-2.68l8.46-119.67c.18-2.61,3.42-4.31,5.28-2.77l60.23,50.1c1.85,1.54,5.1-.16,5.28-2.77l3.65-51.82a3.79,3.79,0,0,1,3.29-3.33l28.91-3A2.47,2.47,0,0,1,886.89,359Z" transform="translate(-126 -214.12)"/><path class="cls-6" d="M1146.39,330.59,1137.8,452a3.08,3.08,0,0,1-2.69,2.73l-30,3.1a2,2,0,0,1-2.35-2.21l3.79-53.53c.14-2.15-2.37-3-4.09-1.41l-19.33,18a2.6,2.6,0,0,1-3.39.34l-17-14.27c-1.52-1.27-4.19.13-4.35,2.27l-3.77,53.54a3.12,3.12,0,0,1-2.7,2.73l-30,3.09a2,2,0,0,1-2.34-2.21l8.57-121.4c.16-2.15,2.81-3.55,4.35-2.28L1082.36,382a2.6,2.6,0,0,0,3.37-.35l56.58-52.49C1144,327.58,1146.53,328.45,1146.39,330.59Z" transform="translate(-126 -214.12)"/><path class="cls-6" d="M1317.59,364.2a1.58,1.58,0,0,0,1.83,1.72l12.28-1.26c22.08-2.27,29.81-6.53,30.55-17s-6.5-13.15-28.59-10.87l-12.27,1.27a2.41,2.41,0,0,0-2.1,2.13l-1.7,24Zm36.17,67.11-25.29-38.52a1.66,1.66,0,0,0-1.58-.69l-9.38,1a2.41,2.41,0,0,0-2.11,2.14l-2.78,39.28a2.42,2.42,0,0,1-2.1,2.14l-31.11,3.2a1.58,1.58,0,0,1-1.83-1.72l8.58-121.41a2.41,2.41,0,0,1,2.11-2.12l47.31-4.89c46.19-4.76,63.78,5.16,61.71,34.4-1.38,19.5-10.41,32-29.82,39.67a2.17,2.17,0,0,0-1.22,3l25.44,38.46c.78,1.21-.29,3-1.85,3.19l-34.5,3.55A1.63,1.63,0,0,1,1353.76,431.31Z" transform="translate(-126 -214.12)"/><path class="cls-6" d="M1500.17,377.2l19.9,13a2.44,2.44,0,0,1,.2,3.69c-13.47,15.57-32.82,26.51-53.73,28.66-37.6,3.89-65.86-21.86-63.33-57.71,2.53-35.66,34.88-67.84,72.48-71.73,20.9-2.16,39,4.93,50.45,17.91a2.71,2.71,0,0,1-.73,3.79l-22.05,17.52a2.57,2.57,0,0,1-3.47.06c-6.09-6.63-15.5-10.13-26.33-9-19.9,2.06-37.23,19.23-38.58,38.18s13.81,32.78,33.71,30.73a44.51,44.51,0,0,0,28-14.48A2.78,2.78,0,0,1,1500.17,377.2Z" transform="translate(-126 -214.12)"/><path class="cls-6" d="M955.86,349.17,887.6,476.89a2,2,0,0,0,1.94,3.19l27.8-2.87a2.94,2.94,0,0,0,2.27-1.55L951,418.11c1-1.86,3.58-2.12,4.34-.44l23.5,51.87a2,2,0,0,0,2.09,1.11l27.93-2.88c1.79-.18,3.1-2.15,2.43-3.64l-51-115.41C959.48,347,956.87,347.28,955.86,349.17Z" transform="translate(-126 -214.12)"/><path class="cls-6" d="M1214.72,322.4l-68.3,127.8c-.87,1.66.16,3.36,1.93,3.17l27.86-2.88a3,3,0,0,0,2.25-1.54l31.4-57.6c1-1.85,3.55-2.11,4.3-.44l23.53,51.93a2,2,0,0,0,2.07,1.09l28-2.89a2.8,2.8,0,0,0,2.4-3.61L1219.06,322C1218.32,320.26,1215.73,320.53,1214.72,322.4Z" transform="translate(-126 -214.12)"/><path class="cls-6" d="M1586.4,283.93l-68.4,128a2,2,0,0,0,1.89,3.08l28-2.89a2.93,2.93,0,0,0,2.2-1.5l31.48-57.75c1-1.8,3.47-2.05,4.2-.42l23.6,52.06a1.92,1.92,0,0,0,2,1.06l28.11-2.89a2.74,2.74,0,0,0,2.34-3.53l-51.17-115.66C1589.9,281.84,1587.38,282.11,1586.4,283.93Z" transform="translate(-126 -214.12)"/><polygon class="cls-8" points="674.58 297.27 662.76 464.51 1473.6 380.8 1485.43 213.56 674.58 297.27"/><path class="cls-6" d="M889.92,577.8a2.1,2.1,0,0,1,1.34-.66l16.6-1.71a1.51,1.51,0,0,1,1.26.39,1.47,1.47,0,0,1,.45,1.23l-2,64.79a2,2,0,0,1-2,2l-21.83,2.25c-1.23.13-1.8-.41-1.72-1.62l7.21-65.34a2.11,2.11,0,0,1,.64-1.33Zm20.5-35.54q3.51,3.32,3.11,9a15.2,15.2,0,0,1-4.43,9.83,15.79,15.79,0,0,1-9.87,4.69q-5.85.6-9.35-2.71t-3.1-9a15.14,15.14,0,0,1,4.44-9.83,15.69,15.69,0,0,1,9.87-4.69C905,539.16,908.09,540.07,910.42,542.26Z" transform="translate(-126 -214.12)"/><path class="cls-6" d="M975.81,555.07l-1.52,21.44c0,.5.21.73.72.67l17.06-1.76a15.94,15.94,0,0,0,9.44-4,12.51,12.51,0,0,0,4.12-8.6c.24-3.52-.73-6.21-2.94-8.08s-5.21-2.61-9-2.23l-17.05,1.76a.84.84,0,0,0-.83.84Zm24.16,79-15.3-38.28a.79.79,0,0,0-.87-.51l-10.15,1a.82.82,0,0,0-.81.84L970,636.74a2.1,2.1,0,0,1-.63,1.34,2.22,2.22,0,0,1-1.35.66L946.24,641a1.46,1.46,0,0,1-1.26-.39,1.4,1.4,0,0,1-.45-1.22l7.21-102a2,2,0,0,1,.63-1.34,2.07,2.07,0,0,1,1.33-.66l45.65-4.72q10.14-1,17.54,2.24a22.43,22.43,0,0,1,11.1,10.33q3.71,7,3,16.69a34.83,34.83,0,0,1-6.3,18,36.26,36.26,0,0,1-14.89,12.17c-.54.27-.72.62-.54,1.11l17.35,39.42a2.19,2.19,0,0,1,.24.87c-.06.8-.66,1.27-1.77,1.38l-23,2.39A1.79,1.79,0,0,1,1000,634.1Z" transform="translate(-126 -214.12)"/><path class="cls-6" d="M1136,537.26a2.13,2.13,0,0,1-1.35.67l-48.26,5a.81.81,0,0,0-.81.84l-1.31,18.57c0,.5.19.72.7.67l30.9-3.19a1.52,1.52,0,0,1,1.26.4,1.41,1.41,0,0,1,.45,1.22l-1.25,17.67a2.06,2.06,0,0,1-.62,1.33,2.23,2.23,0,0,1-1.35.67l-30.89,3.18a.83.83,0,0,0-.82.84L1081.21,605c0,.51.2.73.72.68l48.26-5a1.5,1.5,0,0,1,1.26.39,1.47,1.47,0,0,1,.45,1.23l-1.26,17.81a2.28,2.28,0,0,1-2,2l-72.7,7.5a1.51,1.51,0,0,1-1.27-.39,1.47,1.47,0,0,1-.44-1.22l7.21-102a2.13,2.13,0,0,1,.63-1.34,2.18,2.18,0,0,1,1.34-.67l72.7-7.5a1.51,1.51,0,0,1,1.26.4,1.43,1.43,0,0,1,.45,1.23l-1.25,17.81A2.11,2.11,0,0,1,1136,537.26Z" transform="translate(-126 -214.12)"/><path class="cls-6" d="M1176.34,613.64a27.22,27.22,0,0,1-13.49-12.09c-3-5.48-4.27-12-3.72-19.7l2.19-30.94a44.42,44.42,0,0,1,6.57-20.69,45.57,45.57,0,0,1,15.4-15,52.49,52.49,0,0,1,21.94-7.07q12.15-1.26,21.19,2.38a27.45,27.45,0,0,1,13.63,11.11,28.07,28.07,0,0,1,3.9,17.13l0,.75a2.08,2.08,0,0,1-.63,1.35,2.12,2.12,0,0,1-1.34.66l-21.83,2.25a1.51,1.51,0,0,1-1.26-.4,1.4,1.4,0,0,1-.45-1.22,11.47,11.47,0,0,0-3.52-9.61q-3.93-3.7-11.16-3a17.88,17.88,0,0,0-11.69,5.71,19.29,19.29,0,0,0-5.13,12.21l-2.3,32.45q-.51,7.26,3.94,11.29c3,2.68,6.84,3.79,11.66,3.28a19,19,0,0,0,11.16-4.67,14.75,14.75,0,0,0,4.86-10.31l.29-4.22c0-.51-.2-.73-.71-.69l-15.37,1.59a1.5,1.5,0,0,1-1.27-.39,1.42,1.42,0,0,1-.45-1.23l1.18-16.6a2,2,0,0,1,.63-1.34,2.07,2.07,0,0,1,1.33-.66l39.35-4.07a1.53,1.53,0,0,1,1.26.4,1.42,1.42,0,0,1,.45,1.23l-1.44,20.53a43.62,43.62,0,0,1-6.56,20.46,44.48,44.48,0,0,1-15.39,14.77,53.87,53.87,0,0,1-21.92,6.91Q1185.29,617.51,1176.34,613.64Z" transform="translate(-126 -214.12)"/><path class="cls-6" d="M1268.18,607.24a1.43,1.43,0,0,1-.45-1.23L1274.94,504a2,2,0,0,1,.63-1.33,2.18,2.18,0,0,1,1.35-.67l21.82-2.25a1.53,1.53,0,0,1,1.27.39,1.5,1.5,0,0,1,.45,1.23l-7.23,102.05a2.05,2.05,0,0,1-.61,1.34,2.21,2.21,0,0,1-1.35.65l-21.83,2.26A1.49,1.49,0,0,1,1268.18,607.24Z" transform="translate(-126 -214.12)"/><path class="cls-6" d="M1360.6,483.58a1.7,1.7,0,0,1,.26-1.52l9-15.77a2.85,2.85,0,0,1,2.41-1.6l18.9-1.95c1-.1,1.52.2,1.47.9a3.24,3.24,0,0,1-.55,1.25l-12.28,16.26a3.08,3.08,0,0,1-2.24,1.27L1361.94,484c-.72.07-1.16-.08-1.34-.46Zm16.85,88.62a20.37,20.37,0,0,0,5.42-13l2.21-31.25c.37-5.13-.86-9.13-3.66-12s-6.66-4-11.56-3.52a18.68,18.68,0,0,0-12.11,6,20.4,20.4,0,0,0-5.4,12.92l-2.22,31.25q-.56,7.85,3.65,12c2.81,2.82,6.62,4,11.42,3.48a19,19,0,0,0,12.25-5.92Zm-35.31,24.71a27.71,27.71,0,0,1-13.71-12.3q-4.59-8.37-3.75-20.14l2.12-30.19a44.83,44.83,0,0,1,6.67-20.85,46.17,46.17,0,0,1,15.65-15.25,53.19,53.19,0,0,1,22.24-7.16q12.45-1.29,21.64,2.63a27.63,27.63,0,0,1,13.77,12.22q4.61,8.28,3.79,19.76l-2.12,30.18A45.29,45.29,0,0,1,1386,592.37a53.59,53.59,0,0,1-22.32,7.17Q1351.26,600.83,1342.14,596.91Z" transform="translate(-126 -214.12)"/><path class="cls-6" d="M1503.49,479.1a2.21,2.21,0,0,1,1.34-.67l21.82-2.25a1.52,1.52,0,0,1,1.27.39,1.47,1.47,0,0,1,.45,1.23l-7.21,102a2.08,2.08,0,0,1-.63,1.35,2.15,2.15,0,0,1-1.35.65l-20.9,2.16a1.77,1.77,0,0,1-2-1L1465,529c-.19-.28-.39-.39-.59-.32s-.33.32-.35.71l-3.87,56.74a2,2,0,0,1-.63,1.34,2,2,0,0,1-1.33.66l-21.83,2.26a1.53,1.53,0,0,1-1.27-.4,1.41,1.41,0,0,1-.44-1.22l7.21-102a2,2,0,0,1,.62-1.34,2.16,2.16,0,0,1,1.35-.67l21-2.17a1.82,1.82,0,0,1,2.07,1l31.13,53.88c.18.28.38.39.58.32s.33-.31.36-.71l3.84-56.6A2,2,0,0,1,1503.49,479.1Z" transform="translate(-126 -214.12)"/></svg>