<svg id="Capa_1" data-name="Capa 1" xmlns="http://www.w3.org/2000/svg" viewBox="0 0 724.84 916"><defs><style>.cls-1{fill:#03a0ca;fill-rule:evenodd;}</style></defs><title>LOGO GOB2</title><path class="cls-1" d="M723.52,932.72v11.45a39.72,39.72,0,0,0-8.49-5.33,20.58,20.58,0,0,0-7.8-1.54,16.28,16.28,0,0,0-14,7.12c-3.33,4.75-5,11.13-5,19.17,0,8.54,1.91,15.2,5.67,19.91a16.76,16.76,0,0,0,13.8,6.62,18.55,18.55,0,0,0,7.66-1.62,33.88,33.88,0,0,0,3.78-2.12,43.52,43.52,0,0,0,4.44-3.34v11.17a52.76,52.76,0,0,1-9.45,2.92,49.22,49.22,0,0,1-9.64.87c-11.09,0-19.45-2.92-25.07-8.66-5.83-6-8.73-14.72-8.73-26.05,0-7.45,1.26-13.53,3.82-18.16q8.68-15.57,31.71-15.57A46.44,46.44,0,0,1,723.52,932.72Z" transform="translate(-615.16 -82)"/><path class="cls-1" d="M760.25,996.92v-6a23.42,23.42,0,0,1-5.4,4.67,19.4,19.4,0,0,1-10,2.34c-5.29,0-9.31-1.34-12-4.07s-4-6.73-4-12V946.65c0-.56,0-1.1-.06-1.6a6.67,6.67,0,0,0-.47-1.67H745a6.66,6.66,0,0,0-.41,1.46,9.44,9.44,0,0,0-.14,1.81v33.1a7.63,7.63,0,0,0,1.85,5.54,7,7,0,0,0,5.28,1.92,8.32,8.32,0,0,0,5.93-2.2,7.76,7.76,0,0,0,2.32-5.75V946.65a11.89,11.89,0,0,0-.09-1.65,4.82,4.82,0,0,0-.46-1.62H776a5.47,5.47,0,0,0-.4,1.42,9.47,9.47,0,0,0-.14,1.85v47a9.42,9.42,0,0,0,.54,3.25Z" transform="translate(-615.16 -82)"/><path class="cls-1" d="M784.35,943.38h15.71v6a18.84,18.84,0,0,1,5.05-4.79A20.71,20.71,0,0,1,815.73,942c5.72,0,10,1.77,13,5.21,1.91,2.25,2.88,5.54,2.88,9.87v36.63a9.27,9.27,0,0,0,.55,3.25H815.44a9.75,9.75,0,0,0,.41-1.47,10.21,10.21,0,0,0,.13-1.78V960.05c0-4.92-2.34-7.38-7-7.38a8.28,8.28,0,0,0-6.25,2.38,9.29,9.29,0,0,0-2.24,6.63v32a11.61,11.61,0,0,0,.08,1.58,6,6,0,0,0,.46,1.67H784.35a6.73,6.73,0,0,0,.41-1.5,10.24,10.24,0,0,0,.13-1.75v-47c0-.54,0-1.08-.07-1.58A6.27,6.27,0,0,0,784.35,943.38Z" transform="translate(-615.16 -82)"/><path class="cls-1" d="M863.41,950a6.68,6.68,0,0,0-4,1.33,8.09,8.09,0,0,0-2.71,3.73c-1.25,3.48-1.86,8.31-1.86,14.59a74.2,74.2,0,0,0,.44,8.55,24.65,24.65,0,0,0,1.42,6,8,8,0,0,0,2.6,3.26,6.38,6.38,0,0,0,3.86,1.33,7,7,0,0,0,3.88-1.26,7.75,7.75,0,0,0,2.77-3.37c1.37-3.21,2.08-8.3,2.08-15.2,0-6-.63-10.64-1.86-14s-3.42-5-6.61-5Zm8,41a21,21,0,0,1-4.43,4.34,16.49,16.49,0,0,1-9.32,2.55c-6.37,0-11.16-2.67-14.36-8s-4.86-12.13-4.86-20.42q0-12.82,5.73-20.62c3.36-4.63,8.18-6.92,14.48-6.92a26.44,26.44,0,0,1,3.74.29,14.84,14.84,0,0,1,3.21,1,15,15,0,0,1,5.51,4.09V928.67a7.34,7.34,0,0,0-.56-3.24h16.7a11.82,11.82,0,0,0-.42,1.54,10.7,10.7,0,0,0-.11,1.7v65a9.51,9.51,0,0,0,.53,3.25H871.43Z" transform="translate(-615.16 -82)"/><path class="cls-1" d="M895.19,943.38h16.69a9.11,9.11,0,0,0-.41,1.54,9.83,9.83,0,0,0-.13,1.71v47a9.27,9.27,0,0,0,.54,3.25H895.19a9.4,9.4,0,0,0,.55-3.25v-47a8,8,0,0,0-.55-3.25Zm8.41-14.63c5.51,0,8.28,1.79,8.28,5.42q0,5.69-8.21,5.68-8.49,0-8.48-5.54a4.63,4.63,0,0,1,2.26-4.06A11,11,0,0,1,903.6,928.75Z" transform="translate(-615.16 -82)"/><path class="cls-1" d="M921.05,943.38h15.7v6a19.27,19.27,0,0,1,5-4.79A20.86,20.86,0,0,1,952.41,942c5.73,0,10,1.77,13,5.21q2.91,3.38,2.9,9.87v36.63a9.27,9.27,0,0,0,.54,3.25H952.13a11.09,11.09,0,0,0,.41-1.47,10.12,10.12,0,0,0,.14-1.78V960.05q0-7.38-7-7.38a8.3,8.3,0,0,0-6.23,2.38,9.33,9.33,0,0,0-2.25,6.63v32a11.58,11.58,0,0,0,.09,1.58,4.85,4.85,0,0,0,.46,1.67H921.05a8,8,0,0,0,.41-1.5,10.31,10.31,0,0,0,.12-1.75v-47c0-.54,0-1.08-.08-1.58A5.81,5.81,0,0,0,921.05,943.38Z" transform="translate(-615.16 -82)"/><path class="cls-1" d="M1002.12,967.14,995,970.58a10.64,10.64,0,0,0-4.76,4.14,11.1,11.1,0,0,0-1.82,6.11,8,8,0,0,0,1.69,5.33,5.75,5.75,0,0,0,4.54,2,7.14,7.14,0,0,0,5.33-2.22,7.63,7.63,0,0,0,2.13-5.58V967.14Zm.68,24.48a18.17,18.17,0,0,1-5,4.13,20.17,20.17,0,0,1-9.54,2.13c-4.21,0-7.54-1.21-10-3.67-3-3-4.5-7.08-4.5-12,0-5.46,1.89-9.67,5.67-12.67a23.23,23.23,0,0,1,5.32-3.13c1.7-.69,5.19-1.82,10.5-3.4a11.88,11.88,0,0,0,5.25-2.67,6.11,6.11,0,0,0-.75-9,9.72,9.72,0,0,0-6.16-1.86,17.55,17.55,0,0,0-6.31,1,32.27,32.27,0,0,0-6.82,4l-1.9-8.71a57.27,57.27,0,0,1,20-3.82q9.41,0,14.3,3.4a11.44,11.44,0,0,1,4.88,10v29.29c0,2.45.9,3.7,2.69,3.7a5.75,5.75,0,0,0,3.17-1.55v7.8a23.55,23.55,0,0,1-5.19,2.67,17.58,17.58,0,0,1-5,.63,12.38,12.38,0,0,1-6.37-1.34A12.68,12.68,0,0,1,1002.8,991.62Z" transform="translate(-615.16 -82)"/><path class="cls-1" d="M1042.69,948.84a18.3,18.3,0,0,1,14.72-6.88q9.25,0,13.88,6.88a25.56,25.56,0,0,1,7.53-5.25,20.8,20.8,0,0,1,8.55-1.63c4.77,0,8.44,1.29,11.05,3.84s3.92,6.12,3.92,10.75v37.12a9.46,9.46,0,0,0,.54,3.25H1086.2a12.62,12.62,0,0,0,.4-1.54,9,9,0,0,0,.11-1.71v-34c0-2.44-.47-4.23-1.49-5.36s-2.61-1.67-4.83-1.67a8,8,0,0,0-5.75,1.92,7.13,7.13,0,0,0-2,5.44v33.64a11.64,11.64,0,0,0,.1,1.62,4.65,4.65,0,0,0,.46,1.63h-16.7a15.32,15.32,0,0,0,.42-1.54,8.89,8.89,0,0,0,.14-1.71v-34c0-2.41-.51-4.16-1.5-5.29s-2.61-1.67-4.81-1.67a7.72,7.72,0,0,0-5.5,1.92,7,7,0,0,0-2.07,5.32v33.76a11.64,11.64,0,0,0,.1,1.62,5.16,5.16,0,0,0,.47,1.63H1027a9.11,9.11,0,0,0,.53-3.25v-47a7.83,7.83,0,0,0-.53-3.24h15.66Z" transform="translate(-615.16 -82)"/><path class="cls-1" d="M1136.12,967.14l-7.11,3.44a10.7,10.7,0,0,0-4.76,4.14,11.09,11.09,0,0,0-1.81,6.11,8,8,0,0,0,1.68,5.33,5.78,5.78,0,0,0,4.54,2,7.14,7.14,0,0,0,5.34-2.22,7.63,7.63,0,0,0,2.12-5.58V967.14Zm.7,24.48a18.7,18.7,0,0,1-5,4.13,20,20,0,0,1-9.51,2.13c-4.23,0-7.56-1.21-10-3.67-3-3-4.51-7.08-4.51-12,0-5.46,1.9-9.67,5.68-12.67a23.45,23.45,0,0,1,5.32-3.13c1.69-.69,5.18-1.82,10.5-3.4a12,12,0,0,0,5.26-2.67,6.11,6.11,0,0,0-.77-9,9.66,9.66,0,0,0-6.16-1.86,17.29,17.29,0,0,0-6.29,1,32.55,32.55,0,0,0-6.83,4l-1.91-8.71a57.38,57.38,0,0,1,20-3.82c6.31,0,11.06,1.14,14.31,3.4s4.89,5.63,4.89,10v29.29c0,2.45.92,3.7,2.71,3.7a5.74,5.74,0,0,0,3.15-1.55v7.8a23.2,23.2,0,0,1-5.21,2.67,17.32,17.32,0,0,1-5,.63,12.3,12.3,0,0,1-6.35-1.34A12.43,12.43,0,0,1,1136.82,991.62Z" transform="translate(-615.16 -82)"/><path class="cls-1" d="M1161,943.38h15.74V949a9.12,9.12,0,0,1,4.37-5.21,17.75,17.75,0,0,1,8.65-1.84v11.38l-2.59-.21c-6.66,0-10,3.5-10,10.49v30a13.48,13.48,0,0,0,.08,1.58,5.13,5.13,0,0,0,.47,1.67H1161a9,9,0,0,0,.53-3.25v-47c0-.6,0-1.13-.07-1.63A4.82,4.82,0,0,0,1161,943.38Z" transform="translate(-615.16 -82)"/><path class="cls-1" d="M1232.59,994.79c-2,.67-3.75,1.21-5.13,1.61s-2.64.71-3.64.93a32.91,32.91,0,0,1-6.48.55q-12,0-18.86-6.88c-5.07-5.09-7.62-12-7.62-20.67q0-14,8.89-21.82c4.94-4.38,11.3-6.53,19.09-6.53a44.13,44.13,0,0,1,6.51.52,62.63,62.63,0,0,1,7.24,1.75v9.92a31.75,31.75,0,0,0-6.16-4,14.29,14.29,0,0,0-5.53-1,11.11,11.11,0,0,0-9.92,5.3c-2.41,3.7-3.62,8.79-3.62,15.15q0,8.88,3,14.51a10.75,10.75,0,0,0,10.17,6.12,14.65,14.65,0,0,0,5.78-1.08,30.36,30.36,0,0,0,6.28-3.79Z" transform="translate(-615.16 -82)"/><path class="cls-1" d="M1263.05,967.14l-7.11,3.44a10.75,10.75,0,0,0-4.76,4.14,11.1,11.1,0,0,0-1.82,6.11,8,8,0,0,0,1.69,5.33,5.76,5.76,0,0,0,4.56,2,7.15,7.15,0,0,0,5.32-2.22,7.63,7.63,0,0,0,2.12-5.58V967.14Zm.7,24.48a18.7,18.7,0,0,1-5,4.13,20,20,0,0,1-9.52,2.13c-4.22,0-7.55-1.21-10-3.67-3-3-4.5-7.08-4.5-12,0-5.46,1.89-9.67,5.68-12.67a23,23,0,0,1,5.31-3.13c1.71-.69,5.19-1.82,10.5-3.4a11.92,11.92,0,0,0,5.26-2.67,6.11,6.11,0,0,0-.77-9,9.64,9.64,0,0,0-6.16-1.86,17.46,17.46,0,0,0-6.3,1,32.25,32.25,0,0,0-6.81,4l-1.9-8.71a57.24,57.24,0,0,1,20-3.82q9.42,0,14.3,3.4c3.28,2.28,4.89,5.63,4.89,10v29.29c0,2.45.9,3.7,2.69,3.7a5.72,5.72,0,0,0,3.17-1.55v7.8a23.2,23.2,0,0,1-5.21,2.67,17.41,17.41,0,0,1-5,.63,12.35,12.35,0,0,1-6.37-1.34A12.51,12.51,0,0,1,1263.75,991.62Z" transform="translate(-615.16 -82)"/><path class="cls-1" d="M1154.09,879.38a4.51,4.51,0,0,0-2.71.89,5.37,5.37,0,0,0-1.85,2.53,30,30,0,0,0-1.26,9.86,47.72,47.72,0,0,0,.3,5.77,16.45,16.45,0,0,0,1,4.08,5.28,5.28,0,0,0,1.76,2.21,4.26,4.26,0,0,0,2.62.89,4.57,4.57,0,0,0,2.59-.85,5.17,5.17,0,0,0,1.89-2.28c.92-2.17,1.41-5.6,1.41-10.26a28.24,28.24,0,0,0-1.26-9.46c-.83-2.27-2.32-3.38-4.45-3.38Zm5.4,27.69a14.8,14.8,0,0,1-3,2.93,11.21,11.21,0,0,1-6.3,1.72,10.67,10.67,0,0,1-9.72-5.38c-2.16-3.59-3.26-8.19-3.26-13.79q0-8.67,3.86-13.94c2.27-3.12,5.53-4.66,9.78-4.66a16.23,16.23,0,0,1,2.53.2,7.92,7.92,0,0,1,2.18.68,10,10,0,0,1,3.71,2.75V865a5.08,5.08,0,0,0-.37-2.19h11.29a5.52,5.52,0,0,0-.29,1.05,6.44,6.44,0,0,0-.07,1.14v43.91a6,6,0,0,0,.36,2.2h-10.71Z" transform="translate(-615.16 -82)"/><path class="cls-1" d="M1185.54,888.16h11.87a16.92,16.92,0,0,0-.15-2.46c-.12-.75-.26-1.51-.43-2.32a6.76,6.76,0,0,0-2-3.55,4.71,4.71,0,0,0-3.24-1.32,4.92,4.92,0,0,0-4.25,2.51,10.57,10.57,0,0,0-1.32,3.08,15.5,15.5,0,0,0-.51,4.06Zm21.35,20.46a36.49,36.49,0,0,1-6.66,2.45,17.56,17.56,0,0,1-3,.48c-1.06.1-2.28.17-3.62.17-6.38,0-11.24-1.75-14.63-5.24-3.1-3.21-4.64-7.57-4.64-13.14,0-6.19,1.69-11.07,5.09-14.58q4.69-4.86,12.72-4.85c7,0,11.89,2.82,14.5,8.44a19.9,19.9,0,0,1,1.4,4.66,30.33,30.33,0,0,1,.53,5.82h-23.27a33.89,33.89,0,0,0,.29,4.68,19.13,19.13,0,0,0,.91,3.62c1.47,3.94,4.44,5.94,8.91,5.94,3.53,0,7-1.49,10.27-4.43Z" transform="translate(-615.16 -82)"/><path class="cls-1" d="M784.05,868.73v7.43a19.3,19.3,0,0,0-12-4.5,11.93,11.93,0,0,0-9.53,4.1,16.12,16.12,0,0,0-3.12,5.93,22.75,22.75,0,0,0-.71,3.81,36.68,36.68,0,0,0-.24,4.62c0,5.9,1.1,10.41,3.33,13.49a10.4,10.4,0,0,0,8.27,4.1,8.81,8.81,0,0,0,4.57-1.31V889.56a5.58,5.58,0,0,0-.37-2.21h11.58a6.68,6.68,0,0,0-.28,1.06,9.33,9.33,0,0,0-.07,1.15v17.05a7.76,7.76,0,0,0,.46,3,81.7,81.7,0,0,1-9.33,2.47,41.4,41.4,0,0,1-7.37.57,26,26,0,0,1-11.58-2.25A18.33,18.33,0,0,1,749.1,902a26.45,26.45,0,0,1-2.55-12c0-7.91,2.54-14,7.59-18.31q6.24-5.25,16.62-5.25A41,41,0,0,1,784.05,868.73Z" transform="translate(-615.16 -82)"/><path class="cls-1" d="M806.84,879.27a4.36,4.36,0,0,0-2.68.89,5.83,5.83,0,0,0-1.94,2.38q-1.72,4.08-1.72,11c0,4.8.6,8.57,1.76,11.28a5.31,5.31,0,0,0,1.9,2.37,4.68,4.68,0,0,0,2.69.91,4.43,4.43,0,0,0,2.65-.91,5.81,5.81,0,0,0,1.93-2.37c1.18-2.71,1.77-6.45,1.77-11.17s-.59-8.57-1.77-11.18a5,5,0,0,0-1.86-2.32,4.72,4.72,0,0,0-2.73-.92Zm0-4.44c5.44,0,9.69,1.65,12.72,5s4.65,8,4.65,13.91c0,6.16-1.76,11-5.29,14.45-2.93,2.94-6.94,4.36-12.07,4.36s-9.18-1.5-12.14-4.47q-5.24-5.36-5.24-14.76,0-8.43,4.78-13.63a14.35,14.35,0,0,1,5.36-3.68A20.1,20.1,0,0,1,806.84,874.83Z" transform="translate(-615.16 -82)"/><path class="cls-1" d="M845.05,880.7c-2,0-3.63,1.27-4.86,3.8-.76,1.55-1.14,4.49-1.14,8.86,0,2.22,0,4,.1,5.54a24.44,24.44,0,0,0,.34,3.47,6.07,6.07,0,0,0,1.85,3.43,4.83,4.83,0,0,0,3.35,1.35c2,0,3.46-1.1,4.4-3.28s1.46-5.62,1.46-10.32c0-8.57-1.82-12.85-5.5-12.85Zm-5.76-1.82a18.13,18.13,0,0,1,4.41-3.18,10.66,10.66,0,0,1,4.52-.87,11.19,11.19,0,0,1,9.18,4.31c2.64,3.33,4,8,4,14,0,5.71-1.21,10.29-3.58,13.78a12.39,12.39,0,0,1-4.77,4.29,14.47,14.47,0,0,1-6.6,1.36,10.75,10.75,0,0,1-10-5.12l-2.59,4.47h-5.46a3.42,3.42,0,0,0,.27-1,7.91,7.91,0,0,0,.08-1.24V865.86c0-.37,0-.73,0-1.07a4.13,4.13,0,0,0-.31-1.12h11.24a4.63,4.63,0,0,0-.26,1,7,7,0,0,0-.08,1.22Z" transform="translate(-615.16 -82)"/><path class="cls-1" d="M875.43,888h11.85a16.51,16.51,0,0,0-.15-2.45c-.12-.75-.27-1.53-.43-2.33a6.91,6.91,0,0,0-2-3.55,4.76,4.76,0,0,0-3.24-1.31,4.92,4.92,0,0,0-4.24,2.49,11.54,11.54,0,0,0-1.32,3.1,15.38,15.38,0,0,0-.5,4.05Zm21.31,20.43a37.12,37.12,0,0,1-6.64,2.45,19.86,19.86,0,0,1-3,.47,35.78,35.78,0,0,1-3.63.16q-9.54,0-14.6-5.22c-3.09-3.21-4.64-7.56-4.64-13.12q0-9.28,5.1-14.56c3.12-3.24,7.34-4.84,12.69-4.84q10.56,0,14.48,8.43a21.21,21.21,0,0,1,1.42,4.64,32.31,32.31,0,0,1,.5,5.83H875.24a33.69,33.69,0,0,0,.29,4.66,18.19,18.19,0,0,0,.89,3.63c1.47,3.93,4.45,5.91,8.91,5.91,3.52,0,6.92-1.47,10.25-4.43Z" transform="translate(-615.16 -82)"/><path class="cls-1" d="M902.33,875.78H913v3.8a6.1,6.1,0,0,1,2.94-3.52,11.84,11.84,0,0,1,5.82-1.23v7.68l-1.74-.16c-4.5,0-6.77,2.38-6.77,7.09V909.7a9.25,9.25,0,0,0,.06,1.08,3.37,3.37,0,0,0,.32,1.12H902.33a6.28,6.28,0,0,0,.34-2.2V878a9.36,9.36,0,0,0,0-1.1A3.6,3.6,0,0,0,902.33,875.78Z" transform="translate(-615.16 -82)"/><path class="cls-1" d="M924.47,875.78h10.59v4.05a12.92,12.92,0,0,1,3.4-3.23,14.07,14.07,0,0,1,7.17-1.77c3.86,0,6.78,1.18,8.75,3.51,1.3,1.51,1.94,3.73,1.94,6.67V909.7a6,6,0,0,0,.38,2.2H945.43a3.85,3.85,0,0,0,.28-1,6,6,0,0,0,.1-1.21V887c0-3.31-1.58-5-4.72-5a5.61,5.61,0,0,0-4.21,1.6,6.33,6.33,0,0,0-1.52,4.47V909.7c0,.38,0,.74,0,1.08a3.18,3.18,0,0,0,.33,1.12H924.47a7.21,7.21,0,0,0,.28-1,8.19,8.19,0,0,0,.07-1.19V878c0-.37,0-.74,0-1.07A4.11,4.11,0,0,0,924.47,875.78Z" transform="translate(-615.16 -82)"/><path class="cls-1" d="M979.17,891.8l-4.78,2.34a7.16,7.16,0,0,0-3.21,2.79,7.5,7.5,0,0,0-1.23,4.12,5.36,5.36,0,0,0,1.14,3.6,3.9,3.9,0,0,0,3,1.33,4.89,4.89,0,0,0,3.61-1.49,5.17,5.17,0,0,0,1.42-3.78V891.8Zm.48,16.53a12.59,12.59,0,0,1-3.38,2.78,13.52,13.52,0,0,1-6.42,1.44,9.17,9.17,0,0,1-6.76-2.47,11.1,11.1,0,0,1-3-8.12,10.24,10.24,0,0,1,3.83-8.55,15.7,15.7,0,0,1,3.59-2.12c1.15-.46,3.49-1.23,7.08-2.3a7.88,7.88,0,0,0,3.55-1.79,3.89,3.89,0,0,0,1.07-2.88,3.84,3.84,0,0,0-1.59-3.16,6.45,6.45,0,0,0-4.14-1.27,11.49,11.49,0,0,0-4.25.7,22.16,22.16,0,0,0-4.62,2.69l-1.28-5.87a38.92,38.92,0,0,1,13.48-2.57c4.25,0,7.46.76,9.66,2.29a7.67,7.67,0,0,1,3.29,6.72v19.76c0,1.66.61,2.5,1.82,2.5a3.93,3.93,0,0,0,2.14-1v5.26a16.84,16.84,0,0,1-3.51,1.81,12.38,12.38,0,0,1-3.41.41,6.76,6.76,0,0,1-7.11-4.22Z" transform="translate(-615.16 -82)"/><path class="cls-1" d="M1022.77,910.47c-1.36.44-2.53.82-3.48,1.08s-1.76.49-2.46.64a22.7,22.7,0,0,1-4.37.36q-8,0-12.71-4.65-5.13-5.11-5.14-13.93,0-9.44,6-14.73c3.34-3,7.61-4.4,12.88-4.4a30.13,30.13,0,0,1,4.39.34,38.42,38.42,0,0,1,4.89,1.2v6.68a21,21,0,0,0-4.16-2.69,9.58,9.58,0,0,0-3.73-.68,7.49,7.49,0,0,0-6.69,3.57c-1.63,2.51-2.44,5.93-2.44,10.23a20.32,20.32,0,0,0,2,9.78,7.23,7.23,0,0,0,6.84,4.13,10,10,0,0,0,3.91-.72,19.71,19.71,0,0,0,4.24-2.56Z" transform="translate(-615.16 -82)"/><path class="cls-1" d="M1026.32,875.78h11.25a8.57,8.57,0,0,0-.27,1.05,6.62,6.62,0,0,0-.08,1.15V909.7a6.47,6.47,0,0,0,.35,2.2h-11.25a6.24,6.24,0,0,0,.37-2.2V878a5.43,5.43,0,0,0-.37-2.2Zm5.66-9.86c3.72,0,5.59,1.21,5.59,3.65s-1.84,3.83-5.52,3.83c-3.84,0-5.73-1.24-5.73-3.74a3.07,3.07,0,0,1,1.52-2.72A7.35,7.35,0,0,1,1032,865.92Z" transform="translate(-615.16 -82)"/><path class="cls-1" d="M1055.46,871.94l2.26-4.62h7.82l-5.3,4.62Zm4.3,7.33a4.5,4.5,0,0,0-2.7.89,5.93,5.93,0,0,0-1.91,2.38q-1.71,4.08-1.71,11c0,4.8.59,8.57,1.75,11.26a5.39,5.39,0,0,0,1.87,2.39,4.77,4.77,0,0,0,2.73.91,4.47,4.47,0,0,0,2.65-.91,5.72,5.72,0,0,0,1.92-2.39c1.18-2.69,1.77-6.43,1.77-11.15s-.59-8.57-1.77-11.18a5.09,5.09,0,0,0-1.86-2.32,4.82,4.82,0,0,0-2.74-.92Zm0-4.44c5.44,0,9.7,1.65,12.73,5s4.66,8,4.66,13.91c0,6.16-1.76,11-5.31,14.45-2.93,2.94-6.95,4.36-12,4.36s-9.2-1.5-12.15-4.48q-5.23-5.34-5.24-14.75,0-8.43,4.77-13.63a14.47,14.47,0,0,1,5.37-3.68A20.12,20.12,0,0,1,1059.76,874.83Z" transform="translate(-615.16 -82)"/><path class="cls-1" d="M1081.45,875.78h10.6v4.05a12.63,12.63,0,0,1,3.4-3.23,14.07,14.07,0,0,1,7.17-1.77c3.84,0,6.77,1.18,8.73,3.51q2,2.26,2,6.67V909.7a6.22,6.22,0,0,0,.37,2.2h-11.27a3.87,3.87,0,0,0,.29-1,8.14,8.14,0,0,0,.08-1.21V887c0-3.31-1.58-5-4.72-5a5.59,5.59,0,0,0-4.2,1.6,6.33,6.33,0,0,0-1.52,4.47V909.7a9.32,9.32,0,0,0,.05,1.08,3.92,3.92,0,0,0,.32,1.12h-11.26a5.2,5.2,0,0,0,.27-1,5.94,5.94,0,0,0,.09-1.19V878a9.08,9.08,0,0,0-.06-1.07A3.74,3.74,0,0,0,1081.45,875.78Z" transform="translate(-615.16 -82)"/><path class="cls-1" d="M682,377.07l-6.42-1.43,3.62-16.21,15.2,3.29a23.77,23.77,0,0,1,2.51,7.78,21.3,21.3,0,0,1-.28,9.45,20.09,20.09,0,0,1-4.78,9.6,17.26,17.26,0,0,1-8.65,5,25.33,25.33,0,0,1-10.72,0,23.19,23.19,0,0,1-10-4.81A16.36,16.36,0,0,1,657.1,381a20.08,20.08,0,0,1,.12-9.3c1.06-4.55,2.9-7.94,5.45-10.17a13.93,13.93,0,0,1,9.36-3.16l-.25,7.72a9.15,9.15,0,0,0-5.17,2,8.33,8.33,0,0,0-2.76,5.11,10.07,10.07,0,0,0,1.35,8.41c1.65,2.44,4.58,4.17,8.76,5,4.46,1.06,8.11.81,10.82-.7a9.74,9.74,0,0,0,5.09-6.93,12.49,12.49,0,0,0,.29-4.9,25.84,25.84,0,0,0-1.31-4.67l-4.9-1.11Z" transform="translate(-615.16 -82)"/><polygon class="cls-1" points="127.28 188.05 97.12 164.42 102.07 158.39 126.93 177.95 139.27 163.09 144.43 167.06 127.28 188.05"/><polygon class="cls-1" points="301.8 76.75 292.05 39.97 299.75 37.95 309.44 74.89 301.8 76.75"/><path class="cls-1" d="M1126.86,154.42l-13.6,21.4,4.93,3a23.93,23.93,0,0,0,4.23,2.22,8.07,8.07,0,0,0,3.65.17,7.55,7.55,0,0,0,3.64-2,20.69,20.69,0,0,0,4.48-5.53,15.38,15.38,0,0,0,3-6.15,7.51,7.51,0,0,0,.16-4.35,7.84,7.84,0,0,0-2-3.38c-1-.72-2.65-1.88-5.34-3.61l-3.07-1.8Zm-3-9.59,12.13,7.5a25,25,0,0,1,5.81,4.37,13.12,13.12,0,0,1,3.14,6,15.09,15.09,0,0,1-.3,7.25,27.22,27.22,0,0,1-3.62,8.27,25.34,25.34,0,0,1-5.49,6.26,16.16,16.16,0,0,1-7.13,3.58,14,14,0,0,1-6.36-.28,24.69,24.69,0,0,1-6.37-2.91l-12.6-7.71Z" transform="translate(-615.16 -82)"/><path class="cls-1" d="M1199,231.4l3,7.17c-4,1.83-7.68,2.39-11,1.67a16.31,16.31,0,0,1-9-5.75c-3.34-3.94-4.81-8.07-4.18-12.93.46-4.67,3.06-8.92,7.73-12.88,5-4,9.9-6,14.82-5.76s9,2.37,12.7,6.46a16.49,16.49,0,0,1,4.37,11.3,15.78,15.78,0,0,1-3.07,7.44l-6.49-4.59a7.08,7.08,0,0,0,1.81-5.16,7.66,7.66,0,0,0-2.08-5,8.69,8.69,0,0,0-7-3.32c-2.74,0-5.81,1.4-9.37,4.38-3.71,3.21-5.82,6.07-6.22,8.69a8,8,0,0,0,2.07,7.13,7.19,7.19,0,0,0,4.89,2.71A12.22,12.22,0,0,0,1199,231.4Z" transform="translate(-615.16 -82)"/><path class="cls-1" d="M1048.62,126l-2.71,10.4,4.24,1.11a21.07,21.07,0,0,0,6.16.89,5.68,5.68,0,0,0,2.83-1.18,5.3,5.3,0,0,0,1.57-2.71,4.1,4.1,0,0,0-.32-3.57,4.87,4.87,0,0,0-2.66-2.39,36,36,0,0,0-5.38-1.62l-3.73-.93ZM1033,154.75l9.63-36.87,12.27,3a45.66,45.66,0,0,1,8.83,2.9,10,10,0,0,1,4.52,4.87,11.09,11.09,0,0,1,.28,7.8,11.83,11.83,0,0,1-2.67,5.45,10.87,10.87,0,0,1-4.24,2.74,12,12,0,0,1-4.26.84,50.33,50.33,0,0,1-8.16-1.49l-4.86-1.25-3.7,14Z" transform="translate(-615.16 -82)"/><polygon class="cls-1" points="385.88 67.62 391.43 29.98 420.07 33.94 419.07 40.3 398.26 37.41 397.04 45.87 416.5 48.57 415.49 54.79 396.07 52.23 394.57 62.45 416.22 65.39 415.21 71.74 385.88 67.62"/><polygon class="cls-1" points="315.48 73.12 310.72 35.37 318.37 34.38 337.42 57.8 334.19 32.51 341.53 31.66 346.17 69.51 338.33 70.47 319.7 47.55 322.85 72.35 315.48 73.12"/><polygon class="cls-1" points="252.62 91.05 240.48 54.69 267.93 45.98 269.97 52.13 249.95 58.48 252.66 66.55 271.24 60.58 273.33 66.71 254.69 72.57 258.07 82.46 278.74 75.93 280.75 81.96 252.62 91.05"/><polygon class="cls-1" points="211.07 110.95 191.33 78.22 216.28 63.85 219.66 69.41 201.53 79.83 205.82 87 222.66 77.32 226.03 82.89 209.19 92.59 214.6 101.52 233.31 90.7 236.63 96.19 211.07 110.95"/><path class="cls-1" d="M789.66,191l4.77-3.27c3.15-2.14,5-3.61,5.46-4.36a5.3,5.3,0,0,0,1-2.6,4.72,4.72,0,0,0-1.18-2.78,4.35,4.35,0,0,0-2.61-1.94,4.5,4.5,0,0,0-3.33.54c-.52.24-2.18,1.32-4.8,3.1L784,183.23l5.64,7.78Zm6.71,22.48-22.54-31,13.4-9.45c3.37-2.41,6-3.84,8-4.36a9.46,9.46,0,0,1,5.89.34,11.37,11.37,0,0,1,4.92,4,10.38,10.38,0,0,1,2.12,7.13c-.33,2.53-1.7,4.92-4.15,7.28a17.91,17.91,0,0,1,5.4.29,41.36,41.36,0,0,1,7.3,2.4l8.2,3.36-7.68,5.26-9.54-3.41c-3.45-1.23-5.64-2-6.66-2.25a6.79,6.79,0,0,0-2.9.09,25.8,25.8,0,0,0-3.54,1.87l-1.17.89,9.39,12.89-6.42,4.57Z" transform="translate(-615.16 -82)"/><path class="cls-1" d="M765.69,219l7.29,7.36,5.17-5.07a41.09,41.09,0,0,0,3.82-3.68,6.45,6.45,0,0,0,.95-3.1,4.81,4.81,0,0,0-1.49-3.12,6.39,6.39,0,0,0-2.72-1.53,5.69,5.69,0,0,0-3,.45,24.79,24.79,0,0,0-5.51,4.42l-4.5,4.27Zm-10.78-10.92,3.43-3.11c2.51-2.45,4.22-4,4.79-4.45a5.31,5.31,0,0,1,3.11-1.08,4.83,4.83,0,0,1,2.74,1.4,4.41,4.41,0,0,1,1.21,3,4.81,4.81,0,0,1-1.21,3.1,49.41,49.41,0,0,1-4,4l-3.73,3.49-6.32-6.31Zm-10.13.76L756,198.29a52.63,52.63,0,0,1,5.27-4.42,12.84,12.84,0,0,1,4-1.68,10.48,10.48,0,0,1,4.4.34,8.42,8.42,0,0,1,4.07,2.35,9,9,0,0,1,2.36,4.53,8.6,8.6,0,0,1-.41,5.17,9.25,9.25,0,0,1,6.34-1.25,9,9,0,0,1,5.46,2.86,10.67,10.67,0,0,1,2.76,4.42,10.34,10.34,0,0,1,.41,5.14,9.91,9.91,0,0,1-2.6,4.83c-.77,1-3,3.23-6.57,6.69l-9.61,9Z" transform="translate(-615.16 -82)"/><polygon class="cls-1" points="146.76 163.88 116.07 140.31 120.96 134.36 151.72 157.85 146.76 163.88"/><path class="cls-1" d="M698.84,312.14l9.84,3.7,2.49-6.63a31.17,31.17,0,0,0,1.8-5,4.74,4.74,0,0,0-.39-3.17,5.06,5.06,0,0,0-2.65-2.22,4.63,4.63,0,0,0-3.14-.22,5,5,0,0,0-2.58,1.57,27.31,27.31,0,0,0-3,6.08l-2.39,5.89Zm-14.45-5.61,8.47,3.18,1.87-4.69c1.25-2.81,1.82-4.52,2-5.15a5.14,5.14,0,0,0-.22-3.44,4.15,4.15,0,0,0-2.36-2.15,3.74,3.74,0,0,0-3.14,0,4.09,4.09,0,0,0-2.39,2.07c-.31.74-1.22,2.74-2.57,6l-1.7,4.17Zm-8.82,4.82,5.78-14.14a32.68,32.68,0,0,1,2.72-6.16,12.42,12.42,0,0,1,3.15-3.11,9,9,0,0,1,4.06-1.58,10.17,10.17,0,0,1,4.7.51,10.33,10.33,0,0,1,4.11,3.24,8.18,8.18,0,0,1,1.7,4.8,11.6,11.6,0,0,1,5.33-3.71,9.76,9.76,0,0,1,6.1.38,10.63,10.63,0,0,1,4.4,3,11.24,11.24,0,0,1,2.49,4.52,10.8,10.8,0,0,1-.24,5.48c-.36,1.17-1.41,4.12-3.19,8.73l-4.86,12Z" transform="translate(-615.16 -82)"/><path class="cls-1" d="M682.54,347.58c4.09,1.75,7.54,2.19,10.48,1.36a10,10,0,0,0,6.33-5.46,9.06,9.06,0,0,0,.12-8.29c-1.17-2.67-3.93-5-8-6.94-4.07-1.65-7.56-2.22-10.34-1.4a9.94,9.94,0,0,0-6.28,5.67,10.32,10.32,0,0,0-.22,8.28c1.22,2.68,3.82,4.89,7.86,6.78Zm-3,7.32a26.59,26.59,0,0,1-8.32-5.68,17.6,17.6,0,0,1-3.38-5.42,16.57,16.57,0,0,1-1.18-5.95,22.49,22.49,0,0,1,2.2-8.07c2.47-5,5.91-8.42,10.65-10s9.87-1.18,15.62,1.38,9.38,6.12,11.23,10.57,1.51,9.27-.68,14.39c-2.58,5.18-6.09,8.43-10.82,10.06-4.54,1.69-9.78,1.25-15.32-1.38Z" transform="translate(-615.16 -82)"/><polygon class="cls-1" points="521.06 113.63 544.95 83.52 567.8 100.8 563.82 105.99 547.1 93.36 541.9 100.02 557.39 111.73 553.25 116.76 537.79 105.05 531.3 113.23 548.53 126.29 544.56 131.33 521.06 113.63"/><path class="cls-1" d="M1268.19,293.4,1245.87,306l2.89,5a16.17,16.17,0,0,0,2.67,3.79,6.76,6.76,0,0,0,3,2,9.26,9.26,0,0,0,4.25-.08,29.83,29.83,0,0,0,6.65-2.79,31.07,31.07,0,0,0,5.63-4,10,10,0,0,0,2.11-3.66,6.32,6.32,0,0,0-.15-4,42.93,42.93,0,0,0-3-5.69l-1.78-3Zm1.88-9.86,7.32,12.29a28.55,28.55,0,0,1,2.83,6.69,12.65,12.65,0,0,1-.12,6.69,18.5,18.5,0,0,1-3.66,6.17,32.58,32.58,0,0,1-7.34,5.57,28.1,28.1,0,0,1-7.88,3,17.58,17.58,0,0,1-8.1-.17,16.19,16.19,0,0,1-5.47-3.23,24.81,24.81,0,0,1-4-5.49l-7.33-12.64Z" transform="translate(-615.16 -82)"/><polygon class="cls-1" points="602.32 190.9 634.78 172.37 639.02 177.84 626.1 201.98 647.84 189.46 651.91 194.79 619.42 213.5 615.1 207.62 627.64 184.09 606.38 196.32 602.32 190.9"/><path class="cls-1" d="M1225.81,222.78l4.86,6-16.31,12.91a62.06,62.06,0,0,0-5,4.21,6.14,6.14,0,0,0-1.42,4.23,7.61,7.61,0,0,0,2.2,4.8,7.13,7.13,0,0,0,4.22,3,5.13,5.13,0,0,0,3.92-.45,37.48,37.48,0,0,0,5.29-3.82l16.88-13.24,4.86,6-15.9,12.5a61.53,61.53,0,0,1-8.06,5.66,10.72,10.72,0,0,1-10.65-.38,19.09,19.09,0,0,1-5.66-5,20.72,20.72,0,0,1-4.28-7.16,12.4,12.4,0,0,1-.32-5.62,9.26,9.26,0,0,1,2-4.3,46,46,0,0,1,7.28-6.65Z" transform="translate(-615.16 -82)"/><polygon class="cls-1" points="640.5 265.15 677.29 252.51 679.96 259.58 660.58 282.58 685.21 274.21 687.57 280.97 650.83 293.64 648.23 286.32 666.98 263.58 643.06 271.73 640.5 265.15"/><polygon class="cls-1" points="637.16 251.2 673.68 237.82 676.37 244.98 639.91 258.4 637.16 251.2"/><path class="cls-1" d="M1295.11,385.78l-.52,4.65a9.67,9.67,0,0,1-6.24-2.36,8.86,8.86,0,0,1-3-5.48,9.82,9.82,0,0,1,1.7-8,12.3,12.3,0,0,1,8-4.44c3.85-.74,6.93-.37,9.37,1.2a10,10,0,0,1,4.75,7c.39,2.84.07,5.26-1.27,7.23a8.93,8.93,0,0,1-3.83,3.11l-1.93-4.28a4.69,4.69,0,0,0,2.47-2.23,4.9,4.9,0,0,0,.55-3.31,4.75,4.75,0,0,0-2.66-3.63c-1.42-.88-3.43-1-6.26-.45s-4.86,1.43-5.88,2.62a5.06,5.06,0,0,0-1.14,4.25,4.9,4.9,0,0,0,1.87,3A6.37,6.37,0,0,0,1295.11,385.78Z" transform="translate(-615.16 -82)"/><path class="cls-1" d="M1086.75,153.07l7.66-21.66,16.35,5.65-1.32,3.58-11.8-3.95-1.76,4.63,11,3.84-1.2,3.6L1094.56,145l-2.07,6,12.39,4.16-1.29,3.64-16.84-5.69Zm-13.82-4.78,4.45,1.62,6.28-18.12,6.61,2.36,1.3-3.67-17.51-6-1.28,3.64,6.48,2.26Z" transform="translate(-615.16 -82)"/><path class="cls-1" d="M707.49,269.55a8.92,8.92,0,0,0-6.24-.61,6.19,6.19,0,0,0-3.62,3.55,5.27,5.27,0,0,0,.24,4.9c.82,1.63,2.33,2.91,4.91,4a9.63,9.63,0,0,0,6.29.49,6.12,6.12,0,0,0,3.53-3.54,6.23,6.23,0,0,0-.12-5.08c-.83-1.53-2.47-2.73-5-3.69Zm1.66-4.56a15.18,15.18,0,0,1,5.15,3.14,12.92,12.92,0,0,1,2.21,3.09,8.59,8.59,0,0,1,.85,3.57,11.56,11.56,0,0,1-1,4.9A11.28,11.28,0,0,1,710.4,286c-2.82,1.17-5.94,1-9.47-.34s-5.85-3.31-7-6a9.79,9.79,0,0,1,0-8.65,10.27,10.27,0,0,1,5.95-6.34A12.27,12.27,0,0,1,709.15,265Z" transform="translate(-615.16 -82)"/><path class="cls-1" d="M856.86,229.46h0c4.21-3.68,10.18-4.18,13-1.26,3,3,2,8.36-2.08,12.05l-.11.15L820,282.07v.08c-4.42,3.71-10.23,4.25-13.21,1.31s-2-8.55,2.31-12.24h0l47.72-41.76Z" transform="translate(-615.16 -82)"/><path class="cls-1" d="M1107.14,229.46h0c-4.22-3.68-10-4.18-12.91-1.26s-2,8.36,2,12.05l.16.15,47.76,41.67v.08c4.35,3.71,10.17,4.25,13.25,1.31,2.89-3,2-8.55-2.32-12.24h-.12l-47.59-41.76Z" transform="translate(-615.16 -82)"/><path class="cls-1" d="M899.38,245.57l-7.44-13.39L874,241.71c-15,.6-17.39-13.19-11.67-20.88L880,211l-7-12.7-29.78,15.79c-6.14,23.87,5.56,41.32,27.48,46.28Z" transform="translate(-615.16 -82)"/><path class="cls-1" d="M1066.43,245.57l7.47-13.39,17.93,9.53c15.08.6,17.31-13.19,11.72-20.88L1085.78,211l7.07-12.7,29.81,15.79c6,23.87-5.55,41.32-27.59,46.28Z" transform="translate(-615.16 -82)"/><path class="cls-1" d="M815.45,312.14l-11.61-10.25,13.69-14.7c4.22-14-9-19.53-18.08-16l-14,14.32-11-9.7,22.95-24.34c25.08-.13,39.84,15,39.49,37Z" transform="translate(-615.16 -82)"/><path class="cls-1" d="M1144.79,312.14l11.71-10.25-13.75-14.7c-4.27-14,9-19.53,18.06-16l14,14.32,11-9.7-22.63-24.34c-25.38-.13-40.07,15-39.91,37Z" transform="translate(-615.16 -82)"/><path class="cls-1" d="M1016.61,229.37c-4.42-.52-9.5-1.48-15-2.12-5.49-.9-11.43-1.36-17.38-1.91-2.9-.06-5.94.27-8.85.23a69.91,69.91,0,0,0-8.53.32c-5.55.39-10.57,1.8-15,2.23-4.38.73-8,1.8-10.56,2.24s-4.06.71-4.06.71l-.05-.12,3.94-1.25c2.52-.71,6-1.95,10.42-2.84s10.29-2.37,15.89-2.45a89.25,89.25,0,0,1,17.31-1.9c6,.1,11.53,2.13,17.07,3a148,148,0,0,1,15.09,2.43c8.28,1.53,11.74,3,12.06,3.22l1.18.48s-4.67-.85-13.52-2.26Zm-72.21-6.52c-2.33.72-3.75,1.11-3.75,1.11s1.42-.31,3.8-.86,5.83-1.45,10-2c2-.39,4.25-.64,6.68-1,2.32-.53,4.9-.37,7.52-.61,5.22-.54,10.79-.24,16.4-.24a259.28,259.28,0,0,1,30.55,3.38c8.29,1.4,13.88,2.42,13.88,2.42s-1.35-.29-3.78-.93-6.81-2.56-11-3.25c-8.31-1.62-18.84-4.91-30.11-5.62a120.57,120.57,0,0,0-14.39,1c-2.58.31-5.77.94-8.18,1.44s-3.8.9-5.82,1.23c-4.22.68-9.49,3.38-11.84,3.92Zm86.7-6.34c-15.5-89.21-139.23-27.52-68.29-16.89a2.75,2.75,0,0,0-.47.42c.55-.38,2.18-1.23,4.43-2.35,1.51-.61,3.16-1.49,5-2.34a45.69,45.69,0,0,1,7.37-2.95c4.62-1,7.21,0,10.47-.49,3.25-.06,5.39,0,5.39,0l-32.76,8.2c-24.74,21.17-27.89,29-33.93,51.35,52.58,22.09,76.53,9.32,103.39,0Z" transform="translate(-615.16 -82)"/><path class="cls-1" d="M978,360a28,28,0,0,0,5.47,7.64l3.38,3.43c1.89-.75,5.39-2.1,6.93-3.46s3.79-6.67,5.14-10.33a36,36,0,0,1-7.6-1.23c-2.63-.64-4.35-3-5.4-5.22a15.32,15.32,0,0,1-1.66,4.06A14,14,0,0,1,978,360Z" transform="translate(-615.16 -82)"/><path class="cls-1" d="M949.53,358.3a63.36,63.36,0,0,1,4.79,5.27,17.3,17.3,0,0,0,6.39,5c1-.62,3.36-2.11,6-4.07a17.25,17.25,0,0,0,4.31-5.36,15.75,15.75,0,0,1-5.2-4.15c-.38-.56-.76-1.42-1.12-2.07-1.19.95-3.47,2.21-8.11,3.46C953.25,357.22,951,357.84,949.53,358.3Z" transform="translate(-615.16 -82)"/><path class="cls-1" d="M871.2,347.3a6,6,0,0,1-2.4-1c-5,1-31,5.92-39.79,5.92-1.6,0-2.93-.16-4.2-.19-.9.58-2.11,1.73-2.07,2.53,0,.45.91,1.09,2.24,1.66,6.34,2.59,20.6,1.71,20.6,1.71s8.46-.31,15.6-1.24a123.15,123.15,0,0,0,14.31-2.78l-.24-.22a2.74,2.74,0,0,1,.64-2.56c.68-.84,2.63-1.8,4.7-2.55C877.35,348.23,873.7,347.76,871.2,347.3Z" transform="translate(-615.16 -82)"/><path class="cls-1" d="M810.49,342.61c-2,.07-3.61.07-5.3.11a29.13,29.13,0,0,0,4.12,1.65c2.65.89,4.71,1.68,6.47,2.4,4.18,1.6,6.78,2.71,13.23,2.71,6.69,0,24.56-3.18,34.1-4.87h-.22a23.57,23.57,0,0,1-9.75-1.93c-1.06-.48-3.53-1.64-3.18-3.59a2.63,2.63,0,0,1,1.66-1.74,5.41,5.41,0,0,1-3.5-1.43l-14.22,3.17A151.91,151.91,0,0,1,810.49,342.61Z" transform="translate(-615.16 -82)"/><path class="cls-1" d="M1017.88,413.1c-7.2-1.59-12.92-6.05-16.36-9.15l0,.25a20,20,0,0,1,.13,7.31l29.82,21.81c4.9,2.58,6.41,2.65,6.41,2.65.73.08,10.3,1.85,13.18-7.39s-8.46-16.49-8.46-16.49l-6.1-2a31.2,31.2,0,0,1-13.81,3.56A22.1,22.1,0,0,1,1017.88,413.1Z" transform="translate(-615.16 -82)"/><path class="cls-1" d="M985.52,383.27c3.23,2.7,4.67,3.32,5.13,3.47.64-.53,3.33-3.15,4.51-8.78a25.32,25.32,0,0,0,.4-8.32c-2.69,2.36-8.47,4.1-8.47,4.1l-1,.38-4.53-4.56a32.14,32.14,0,0,1-6.16-8.67l-.1.07a71.27,71.27,0,0,1,1.57,7.89C976.88,369.16,979.88,378.56,985.52,383.27Z" transform="translate(-615.16 -82)"/><path class="cls-1" d="M1007.29,393.81a47.8,47.8,0,0,1-10.1-5.86c.87,3.18,2.13,7.54,3.09,11.22l0-.12c.1.2,8.11,9.09,18.17,11.43,7,1.53,13.93-1.32,17.56-3.12-2.91-1.17-7.21-2.93-9.33-4.81a31.38,31.38,0,0,1-5.65-7.59c-1.25.09-2.62.16-4.09.16A31.55,31.55,0,0,1,1007.29,393.81Z" transform="translate(-615.16 -82)"/><path class="cls-1" d="M815.82,397.06c1,.93,3.75,2.2,11,2.2,3.44,0,11.76-1.7,12.12-1.78,0,0,2.91-.88,7.37-2.13a50.12,50.12,0,0,0,7-2.21l2-.73,16.76-6a38.63,38.63,0,0,1-8.38-.68c-2.59-.74-4-1.3-4.39-2.58s.31-2.36,1.4-3.62c.63-.88,2.3-1.71,4.23-2.41a18.77,18.77,0,0,1-3.08.24,16.38,16.38,0,0,1-2.24-.19c-2.73,1.05-12.94,5.18-17.62,7-4.37,1.75-13.09,4.57-16.46,5.71C820.67,392.69,816.39,395.82,815.82,397.06Z" transform="translate(-615.16 -82)"/><path class="cls-1" d="M880.21,360.8a3.26,3.26,0,0,1-.42-1.11h-4.11c-1.48,0-1.92-.75-2-1.32a1.42,1.42,0,0,1,.3-1.25c-3.33.72-8.1,1.71-12.45,2.27-7.29.94-15.56,1.25-15.56,1.25s-1.25,0-2.59.13l.18.4c-2,.7-4,1.95-4.18,2.56,0,0,.69.91,5.12,1.67,11.44,2.07,17.55,1.06,22.94.18.94-.18,1.72-.35,2.6-.48,5.8-.8,14.4-2.17,15.18-2.3a6.64,6.64,0,0,0,.47-.84,12.91,12.91,0,0,1-3.14.16A3.24,3.24,0,0,1,880.21,360.8Z" transform="translate(-615.16 -82)"/><path class="cls-1" d="M969.18,482.83c-5.51-2.43-8.4-7.59-9.59-10.53a28.66,28.66,0,0,1-2.6,2.35c-.06.34-.9,6.22-2.4,15a32.42,32.42,0,0,1-1,3.81l.4,0s-.82,7.5,1.09,11.32a14.16,14.16,0,0,1,1.19,2.79s.75,0,1.39.05c1.57.1,5.1-3.94,7.54-7.81,0,0,.27-1.06.7-2.31v-1.17h.3c.61-2,1.25-4.28,1.57-5.74C968.23,488.12,968.91,484.15,969.18,482.83Z" transform="translate(-615.16 -82)"/><path class="cls-1" d="M796.08,378.68c4.59,0,15.63-3.46,15.74-3.55l.39,1.11-.29-1.11a106,106,0,0,0,13.47-4.5c3.7-1.59,9.13-3.74,12.42-5-.45-.49-1.16-1-1.2-1.62-.12-1.27.82-2.41,2-3.24-4.86-.1-10.89-.45-14.74-2a.37.37,0,0,0-.32-.19c-1.25.56-11.48,5.45-17.29,7.15s-15.33,4.6-16,4.79c-3.54,2.39-6.68,5.42-6.6,6.45C783.69,376.92,784.55,378.68,796.08,378.68Z" transform="translate(-615.16 -82)"/><path class="cls-1" d="M804.14,450.89l-.23-.21c1.41-1.33,7.66-6.37,14.88-12.18,7.45-5.91,15.91-12.67,18.4-15a97.18,97.18,0,0,1,9-7.35,22,22,0,0,1-6.34-.6,2.33,2.33,0,0,1-1.68-1.88c-.17-1.27.77-2.56,2.15-3.93a36.74,36.74,0,0,1-4.5.14,31.24,31.24,0,0,1-3.81.29c-1.63,1.42-37,32.7-41.4,35.14-3.77,2.16-13.57,11.66-14.83,12.91a11.51,11.51,0,0,0-1.81,3.65C771,469.3,790.56,460.05,804.14,450.89Z" transform="translate(-615.16 -82)"/><path class="cls-1" d="M930,391.49a30.21,30.21,0,0,0,10.43.22c5.56-1,13.38-6.21,15.42-7.59-.17-.33-.4-.4-.53-.74-2.76-5.17-2.07-15.52-2-16.91a12.2,12.2,0,0,1-1.22-1.25,34.75,34.75,0,0,0-4.62-5c0,.65,0,1.26-.12,2-2,4-6.58,13.5-11.75,20.89l1.22.55a21.81,21.81,0,0,1-4.38,5.48A29.29,29.29,0,0,1,930,391.49Z" transform="translate(-615.16 -82)"/><path class="cls-1" d="M805.67,388.67c.12,0,8.18,1.14,20.49-2.36l7-1.93c2.92-1,5.86-2.07,7.91-2.9,3.29-1.24,9.3-3.56,13.55-5.27-.33-.16-.57-.16-1-.32-2.11-.51-4.95-1.61-5-3.89a3.68,3.68,0,0,1,1.84-3c-2-.21-4.12-.46-6.46-.93a17.23,17.23,0,0,1-2.89-.8c-1.56.55-9.68,3.8-14.61,5.91a103.65,103.65,0,0,1-13.84,4.53c-4.77,1.64-11.67,5.06-12.2,7.45a1.48,1.48,0,0,0,.21,1.32C801.67,387.93,804.74,388.56,805.67,388.67Z" transform="translate(-615.16 -82)"/><path class="cls-1" d="M1030.05,435.65l-29.13-21.28c-.35,1.14-.64,2.38-1.08,3.46l12,29.05c1.11,3.12,5.23,6,6.72,6.9l-.27.49c9.33,3.46,21.32-4.39,19.77-15.59h-.23C1037,438.68,1035,438.15,1030.05,435.65Z" transform="translate(-615.16 -82)"/><path class="cls-1" d="M857,442.64c.24-.17.88-.65,1.22-.86l-.2-.29,29-23.66c-.28-.28-.59-.4-.78-.69-1.25-1.6-.82-3.82,0-5.63a8.23,8.23,0,0,1-3.81-.56,5.89,5.89,0,0,1-1.07-.86c-6.56,5.42-49.56,40.49-52.91,43.25-3,3.7-3,5-3,5C822.3,466.33,851,450.2,857,442.64Z" transform="translate(-615.16 -82)"/><path class="cls-1" d="M1009.26,447.84l-11-26.57a13.66,13.66,0,0,1-4.82,5l-.54.32-.54-.28a48.78,48.78,0,0,1-9.13-4.87l7.91,47c.47.81,5.49,9.48,15.28,8.1,10.12-1.29,12.12-10.89,12.23-11.26l.77.13a2.79,2.79,0,0,1-.32-.84,17.27,17.27,0,0,0-.63-5.66l-1.25-2.79,0,.09C1017,456,1011,452.52,1009.26,447.84Z" transform="translate(-615.16 -82)"/><path class="cls-1" d="M992.39,389.08l-1,.37-.32.08c-1.32,0-3.28-.75-7.35-4.15-.55-.44-.9-1.13-1.42-1.59a131.81,131.81,0,0,1-3,16.58c-.48,1.76-.87,3.21-1.26,4.54,1.26,3.63,4.08,11.35,5.55,13.3,1.5,1.77,6.63,4.21,9.17,5.34a12.9,12.9,0,0,0,4-5.09c2.1-4.37,2.92-9.85,2.1-13.65-.71-3.11-3.51-13.22-4.79-17.75a16.5,16.5,0,0,1-1.56,1.72Z" transform="translate(-615.16 -82)"/><path class="cls-1" d="M1020.66,500.82l-.75.61a73.28,73.28,0,0,1-5.62-7.13c-.72-1.05-1.75-2.86-2.75-4.69l.38,6.92c-.06,1.19-.54,5.12-2.35,7.57.27,1.65.94,6,1.39,10.75,0,0,3.57,8.53,8.78,13,4,3.56,5.81,3.35,6.35,3.3a1.39,1.39,0,0,0,.91-.92c.52-1.4.28-9-.08-14.25-.75-1.52-1.37-2.79-2.23-4.34C1023.67,508.72,1022.25,504.9,1020.66,500.82Z" transform="translate(-615.16 -82)"/><path class="cls-1" d="M965.87,389.42c1.48-1.33,5.12-4.7,6.4-9.11.42-1.1.72-2.1,1-2.86,1.08-3.3,1.33-4.18.91-8a62.05,62.05,0,0,0-1.45-7.56,20.51,20.51,0,0,1-4.31,4.86,71.49,71.49,0,0,1-6.82,4.56l-.55.33-.52-.11a19.43,19.43,0,0,1-4.5-2.57c-.07,3.57,0,9.92,1.81,13.26C959.76,385.84,964.06,388.45,965.87,389.42Z" transform="translate(-615.16 -82)"/><path class="cls-1" d="M1020.53,468.19a17.58,17.58,0,0,1-9.77,9.61l.35,5.35c.61,1.18,3.86,7.32,5.52,9.75,1.76,2.58,5.32,6.76,5.32,6.76l-.28.31a36.66,36.66,0,0,0,4.83,2.88c4.89-2.19,2.34-11.8,2.34-11.8S1025.92,481.66,1020.53,468.19Z" transform="translate(-615.16 -82)"/><path class="cls-1" d="M975.14,484.16a25.41,25.41,0,0,1-3.36-.47c-.27,1.72-.88,5.21-1.37,7.55-.32,1.73-1.13,4.4-1.79,6.58,0,2.84.11,9.26,1.16,12.89l.12.42c1.11,3.78,1.34,4.54,5.14,5l.1,0c2.48,0,5.06-6.47,6-11,0,0,.84-8.27.84-11.21,0-2-1.56-7.31-2.53-10.39a7.32,7.32,0,0,1-.68.29A25.48,25.48,0,0,1,975.14,484.16Z" transform="translate(-615.16 -82)"/><path class="cls-1" d="M1006.36,503.21l.17-.06c1.4-.4,2.41-4.11,2.65-6.62l-1.1-17.76c-.48.12-.79.5-1.27.56a19.92,19.92,0,0,1-2.42.1,16.84,16.84,0,0,1-6.28-1.39c.39,3.62,1.17,11.57,1.51,18.29C1002.05,500,1005.2,503.21,1006.36,503.21Z" transform="translate(-615.16 -82)"/><path class="cls-1" d="M991.32,473.1a9.86,9.86,0,0,1-1.4,4.23c-1.49,2.51-4.31,4.14-7.83,5.34.81,2.43,2.59,8.14,2.64,10.94h0s2.41,9.93,6.63,13.84c2,1.8,3,1.88,3.31,1.75s1.19-.91,2-3.91-.46-18.88-1.57-28.77l.36,0A21.07,21.07,0,0,1,991.32,473.1Z" transform="translate(-615.16 -82)"/><path class="cls-1" d="M954,405.54s-.54,9.58,2.82,14.2c2.58,3.66,3.83,3.52,3.83,3.52s7.54-3.8,10-7.93a37.76,37.76,0,0,0,4.5-10.28V405c.47-1.47.93-3.24,1.47-5.29a171.19,171.19,0,0,0,3.29-18.43l.1-.06a33,33,0,0,1-3.33-5.53c-.21.81-.45,1.59-.75,2.67-.31.78-.6,1.63-.93,2.77-1.93,6.39-7.85,10.83-8.09,11l-.71.5-.73-.32a30.27,30.27,0,0,1-6.48-4.31,142,142,0,0,1-5,17.61Z" transform="translate(-615.16 -82)"/><path class="cls-1" d="M923.73,531.66a1.84,1.84,0,0,0,.95-.22c3.32-2.12,10.88-9.77,12.28-14.1,1.46-4.59,1.79-17,1.79-17l.35-.05a27.1,27.1,0,0,1-1.07-6.85,62.73,62.73,0,0,1-11.17,11.18c-3.67,9.9-5.7,16.46-5.7,16.46a21.15,21.15,0,0,0-.41,7.28l.46-.19C921.6,529.12,922.62,531.24,923.73,531.66Z" transform="translate(-615.16 -82)"/><path class="cls-1" d="M945.82,476.52h.36c8.72-.19,13.87-9.18,14.56-10.49l8.38-45.17a53.45,53.45,0,0,1-7.32,4.89,3.62,3.62,0,0,1-1.23.22c-1.21,0-3.27-.77-6.05-4.61a10.22,10.22,0,0,1-.86-2c-3.21,7.51-10.86,25.5-12.3,28.89-1.61,3.63-5.79,6.67-7.6,7.85l-1.19,2.75a19.27,19.27,0,0,0-.79,6.43l-.06.18C933.08,468.19,938.14,476.52,945.82,476.52Z" transform="translate(-615.16 -82)"/><path class="cls-1" d="M950.32,523.59c.82-5.34,2-16.87,2.07-18.1a20.23,20.23,0,0,1-1.25-5.77,22.25,22.25,0,0,1-2.65,4.14,5.43,5.43,0,0,1-3.85,2,4.81,4.81,0,0,1-3.28-1.65c-.24,4.05-.72,10.39-1.74,13.71,0,2.95.31,10.76,1.74,13.74.43.9.91,1.06.91,1.06,1.08.47,2.37-.62,2.75-.88C945.15,531.72,949.53,528.69,950.32,523.59Z" transform="translate(-615.16 -82)"/><path class="cls-1" d="M826.62,451.86l-.31-.36c.46-.43,43.93-35.74,52.71-43.08-5.1,2.1-13.63,5.41-18.64,6.23-1.73.26-5.38.86-9.16,1.18a126.61,126.61,0,0,0-12.09,9.68c-2.64,2.4-10.75,8.79-18.58,15.19-5.71,4.54-11.38,9.07-13.67,11.1-5.81,6.51-5.78,8.58-5.78,8.58C798.53,467,814.09,459.91,826.62,451.86Z" transform="translate(-615.16 -82)"/><path class="cls-1" d="M1142.6,347.87c-.67.28-1.17.36-2,.63-3.88,1.07-7,2-8.88,2.68.27.14.46.29.85.47,1.81.92,1.9,2.07,1.81,2.72a3.59,3.59,0,0,1-1.71,2.14c7.52,3.08,18.94,7.39,27.61,10l.25,0c4.29,1.34,8,2.23,9.91,2.23l4,0c5,.07,7.42.07,9.93-.82a.8.8,0,0,0,.4-.33c.17-.68-.78-2.31-1.65-3.22l-2.26-2.37c-.73,0-1.53-.12-2.12-.2C1172.65,360.62,1144.44,348.72,1142.6,347.87Z" transform="translate(-615.16 -82)"/><path class="cls-1" d="M1150.43,342.68l.74,1.76-1.09.62s-1.25.6-3.51,1.46c7.46,3.23,27.88,11.63,32.72,12.57,5.87,1.21,19.49,1.16,19.49,1.16l.09.09c.93-.25,1.67-.3,2.61-.55,2.06-5.5-10.69-10.32-10.69-10.32s-5.63-3.33-24.44-9.67A105.92,105.92,0,0,1,1150.43,342.68Z" transform="translate(-615.16 -82)"/><path class="cls-1" d="M1130.18,357.9a35.22,35.22,0,0,1-6.42,1.79,73.35,73.35,0,0,1-8.71,1,3.16,3.16,0,0,1,.65,2.06,6.32,6.32,0,0,1-1.08,3.11c4.83,2,16.56,6.74,21.75,8.18,3.88,1,5.41,1.38,7.74,1.82,1.74.39,3.76.88,7.46,1.71,8.46,2,13.06,1.25,16.74.39.64-.21,1-.46,1.07-.78.21-.78-.69-2.39-2.47-3.86a44.68,44.68,0,0,0-7.44-4.24c-12.14-3.62-28.58-10.25-29.47-10.67Z" transform="translate(-615.16 -82)"/><path class="cls-1" d="M1120.47,409.76a71.71,71.71,0,0,1-9.55-.94l.85.7c1,1,2.82,3.27,2.16,5a2.67,2.67,0,0,1-2.51,1.63,7.32,7.32,0,0,0-1.68.31,10.36,10.36,0,0,1-2.19.23c3.1,2.49,8.08,6.37,10.81,8.84,3.83,3.57,27.41,22.39,27.64,22.64l-.39.46c13.52,9.8,36.45,21.31,33.29,13.17,0,0,0-1.31-2.7-4.89l-.24.22-33-28.32C1136.45,423.18,1122.08,411.15,1120.47,409.76Z" transform="translate(-615.16 -82)"/><path class="cls-1" d="M1125.25,388.34c-1.38-.38-2.66-.82-4.24-1.21-7-1.68-23.48-9.21-25.52-10.18-2.31.29-4.22.44-6.1.51a13.37,13.37,0,0,1,4.34,3c.81,1,1.84,2.4,1.21,3.83-.71,1.72-3.17,1.87-6.8,2.12-1,.05-2.14.13-3.26.22-.67.05-1.29.05-1.92.08,4,1.67,9,3.86,11.7,4.81a166.55,166.55,0,0,0,17.28,5.11c8.22,2.11,14.32,3.1,19.88,2.38,1.17-.2,2.27-.27,3.14-.4s2.16-.29,2.51-.38c0,0-.17-.54-.6-1.55C1135.73,394.06,1129.43,390.3,1125.25,388.34Z" transform="translate(-615.16 -82)"/><path class="cls-1" d="M882.93,396.13A94.61,94.61,0,0,1,867.82,402c-8.06,2.32-17.54,5.25-21.22,6.39v.07a21.77,21.77,0,0,0-5.46,4.59c2.87.8,10.07.32,18.76-1.06,7-1.12,21.87-7.5,22.24-7.74a5.07,5.07,0,0,1-1.93-1.94,3.83,3.83,0,0,1,0-3.41A7.59,7.59,0,0,1,882.93,396.13Z" transform="translate(-615.16 -82)"/><path class="cls-1" d="M850,334.12c.07.11.62.79,3.67.79,6.4,0,15.91-3.45,16.07-3.53l.94,2.6a84,84,0,0,1-10.36,2.84V337l-5.86,2.52a5.64,5.64,0,0,0-1.17.2,5.62,5.62,0,0,1,1,.56c5.33,2.46,12.23,1.32,12.23,1.32L882.21,338l-.12-.16a1.93,1.93,0,0,1,.06-1.94c.69-1.22,3.4-2.08,6.66-2.39-1.33-.43-2.43-.87-3.07-1.08l-.83-.49-.11-1.24c.11-.53.22-1.23,3.06-2.06a2.86,2.86,0,0,1-1.45-1.91,19.56,19.56,0,0,1-5.64.7,6.38,6.38,0,0,1-2.35-1c-4.76,2.3-10.52,4.78-13.58,5h-.47a4,4,0,0,1-3.58-1.64,6.11,6.11,0,0,1-.6-4.17,47.05,47.05,0,0,1-9.68,1.88l-.43,6.23S850,334,850,334.12Z" transform="translate(-615.16 -82)"/><path class="cls-1" d="M886.23,340.41c-.81-.32-1.55-.62-2.2-.91l.22.91-13,3,.29.43c-.29.17-.56.41-.78.56.22.07.57.15.94.24,2.59.48,6.56.93,10,1.28a2.34,2.34,0,0,1-.57-1.6C881.25,342.61,883.56,341.34,886.23,340.41Z" transform="translate(-615.16 -82)"/><path class="cls-1" d="M789.35,367.86l16.07-4.75a150.6,150.6,0,0,0,15.52-6.39,3.69,3.69,0,0,1-.94-2,4.4,4.4,0,0,1,1.28-3.22,57.36,57.36,0,0,1-6.57-2.18c-.94-.34-2.35-.9-3.51-1.31-3.21,1.47-14.73,6.77-20.6,8.09-6.27,1.43-16.92,4.87-18.1,5.26-1.88,2.25-3.36,4.75-3.52,5.81C771.79,367.57,782.26,369.42,789.35,367.86Z" transform="translate(-615.16 -82)"/><path class="cls-1" d="M879.34,389.2a1.54,1.54,0,0,1-.53-1.46c0-.39.36-.69.53-1.07l-25,9a56.3,56.3,0,0,1-7.23,2.38c-4.46,1.12-7.21,2-7.21,2l-.07,0,.07.07c-4.08,1.31-10,4.1-10.77,6.35v.38c.58.69,3.86.69,6.42.33h1.21a29.08,29.08,0,0,0,7.91-1c.48-.17,1.32-.39,2.52-.79l9.11-3.2-1.25.8c3.79-1.16,8.12-2.45,12.06-3.63A77,77,0,0,0,883,392.94a8.11,8.11,0,0,1,.9-3.49C882.12,390,880.35,390.25,879.34,389.2Z" transform="translate(-615.16 -82)"/><path class="cls-1" d="M877.68,376.61c-6.4,1.13-13.78,3.1-14.61,4.27-.35.58-.74,1.06-.92,1.33a11.58,11.58,0,0,0,2.31.78c4.31,1.11,15.64.6,15.64.6l.18,1.35.09.09a29.24,29.24,0,0,1,3.62-3.29,2.4,2.4,0,0,1-.5-.28A2.83,2.83,0,0,1,882,379a7.76,7.76,0,0,1,.57-3.17A27,27,0,0,1,877.68,376.61Z" transform="translate(-615.16 -82)"/><path class="cls-1" d="M883.67,365.82c-3.17.47-9,1.4-13.27,2-.78.2-1.65.25-2.5.38a62.69,62.69,0,0,1-11.32,1.18,5.45,5.45,0,0,1-1-.13l-.42.32c-1.75.67-3.59,1.81-3.75,2.29,0,0,.39.71,3.06,1.46a24.6,24.6,0,0,0,11.69.85,35.83,35.83,0,0,1,6.89-.31,38.61,38.61,0,0,0,4,0l.71-.16v.05a25.45,25.45,0,0,0,6.24-1.11c-2-1.53-.89-5.45-.43-6.61Z" transform="translate(-615.16 -82)"/><path class="cls-1" d="M773.45,456.71h0c.42-.44,11.51-11.34,15.85-13.79,3.24-1.88,28.12-23.56,39.33-33.4a4,4,0,0,1-1.57-.93,3,3,0,0,1-.56-2.94,8.15,8.15,0,0,1,3.38-3.87,19.91,19.91,0,0,1-3,.23c-6.67,0-11-1.09-13.07-3.1-4.82,3.74-20.84,16.32-26,20.83-5.54,5-11.58,10.16-20.14,17.23-5.61,4.66-13.86,12.81-17.82,16.74-3,5.45-2.39,7.59-2.39,7.59C747.05,468.49,761.38,463.78,773.45,456.71Z" transform="translate(-615.16 -82)"/><path class="cls-1" d="M876.59,442.19l14.82-13.76a19.44,19.44,0,0,1,0-8.29,14.7,14.7,0,0,1-2-.75L859.82,443.6l-.24-.22c-4.21,4.84-4.32,6.39-4.32,6.39-2.12,5.26,11.31-.88,21.5-7.42Z" transform="translate(-615.16 -82)"/><path class="cls-1" d="M1058.09,428.44a20.26,20.26,0,0,0-3.72-3.09,15.48,15.48,0,0,1-.64,4.11,13.7,13.7,0,0,1-2.35,4.16c4.67,5.78,25.7,17.71,23.51,11.73a5.56,5.56,0,0,0-1-2.06C1070,439.76,1060.32,430.87,1058.09,428.44Z" transform="translate(-615.16 -82)"/><path class="cls-1" d="M1251,402.94c-18.26-18.22-38.22-31.54-52.63-40-1.89,0-7.82,0-13.15-.42.56.59,2.91,3.46,2.26,5.77a3.19,3.19,0,0,1-2.11,2.18,20.31,20.31,0,0,1-7.23,1c5.51,3.89,17.25,12.09,25.55,18,11.24,8.06,27.4,22.65,27.57,22.79s7.5,9,13,15.84c5.32,6.87,12.32,14,12.32,14l-.17.26a12.77,12.77,0,0,0,1.38,1.09c4.62,9.45,45.12,21.07,45.34,10.5C1303.1,454.06,1276.44,428.37,1251,402.94Z" transform="translate(-615.16 -82)"/><path class="cls-1" d="M721,448.84l7.3-6.65c8.85-12.82,29.25-29.64,37-36,.88-.75,1.67-1.34,2.14-1.73,4.28-3.64,29.82-20,30.93-20.65a9.39,9.39,0,0,1,2-2.86,24.72,24.72,0,0,1-4.33.55c-10.24,0-14.78-1.27-15.1-4.24-.24-1.85,1.72-4.21,3.86-6.07-1.29.1-2.54,0-3.78,0-1.43.82-29,18.14-39,26.88l-.69.65c-4.48,3.86-14.89,13-21.83,19.53l-.42-.4a348.61,348.61,0,0,0-29.53,40c.47,9,19.42.63,31.63-8.73Z" transform="translate(-615.16 -82)"/><path class="cls-1" d="M746.5,453.17c2.9-3,12.92-12.85,19.4-18.2,8.48-7.15,14.51-12.36,20.08-17.22,6.11-5.42,26.66-21.41,27.54-22.08l.18.25c.83-1.69,2.75-3.44,5.11-5.15-8.24,1.42-13.27.72-13.49.62-.47-.08-5-.68-6.85-3.22-.19-.32-.05-.69-.19-1.12-5.72,3.66-25.53,16.43-29.06,19.46L767,408.3c-7.6,6.25-27.81,22.89-36.64,35.7l-2.71,2.43c-5,7.28-8.06,12.1-8.06,12.1C720,466.52,734.6,460.93,746.5,453.17Z" transform="translate(-615.16 -82)"/><path class="cls-1" d="M1221.11,441.76c-.25-.25-23.57-21.15-32.6-28.28s-27.59-22.52-27.79-22.71l-4.86-3.72a2.9,2.9,0,0,1,0,2.11c-1.33,2.61-5.84,3.26-9.93,3.26a34.88,34.88,0,0,1-6.11-.47,31.6,31.6,0,0,1-4.63-.82,13.35,13.35,0,0,1,3.75,3.92l19.91,15.68c1.72,1.35,5.17,4.32,9.31,7.81,6.67,5.65,14.94,12.67,20.52,16.95,7.62,5.83,14.47,14,15.72,16.39,12.19,8.49,28.47,15.08,28.82,6.65,0,0-4.44-7.07-11.66-17.21Z" transform="translate(-615.16 -82)"/><path class="cls-1" d="M960.85,282.54s.92,3.68,2.74,3.95a8.43,8.43,0,0,0,2.75-2.06,4.28,4.28,0,0,0,.89-3.06l21.38,5.43-25-.31-8.25.31,5.51-4.26Zm38.43,36.37v2.76c-.25,0-6.39,0-9.52-3.06a12.28,12.28,0,0,1-2-2.83,26.73,26.73,0,0,1-2.56,7.6c-3.31,6.25-7.52,6.95-7.7,7l-.56.11-3.92-2.78c-.07-.2-1.26-2.08-2.55-4.52,0,0-2.76.61-6.92,1.45a52.4,52.4,0,0,1-9.46,1.39c-.72,0-3.29.26-3.29.26l.88-2.22S959,322.81,963,322c3.51-.73,5.49-1.18,6.31-1.33a30.52,30.52,0,0,1-1.85-4.88A57.45,57.45,0,0,1,966.16,304l2.75-.29a56.72,56.72,0,0,0,1.18,11.43c1,4.1,4.49,9.6,5.21,10.84l2.24,1.61c1-.43,3.21-1.65,5.24-5.5a22.09,22.09,0,0,0,2.62-10.42l-2.7-8.46,2.67-.85,1.53,4.95.26-.07c.6,2,2.53,7.39,4.53,9.39s6.13,2.28,7.59,2.28Zm-78.06-13.4c-.39-1.31.71-5.08.71-6.07a5.56,5.56,0,0,0,.64-.19l-.39-.23c1.57-2.14,6.61-3.86,10.62-1.65,1.76.94,3.85.94,6.34.94a32.1,32.1,0,0,1,8.36,1c5.14,1.55,11.13,3.64,13,4.28-.17-3-2.28-6.14-6.16-10.48-5-5.5-13.43-10.4-13.43-10.4l1.36-2.46c.31.22,8.85,5.17,14.12,11.06,4.48,4.9,11.29,12.42,3.89,19.37a57.75,57.75,0,0,1-11.6,8.64l-2-1.87a60.42,60.42,0,0,0,11.68-8.7,8.2,8.2,0,0,0,1.66-2.44c-1.18-.36-7.79-2.72-13.34-4.38a25.86,25.86,0,0,0-7.57-.86c-2.74-.05-5.34-.05-7.63-1.39a6.55,6.55,0,0,0-7.08.86l-.82-.61c-1.39,1.74-.57,4.34-.57,4.34,11.65.95,18.58,9.16,26.85,14.54a28,28,0,0,0-5.21,5.24c2.39,0,4.77,0,7.08,0a20.26,20.26,0,0,0-1.48,12c-2.31,3.65-7.31,13.91-15.08,19.49a22.53,22.53,0,0,0,9.57,1.55l1.59-.61s2.54-.94,9.61-2.75c5-1.27,6.88-2.68,7.52-3.25a114.81,114.81,0,0,1-4.25-11.38l2.68-.76c1,3.2,4,12.14,6.18,14.95s5.9,4.36,7.21,4.83a12.3,12.3,0,0,0,6.66-4.68c2.12-3.25,2.58-11.68,2.58-14.71h2.73s0,3.22-.38,6.68h0c.39,2,2.05,7.24,5.14,8a48.34,48.34,0,0,0,13.78,1.11l.07.46a73.56,73.56,0,0,0,11-3.65c-7.25-3.08-14-17.37-16.25-21.17-.15-3.56-.22-6.69-.39-9.27,3.42-.17,7.56-1.42,12.72-4.6-6.14-3.88-10.08-13.32-11.85-17.2l-.38.07c-.19-.37-.25-.76-.49-1.29,15.36-2.58,13.62-19.44,16-22.87-3.67,0-14.5,9.14-23.8,1.63-18-7.38-19.44-3.7-25.76-4.94-15.43-3.48-19.91,1.38-25.29,9.66l.12.07c-4.72,1-9.61,1.31-10.17.86-14.63.71-14.74,11.21-15,12.94C916.54,302,917.7,304.92,921.22,305.51Z" transform="translate(-615.16 -82)"/><path class="cls-1" d="M695.08,443.54c4.39-3.4,13.69-17.58,22.9-26.86l-.36-.43c7-6.55,17.4-15.7,21.81-19.61l.81-.67c8.36-7.29,28.15-20.15,36-25.11-4.58-.46-8.27-1.11-8.61-1.21l-.33-.09-.36-.25c-1.6-1.71-.36-4.61,1.28-7a75.46,75.46,0,0,1-13.5.52c-14.41,8.44-34.51,21.72-52.85,40.09-25.66,25.43-52.36,51.13-52.36,51.13C649.77,464.63,690.58,453,695.08,443.54Z" transform="translate(-615.16 -82)"/><path class="cls-1" d="M1242,429.82c-5.43-6.84-12.78-15.56-12.78-15.56s-16.11-14.57-27.24-22.55-28.5-20.06-28.5-20.06l-.18-.16h-2.84l-1.79-.22c2,1.59,4,4.12,3.38,6.43-.13.86-.79,2.26-3.08,2.79a32.41,32.41,0,0,1-7.94,1.07,39.33,39.33,0,0,1-9.8-1.32,32.36,32.36,0,0,1,3,2.12l8.26,6.32c.19.16,18.73,15.51,27.77,22.65s32.46,28.23,32.73,28.45l-.31.36c6.51,10.86,40,29.76,40.57,17.7,0,0-4-6.51-10.88-16.06C1249.87,439,1245.69,434.43,1242,429.82Z" transform="translate(-615.16 -82)"/><path class="cls-1" d="M785.78,337.17c8.61,2.53,13.93,3.48,24.55,2.64a171.24,171.24,0,0,0,22.83-3.39l14.21-3.22a1.51,1.51,0,0,0,.08-.37l.3-5.12h-.06a44.75,44.75,0,0,1-15.34-3l1-2.5A45.31,45.31,0,0,0,847.61,325a40.75,40.75,0,0,0,14-2.85l3.3-1.46-1.42,3.25c-.45,1.16-1,3.4-.43,4.28.2.37.75.51,1.53.41,2.81-.14,8.87-2.82,13.82-5.33l.26-.33.24.13c2.35-1.19,4.56-2.33,5.84-3.05l1.37,2.33c-.21.18-1.84,1-4.07,2.21a21.46,21.46,0,0,0,6.25-1.29l9.1-3.63-7.75,6a1.58,1.58,0,0,0-.51.67,8.2,8.2,0,0,0,.75.35,12.19,12.19,0,0,0,5.36.38,4.63,4.63,0,0,1,.89-.16l.58,2.65-1,.22c-2,.39-4.21.78-5.85,1.25,2.28.7,5.39,1.65,7.58,2.24l9.89,2.72H897.08c-5.14,0-10.09.45-12,1.06a25.91,25.91,0,0,0,7.29,1.89l7.89,1.23-7.89,1.46c-4.1.77-8.24,2.25-8.61,3.17.28.46,2.87,1.31,5.51,1.88l5.83.5-5.48,1.47-.15.89c-.49-.15-1.1-.24-1.74-.38h-.15c-4.07,1.09-8.84,2.94-9.67,3.81a3.18,3.18,0,0,0,1.38,1.06h7.34v2.77l-7.11-.11c-.23.11-.45.24-.7.34H883l-.47,1.79a1.17,1.17,0,0,0-.1.47.85.85,0,0,0,.47.18c1.19.25,5.79-.79,8.63-1.5l.82,2.59s-5.14,2-6.16,6.3c-.54,1.59-.8,3.36-.54,3.75,0,.07.22,0,.22,0a2.85,2.85,0,0,0,.72-.75l2.15,1.75c-.19.21-.44.54-.69.81-1.56,1.83-3.52,4.71-3.39,6.47.05.32.17.36.17.36.58.34,2.43,0,3.72-.58l1.34,2.33a53.64,53.64,0,0,0-7.84,6.24,19.51,19.51,0,0,0,5.09-2.42l7.05-4.58-5.2,6.55c-2,2.52-3.65,5.66-3.34,6.37a4.78,4.78,0,0,0,2.5,0c2.29-1.09,4.28-1.87,5-2.14l1.25,2.43a21.51,21.51,0,0,1-5.24,2.17c-3,1.55-5.89,3.26-6.42,4.51-.23.53-.23.85-.08,1.08.37.78,1.89,1.36,2.46,1.48l.42.07h.09v.06l2.59.69-2.68,1.72c-1.4.93-2.66,2.3-2.66,2.79a1.43,1.43,0,0,0,.64.5,5.24,5.24,0,0,0,5-.67l8.81-7-6.81,8.88c-1.4,1.76-2.9,4.88-2.11,5.88a6.67,6.67,0,0,0,4,2c1.17-1.76,4.73-6.57,9.71-8.26s23.33-8.89,26.14-10c1.41-1.89,2.59-3.76,3.21-4.79a33.6,33.6,0,0,1-5-1l-3.57-1,3.18-1.55a23.39,23.39,0,0,0,4.52-3.59,22.79,22.79,0,0,0,3.33-4.13c-4.68.38-9.59.53-13.55-1.17-11-3.59-13.26-11.82-8.91-19,4.3-6.6,11.74-13.29,12.13-20.24,4.23-8.66-.39-26.27-20-30.13-12.21-1.57-42.28-1.25-49.21,3.48s-18.45.77-24.85-2.77c-2.24,4.86-.31,8,3.34,10.13C802.61,327.42,794,330.4,794,330.4s-16.23-1.22-15.27,4.34c2.68,1,4.92,1.84,7,2.58Z" transform="translate(-615.16 -82)"/><path class="cls-1" d="M753.7,360.29V360s10.5.84,17.53-1.19c.49-.1,12-3.93,18.75-5.43,4.52-1.08,12.9-4.62,17.54-6.8-3.92-1.35-5.73-2.53-5.95-4a60.17,60.17,0,0,1-15.68-2.68c-18.27,6.32-23.77,9.53-23.77,9.53s-12.75,4.82-10.84,10.32C752.17,360,752.92,360.09,753.7,360.29Z" transform="translate(-615.16 -82)"/><path class="cls-1" d="M1202.15,453.32c-.54-1.3-7.35-9.64-15.1-15.65-5.66-4.35-14-11.38-20.69-17.08-4.11-3.44-7.52-6.41-9.23-7.79l-17.24-13.54-.07.39c-.72,1.23-2.24,1.44-4.55,1.63-.85.15-1.9.2-3,.44a25.85,25.85,0,0,1-4.31.29,44.65,44.65,0,0,1-6-.58l1.69,1.05c1,.78,3.28,3.14,2.48,5.18-.35.95-1.19,1.25-2,1.58,4.54,3.78,15.25,12.85,20.76,17.51l33,28.39-.39.42c12.43,7.7,28.55,13.32,28,5.74,0,0,.57-2.34-2.8-8.14Z" transform="translate(-615.16 -82)"/><path class="cls-1" d="M944.61,503.15h0a2.51,2.51,0,0,0,1.65-.93c.18-.23,4.18-4.58,5.57-13,.94-5.37,1.56-9.45,2-12.08a16.56,16.56,0,0,1-7.61,2.22h-.37a12.83,12.83,0,0,1-3.52-.56,23.5,23.5,0,0,1-1.44,9.57c-.27,2.88-.38,10.7,1.83,13.48C943.17,502.38,943.86,503.15,944.61,503.15Z" transform="translate(-615.16 -82)"/><path class="cls-1" d="M1071.84,361.57a5.5,5.5,0,0,1-1.26.47,96.61,96.61,0,0,0,20.38,4c14.32,1.15,20.34-1.11,20.34-1.11l.37-.14h.27c.25,0,.87-.53,1-2.37a.93.93,0,0,0-.16-.8c-.36-.48-1.21-.6-1.89-.71l-.67.11a119.32,119.32,0,0,1-12.2-.72,115,115,0,0,1-22.39-5.11,10.56,10.56,0,0,1,3,2.69l1.32,2.1-2.44,0S1073.87,360.11,1071.84,361.57Z" transform="translate(-615.16 -82)"/><path class="cls-1" d="M1097.53,449.77s-.08-1.31-3.14-5.06L1063.52,419a4.49,4.49,0,0,1-2.34.48,6.22,6.22,0,0,1-3.79-2.74,20.39,20.39,0,0,0-1.78-1.93h-.46c-.62.43-1.39,3.07-1.72,5.63l-.16-.07a7.59,7.59,0,0,1,.59,1.48,24.11,24.11,0,0,1,6.26,4.76c2.71,2.94,17.12,16.06,17.31,16.18l-.23.25C1087.14,449.35,1099.56,454.86,1097.53,449.77Z" transform="translate(-615.16 -82)"/><path class="cls-1" d="M1127.48,458.34s-.19-1.61-3.64-5.73l-.64.27c-1.19-1.71-21.46-19.39-28.07-24.69-5.06-4-17.81-13.64-22.31-17a2.91,2.91,0,0,1-2.31,1l-.55.07a6,6,0,0,1-3.06-.46,6.61,6.61,0,0,1-1.1,5.5l30.52,25.49-.2.23C1102.8,450.77,1130.5,466.24,1127.48,458.34Z" transform="translate(-615.16 -82)"/><path class="cls-1" d="M1059.55,446.35s-.34-2.81-8.54-11.93a13.18,13.18,0,0,1-9,4.28C1049.76,445,1061.11,451.49,1059.55,446.35Z" transform="translate(-615.16 -82)"/><path class="cls-1" d="M931.65,454.71l-.25-.33s5.77-3.36,7.41-7.16,11.71-27.46,13.4-31.44a38.5,38.5,0,0,1-.9-5.91c-3.56,4.31-9.56,7.31-10.2,7.64L914.65,436.4a11.75,11.75,0,0,1-1.49,1.25C910.73,449,922.09,457.31,931.65,454.71Z" transform="translate(-615.16 -82)"/><path class="cls-1" d="M910.88,438.68a12.08,12.08,0,0,1-4.3.85,18,18,0,0,1-7.43-1.88c-5.42,6.42-5.73,8.7-5.73,8.7C891.7,451.46,903.13,445,910.88,438.68Z" transform="translate(-615.16 -82)"/><path class="cls-1" d="M914.93,413.65a74.41,74.41,0,0,0,7.64,3.82c2,.74,11.41-1,17.5-2.43,0,0,7.88-3.78,10.4-8.4,2.09-4,4.83-15.15,5.84-19.59-3.28,2.26-10.18,6.44-15.34,7.37a27.21,27.21,0,0,1-4.78.4,5.68,5.68,0,0,1-1.09-.11c-.88.56-4.71,7.49-9.56,12.31A36.87,36.87,0,0,1,914.93,413.65Z" transform="translate(-615.16 -82)"/><path class="cls-1" d="M961.66,469.76c.38,1.46,3.9,13.62,16.66,11.36,4.49-.9,7.64-2.63,9.25-5.17a8.87,8.87,0,0,0,.93-6.65l-8.85-52.62c-1.1-2.31-2.17-5.08-3-7.44a38.64,38.64,0,0,1-3.62,7.49c-.15.24-.43.45-.62.7l.19,0L963.29,467C963.21,467.17,962.6,468.33,961.66,469.76Z" transform="translate(-615.16 -82)"/><path class="cls-1" d="M924.51,503.21c.36-.06.54-.38.88-.49l-.15-.18s10.64-8.3,12.91-14.81c2.27-6.34,1.24-10,1.24-10l.11-.06a24.49,24.49,0,0,1-9.07-8.82c-5.28,13.39-8.1,22.63-8.1,22.63S919.6,501,924.51,503.21Z" transform="translate(-615.16 -82)"/><path class="cls-1" d="M897.85,436.9a12.06,12.06,0,0,1-5.29-5.83l-14,13.09a8.5,8.5,0,0,0-.55,1.18C876.07,450.36,890.29,442.92,897.85,436.9Z" transform="translate(-615.16 -82)"/><path class="cls-1" d="M894.35,419.59c-.3,1.1-3.08,11.05,5.18,15.28,8.57,4.41,13.08-.22,13.33-.45L934.23,419a59.88,59.88,0,0,1-10.07,1.32,7.52,7.52,0,0,1-2.54-.35c-3.43-1.16-10.33-5.36-10.65-5.49l-2.63-1.6,2.95-.89s7.65-2.39,12.25-6.89l1.33-1.56c-6.68,2.64-18,7.05-21.88,8.34C898.16,413.48,894.62,419.29,894.35,419.59Z" transform="translate(-615.16 -82)"/><path class="cls-1" d="M1114.83,400.28l.15-.23c-1.23-.38-2.4-.4-3.76-.79a155.86,155.86,0,0,1-17.49-5.2c-4.81-1.82-16.48-6.83-17.37-7.14-1,0-1.92-.17-2.72-.17,1,1.68.79,2.41.63,2.7-.55,1.25-2.26,1.25-4.49.36a6.38,6.38,0,0,1,.58,2.75c3.43,1.5,16.49,7.11,24.28,9.77,8.77,3,19.11,4.83,26.37,4.83,2.13,0,2.51-.46,2.51-.46a6.89,6.89,0,0,0-1.55-2Z" transform="translate(-615.16 -82)"/><path class="cls-1" d="M1069,372a102.72,102.72,0,0,0,11.3,2.21,50.61,50.61,0,0,0,15.25,0,14.81,14.81,0,0,0,6.43-2.14,22.6,22.6,0,0,1-6.18-3.07c-1.65-.06-3.14-.06-5.08-.23a94.44,94.44,0,0,1-22.79-4.72c1.29,1.64,2.25,3.45,2,5.37A5.79,5.79,0,0,1,1069,372Z" transform="translate(-615.16 -82)"/><path class="cls-1" d="M1077.55,352.94a105.31,105.31,0,0,0,20.76,4.64,113.64,113.64,0,0,0,12.06.7v-.07l.86.07a61.88,61.88,0,0,0,12-1.29c5-1,7.43-2.16,8.24-2.8h0a8.25,8.25,0,0,1-3.1-2.32c-3.39,0-15.3-.14-20.9-.94s-19.74-3.81-23.33-4.67a4.2,4.2,0,0,1-2.33,1.32,34.75,34.75,0,0,1-9.56,1.29c3.18,1.07,5.33,2.17,5.64,3.35C1077.93,352.47,1077.63,352.7,1077.55,352.94Z" transform="translate(-615.16 -82)"/><path class="cls-1" d="M1153.36,387.93c.2-.72-2.19-3.49-5.37-5.79l-8.66-4.43.09-.19c-1.09-.2-2.12-.5-3.8-.91-6.3-1.69-21.4-7.95-23.85-9-1.08.46-4.22,1.15-9.85,1.4a5,5,0,0,0,1,.42c2.17.75,2.25,2.15,2.21,2.67-.21,1.72-2.56,3-5.14,3.8,5.71,2.67,16.6,7.33,21.7,8.6a31.25,31.25,0,0,1,3.87,1.15l0-.15a2.52,2.52,0,0,1,.69.36c.9.24,1.92.52,2.83.81a61.52,61.52,0,0,0,11,2.65C1148.18,390.3,1152.78,389.06,1153.36,387.93Z" transform="translate(-615.16 -82)"/><path class="cls-1" d="M1032.56,382c-3.94,1.68-8.86,1.55-13.53,1.18a8.21,8.21,0,0,0,2.75,3.37,23.68,23.68,0,0,1,5.27,5.82l1,1.69-2,.31s-.83.13-1.86.22a28.27,28.27,0,0,0,4.48,5.92c2.3,2,8.76,4.38,11.1,5.1l2.61.86-2.25,1.54-.28.19,3.88,1.34a28.19,28.19,0,0,1,7.68,7.15c.43-1.82,1.22-3.69,2.54-4.33,2.07-1.06,4.46.85,5.72,2.91a4.69,4.69,0,0,0,2.11,1.49,4.06,4.06,0,0,0,1.47-.39c3.09-2.15-.59-7.72-.69-7.82l2.16-1.68c.75.68,2.93,2.67,4.73,2.67l.24,0,.57-.07h.37a5.25,5.25,0,0,0,.14-1.07l.1-1c.12-1-1.74-2.12-2.75-2.49l.68-2.65a2.27,2.27,0,0,0,2.24-1.34s-.55-1.64-8.59-5.63a14.81,14.81,0,0,1-3.86-2.75l1.5-2.25c3.5,1.95,6.94,3,7.56,2.49.55-1.2-1.64-4.27-3.35-6.06l1.69-2.08a33,33,0,0,0,4.5,2.39c-.23-.31-.5-.56-.76-.95l-5.75-5.34,1.39-2.22a8,8,0,0,0,4.15.07c-.31-1.15-2.49-4-4.86-6.57l-.13-.05,2-1.92,0,.1a1.73,1.73,0,0,0,.24.14,3.24,3.24,0,0,0,.36-1.27c.4-3-4.86-7.14-6.69-8.32l1.24-2.43c3.17,1.18,7.33,2,8.42,1.07a10.34,10.34,0,0,1,4.22-1.74,10.91,10.91,0,0,0-2.22-1c-.71-.19-1.43-.27-2.12-.43-2.27.24-4.2.23-4.2.23l-.58-2.8a23.75,23.75,0,0,1,4.78-.13,15.83,15.83,0,0,0,4.55-.95,53.33,53.33,0,0,0-10.58-3.16l.18-2.76a9,9,0,0,0,2.35-.51h0a7.75,7.75,0,0,0,3.06-2,1,1,0,0,0,.25-.34,17.93,17.93,0,0,0-3.31-.72l-6.67-1.9.24-2.64,7.68-1a11,11,0,0,0-2.88-.74c-6.36-1.26-8.48-1.54-8.48-1.54v-2.75a31.85,31.85,0,0,0,7.38-1.74,8.57,8.57,0,0,1-1.17-.44l-6.84-.84.32-2.72c4,.43,7.6-.07,8-.79a9,9,0,0,1-1.13-.5l-3.28-1.74,3.6-.85a3.27,3.27,0,0,1,3.06.8,3.18,3.18,0,0,1,.28.28,13.08,13.08,0,0,0,4.28.7h.85l-4.31-2.58,1.41-2.39,6.11,3.67c5.31,2.9,12,5.73,13.94,5.28a1.22,1.22,0,0,0,.78-.65,6.07,6.07,0,0,0,.08-3.62l-1-3.15,2.89,1.51a31.43,31.43,0,0,0,13.11,2.88c6.81,0,13.78-2.25,16.61-3.27,2.55-2.18,3.67-5,1.8-9-6.34,3.54-17.88,7.57-25,2.77-6.89-4.73-36.81-5-49-3.49-19.66,3.89-24.26,21.5-20,30.15.25,6.94,7.76,13.65,12,20.23C1045.68,370.21,1043.4,378.45,1032.56,382Z" transform="translate(-615.16 -82)"/><path class="cls-1" d="M1073.56,400.15a2.6,2.6,0,0,1-.07,2,4.45,4.45,0,0,1-1.57,1.8,6,6,0,0,1,1.48,2.5,223.55,223.55,0,0,0,22.92,6.09c9.63,2.09,11.16,1.64,12.81,1.3a6.92,6.92,0,0,1,2-.37h.11a6.2,6.2,0,0,0-1.26-2l-3.84-2.9.39-.47a99.54,99.54,0,0,1-12.76-3.18c-8.06-2.68-21.67-8.62-24.79-10-.19.09-.26.35-.5.48h-.08C1071.47,397.28,1073.1,398.77,1073.56,400.15Z" transform="translate(-615.16 -82)"/><path class="cls-1" d="M1124,324.28a59.49,59.49,0,0,1-17.76,3.91v3.58a7.53,7.53,0,0,1-.45,1.75c3.68.77,13.62,3.07,19.25,4.8,6.1,1.84,14.82,1.78,21.27,1.78h2.15c6.11,0,17.39-3,17.39-3l.24.58c2.41-.87,5-1.79,8.07-3,.82-5.58-15.32-4.36-15.32-4.36s-8.06-2.67-35-6.32Z" transform="translate(-615.16 -82)"/><path class="cls-1" d="M1143.75,342.8c-6.24,0-13.81-.17-19.43-1.83-6.33-1.91-18.15-4.6-20.22-5.06a6,6,0,0,1-3.69,1.79h-.22a8.94,8.94,0,0,1,1.48,1.7l.48.7-.23.59c-.25.5-1.26,2.6-6.47,3.9a15.07,15.07,0,0,1-3.42.32c-.61,0-1.28-.08-1.89-.08,5.74,1.15,13.79,2.85,17.65,3.4,5.87.84,19.4.86,21.28.86,1-.26,5.22-1.65,10.83-3.19a68.9,68.9,0,0,0,7.78-2.69l-.15-.41h-3.78Z" transform="translate(-615.16 -82)"/><path class="cls-1" d="M1003,357.39h-.88c-.63.76-2.41,5.73-4.41,9.28a24.3,24.3,0,0,1,.17,11.89,23.27,23.27,0,0,1-1.81,5.18c1.19,1,6.73,5.43,12.21,7.43,4.4,1.66,11.51,1.25,15,.79a24,24,0,0,0-3.28-3.28c-3.37-2.63-3.87-4.94-3.92-5.29l1.34-.22c-5.1-8.18-9.75-19-12.78-25.78Z" transform="translate(-615.16 -82)"/><path class="cls-1" d="M1151.81,460.37s-.08-2.53-7.38-10.32l-.19.23c-1-.78-23.84-19.07-27.77-22.68s-13.23-10.76-13.23-10.76v-.29a72.09,72.09,0,0,1-7.5-1.32c-8.15-1.76-15.38-3.79-19.67-5.1,5.4,4.21,16.27,12.32,20.84,16,4.19,3.41,25.86,21.83,28.34,25.11C1138,459.49,1154.42,467.1,1151.81,460.37Z" transform="translate(-615.16 -82)"/><path class="cls-1" d="M1068.75,381.48l2.54,2.41a97.18,97.18,0,0,0,13.31,0c1.18-.15,2.3-.15,3.29-.3a16.5,16.5,0,0,0,4.36-.48,2.27,2.27,0,0,0-.62-.91c-2.52-2.87-10.39-4.81-13.21-5.28l0-.22c-2.94-.46-5.68-1.05-7.77-1.49,1.06,1.57,1.87,3.24,1.62,4.29a2.06,2.06,0,0,1-1.5,1.59A6.8,6.8,0,0,1,1068.75,381.48Z" transform="translate(-615.16 -82)"/><path class="cls-1" d="M1071.47,346.14a33.1,33.1,0,0,0,9.45-1.13,3.85,3.85,0,0,0,1-.47,9.29,9.29,0,0,0-2.58-1.48l-10.57-2.91c-.47.12-1,.12-1.8.25h.12c1.18.11,4.57.63,5.37,2.66a2.77,2.77,0,0,1-.8,2.93Z" transform="translate(-615.16 -82)"/><path class="cls-1" d="M1064.75,333.33a4.82,4.82,0,0,1-1.07.36c.57.14,1.19.29,1.74.39,2.58.47,6,1.37,6,3.61l-.07.26,8.84,2.46c2.75.71,10.85,2.49,14.58,1.46a10.7,10.7,0,0,0,4-1.6,13.19,13.19,0,0,0-4.45-2.75,99.6,99.6,0,0,0-11.6-3.22l.45-2.69a118.1,118.1,0,0,1,11.93,3.31,20.92,20.92,0,0,0,5.09,0c2.82-.19,3.29-3.19,3.29-3.19v-3.56a37.69,37.69,0,0,1-10.62-2,6.41,6.41,0,0,1-.66,3.24,4.22,4.22,0,0,1-2.52,1.83,2.36,2.36,0,0,1-1.09.2c-3.8,0-10.87-3.57-13.79-5.12a5.33,5.33,0,0,1-3.83,1.12,16.2,16.2,0,0,1-4.15-.6,3.28,3.28,0,0,1-1.4,1.62,3,3,0,0,1,1.87,2.25C1067.38,332.44,1065.42,333.2,1064.75,333.33Z" transform="translate(-615.16 -82)"/><path class="cls-1" d="M978.12,780.49c-190.43,0-345-152.35-345-340.25,0-188.11,154.53-340.39,345-340.39,188.48,0,342.07,149.19,345,335l.11,5.37c0,187.9-154.49,340.25-345.08,340.25ZM977.48,82C777.41,82,615.16,242.59,615.16,440.58S777.41,799.22,977.48,799.22c200.32,0,362.52-160.58,362.52-358.64S1177.8,82,977.48,82Z" transform="translate(-615.16 -82)"/><path class="cls-1" d="M945.36,729.16c-.86,5.12-4.21,9.9-9.07,11.21l-1.26-.29-38.12-6.34-1.29-.13c-8.44-5.59-5.16-22,4.84-24.47l1.21.14,38,6.35,1.18.12c4.15,2.82,5.57,8.31,4.47,13.41Zm19.16,3.22c2-10.59.17-22.12-7.1-27.78l-2-.28L891.1,693.53l-1.82-.23c-17.86,6-24.67,40.31-10.35,51.37l2.17.37,64.44,10.8,2.13.38C956.55,753.15,962.46,743.08,964.52,732.38Z" transform="translate(-615.16 -82)"/><path class="cls-1" d="M1130.84,690.75c3.49,4,8.77,6.8,13.8,5.76l1.08-.73,30.43-22.16.93-.68c4.64-8.57-6.55-21.65-16.83-19.54l-.94.6L1129,676.23l-.94.64c-2.31,4.41-.63,9.75,2.77,13.88Zm-15.19,11.07c-7.23-8.52-11.38-19.38-7.86-27.61l1.44-1,51.41-37.5,1.5-1.09c18.8-2.55,42.27,24.74,35.4,40.89l-1.86,1.23-51.28,37.45-1.8,1.24C1133.49,716.63,1123,710.36,1115.65,701.82Z" transform="translate(-615.16 -82)"/><path class="cls-1" d="M1012.79,727.85c1.08,5.14,4.29,9.82,9.27,11.1l1.29-.08,38.08-6.49,1.29-.15c8.39-5.63,5.19-22-5-24.51l-1,.14-38.28,6.38-1,.12c-4.26,2.93-5.61,8.3-4.74,13.49Zm-19,3.13c-2-10.72-.17-22,7.09-27.78l1.78-.22,64.46-10.68,1.94-.33c17.8,5.89,24.58,40.41,10.35,51.4l-2.21.39-64.45,10.68-2.25.32C1001.9,751.79,995.9,741.74,993.83,731Z" transform="translate(-615.16 -82)"/><path class="cls-1" d="M1072.56,723h0c-5.2,2.12-10.91.82-12.74-2.84s.7-8.55,5.9-10.85h.17L1124.32,684l.11,0c5.28-2.27,11.08-1,13,2.69s-.82,8.61-6,10.9h-.06l-58.55,25.35Z" transform="translate(-615.16 -82)"/><path class="cls-1" d="M944.56,737.55h0c-5.75-.08-10.17-3.57-10.17-7.59,0-4.19,4.54-7.37,10.24-7.43h.2l64.64.53c5.81,0,10.59,3.4,10.54,7.69-.09,4-4.88,7.44-10.59,7.34h-.07l-64.72-.54Z" transform="translate(-615.16 -82)"/><path class="cls-1" d="M1223.23,617.63h0c3.76-3.87,4.13-9.35.87-12.06s-9.1-1.77-12.92,2H1211l-43.52,44.15h-.17c-3.72,4-4.39,9.39-1,12.25s9.23,1.78,13.09-2.15h0l43.63-44.09Z" transform="translate(-615.16 -82)"/><path class="cls-1" d="M834.8,690.75c-3.49,4-8.79,6.8-13.81,5.76l-.93-.73-30.48-22.16-1-.68c-4.61-8.57,6.59-21.65,16.77-19.54l1,.6,30.34,22.23.85.64c2.26,4.41.71,9.75-2.78,13.88Zm15.25,11.07c7.2-8.52,11.35-19.38,7.9-27.61l-1.48-1-51.38-37.5-1.58-1.09c-18.87-2.55-42.21,24.74-35.28,40.89l1.76,1.23,51.31,37.45,1.76,1.24C832.3,716.63,842.76,710.36,850.05,701.82Z" transform="translate(-615.16 -82)"/><path class="cls-1" d="M893.12,723h0c5.25,2.12,11,.82,12.69-2.84,1.92-3.66-.71-8.55-5.72-10.85h-.21L841.27,684l-.08,0c-5.34-2.27-11.1-1-12.84,2.69-2,3.81.74,8.61,5.93,10.9h.17L893,722.89Z" transform="translate(-615.16 -82)"/><path class="cls-1" d="M742.59,617.63h0c-3.77-3.87-4.23-9.35-.86-12.06s9-1.77,12.83,2h.13l43.57,44.15c3.93,4,4.56,9.39,1.17,12.25s-9.22,1.78-13.07-2.15h-.11l-43.59-44.09Z" transform="translate(-615.16 -82)"/><path class="cls-1" d="M1256.11,610.2l-11.88-9.72L1231,615.66c-13.68,5.82-21.13-6.07-18.68-15.31l12.92-15.43-11.4-9.32L1192,600.7c3.33,24.41,20.6,36.66,43,33.4Z" transform="translate(-615.16 -82)"/><path class="cls-1" d="M711.35,610.2l12-9.72,13.15,15.18c13.86,5.82,21.16-6.07,18.64-15.31l-12.83-15.43,11.35-9.32,21.85,25.1c-3.31,24.41-20.56,36.66-42.92,33.4Z" transform="translate(-615.16 -82)"/><path class="cls-1" d="M981.15,526.73c-.39-3-1.18-7.63-1.7-10.57-1.2,1.48-2.46,2.73-4.22,2.73l-.54-.07a10,10,0,0,1-4.2-1.36c-.33.83-.94,2.43-2,5.5-.24.95-.69,1.95-1.08,3a32.78,32.78,0,0,0,1.72,11.28c.32.83.58,1.6.82,2.37,1.51,4.49,2,5.67,4.51,6.06h0c1.65,0,4.14-5.11,5.45-9.81C980,535.62,981.69,530.77,981.15,526.73Z" transform="translate(-615.16 -82)"/><path class="cls-1" d="M996.08,522.13,994.38,512c-1.44,0-3.06-.88-4.9-2.58-2.24-2.08-4-5.43-5.14-8.46-.25,2.42-.46,4.4-.46,4.4a37.06,37.06,0,0,1-2.48,7.7h.33s1.21,6.93,1.86,11.61l.29-.07s2,7.37,6,11.55c2.26,2.37,3,2.65,3,2.65h.23c.48-.1,1.45-1.65,1.86-2.41C996.46,534,996.4,526.48,996.08,522.13Z" transform="translate(-615.16 -82)"/><path class="cls-1" d="M1006.47,505.93c-2.29,0-4.79-2.49-6.76-4.87a21.72,21.72,0,0,1-.31,5.05,10.43,10.43,0,0,1-2.57,4.52H997l1.86,11.15c0,.56.18,3.07.18,6a17.69,17.69,0,0,0,4.66,4.31c1.38.83,1.95.9,2,.83.74-.29,1.85-2.66,2.34-3.86,1.35-3,.21-14.81-1-23.27A.81.81,0,0,1,1006.47,505.93Z" transform="translate(-615.16 -82)"/><path class="cls-1" d="M965.9,522.23a41.83,41.83,0,0,1,2.59-7,26.67,26.67,0,0,1-1.26-3.4l-.1-.32a37.53,37.53,0,0,1-1.07-8.09c-2.14,2.93-5.5,7-8.42,7l-.33-.07c-.53,0-.89-.05-1.19-.05a10.16,10.16,0,0,1-1.37-.33c-.41,4.27-1.11,10.43-1.69,14.13a17.8,17.8,0,0,1-.71,2.09h.1c.27,4.43,1.4,9.84,2.76,10.64s3.89-1.36,4.84-2.46C960.05,534.35,964.47,526.73,965.9,522.23Z" transform="translate(-615.16 -82)"/><path class="cls-1" d="M997,552.33s-1.53-4.31-2.1-6.45c-.46-1.26-1-3.36-1.28-4.43l0,0h-.31c-1.75,0-3.4-1.31-5.39-3.39a29.14,29.14,0,0,1-4.19-6.43,29.08,29.08,0,0,1-1.16,4.93,33.64,33.64,0,0,1-2.56,7c1.3,1.84,4.31,6.21,5.74,8.08,1.15,1.54,5.27,7,5.66,7.49l-1.1.88C994.46,558.76,996.26,554.77,997,552.33Z" transform="translate(-615.16 -82)"/><path class="cls-1" d="M1007.38,556.61s-.31-7.75-.31-12c0-2.57.07-6.78.15-9.71-.22.07-.39.49-.39.49a5.89,5.89,0,0,0-.87.25,6.61,6.61,0,0,1-3.75-1.37,20,20,0,0,1-3.35-2.62c-.25,2.39-.6,4.74-1.42,6.1a18.75,18.75,0,0,1-1.38,2.08s.91,3.24,1.53,5.28,2.08,6.28,2.08,6.28l-1.6.58a29.24,29.24,0,0,0,10.47,16.62,7.2,7.2,0,0,0,.71-3.26l-.36.1Z" transform="translate(-615.16 -82)"/><path class="cls-1" d="M1023,549c.25-1.49-1.31-5-3.35-8.88-.21-.19-.54-.57-.54-.57l.14-.18c-1.47-2.78-3.13-5.63-4.59-7.89l-3.22-8.92c.07,3.25-.1,6-.8,7.55a13,13,0,0,1-.83,1.58h.37s-.32,8.68-.32,12.92c0,.29,0,.67,0,.67,1.29,1.43,6.31,5.65,8.26,8.15.17.26.35.58.54.83C1019.66,553.7,1022.52,551.79,1023,549Z" transform="translate(-615.16 -82)"/><path class="cls-1" d="M967.75,559.1c-.72-1.81-1.26-3.35-1.65-4.66l-.26.33c-.14,3.48-.56,15.8,0,27.34.33-11.94,1.24-23,1.24-23Z" transform="translate(-615.16 -82)"/><path class="cls-1" d="M978.33,546c-1.11,1.4-2.28,2.48-3.77,2.48a1.41,1.41,0,0,1-.5-.08,6.58,6.58,0,0,1-2.75-1c-.82,1.08-2,2.66-3.23,4.34a97.31,97.31,0,0,0,4.09,10.77,12.22,12.22,0,0,0,2.87,4.32,10.36,10.36,0,0,0,3.79-4.12c2-3.61,2.9-11.66,2.9-11.66C980.58,549.18,979.3,547.4,978.33,546Z" transform="translate(-615.16 -82)"/><path class="cls-1" d="M973.15,632.15a79.27,79.27,0,0,0,3.92,14.32c1,2.35,1.93,4.37,2.73,6,.18-1.16.51-3.51.86-6.73C979.29,643.47,975.66,637.42,973.15,632.15Z" transform="translate(-615.16 -82)"/><path class="cls-1" d="M975.67,609c-2-8.89-2.21-36-2.21-39.82l0-.06c-.2,4.43-.45,13.63-.2,20.16.22,8.87,2.35,23.89,2.43,24.07l-2.79.35s-2.15-15.26-2.47-24.31.32-22.89.32-22.89l.39-.2a18.63,18.63,0,0,1-1.49-2.63l-.08-.32c-.43,6.69-1.27,19.84-1.27,30.76,0,2.78.17,6.82.42,11.13,1.88,10.61,4.06,19.42,5.94,23.75A113,113,0,0,0,981,640.82c0-1.29.15-2.65.15-4.07,0-9-1.76-14-1.76-14l.38-.29A123.92,123.92,0,0,1,975.67,609Z" transform="translate(-615.16 -82)"/><path class="cls-1" d="M1036.05,547.19a2,2,0,0,0,.36-.88,33.19,33.19,0,0,1,1.18-7c.08-.21.08-.21.2-.28s-2.67-7-7.81-17.21c.11,3.73.15,7.93-.36,9.4a3.93,3.93,0,0,1-2.88,2.54,6.26,6.26,0,0,1-.74.21c-2.48,0-5.11-1.39-8.12-4a17.92,17.92,0,0,1-1.57-1.81l.75,2.11c.69,1.1,2.89,4.47,4.89,8.29,1.74,1.7,5.68,5.42,8.76,7C1034.45,547.4,1035.66,547.43,1036.05,547.19Z" transform="translate(-615.16 -82)"/><path class="cls-1" d="M1071.37,590.85a9.7,9.7,0,0,1-2.39,4.85l-.75.82-1-.6a30.85,30.85,0,0,0-5.81-2.57c-.34-.15-.78-.3-1.27-.46,1.35,2.17,2.52,4.46,2.62,4.54l1,2h-3.52c6.36,5.79,11.91,11.64,15.88,18.06l-1.55,8.45a.52.52,0,0,0-.24-.35c-.26.1-.46.66-.71,1.13,1,1.24,2.75,3.26,4.71,3.79,2.25.69,3.6-1.83,3.6-1.83l1.82-2.86a31.22,31.22,0,0,0-2.83-3.59l-3.43-3.91,4.92,1.64c.44.15,10,3.43,13.22,5.67a24.23,24.23,0,0,1,3.31,2.92,33.43,33.43,0,0,0-1.41-5.78c-1.21-3-6-10.85-6-10.85l0-.15A264.92,264.92,0,0,1,1071.37,590.85Z" transform="translate(-615.16 -82)"/><path class="cls-1" d="M1095.88,635.84a5.09,5.09,0,0,0,2.65-3.54,19.39,19.39,0,0,0-4.54-4.38,45.05,45.05,0,0,0-7.9-3.66c2.05,2.86,4.41,6.81,4.52,9.93a14.46,14.46,0,0,1-.13,3.78A17.39,17.39,0,0,0,1095.88,635.84Z" transform="translate(-615.16 -82)"/><path class="cls-1" d="M960.67,557.18a2.22,2.22,0,0,0,.82-.88c.33-.55,1-1.47,1.64-2.39v-.26h.11c2.17-3,4.91-6.71,6.16-8.28a24.82,24.82,0,0,1-2.06-5c-.22-.62-.44-1.39-.81-2.22a32,32,0,0,1-1.52-7c-1.38,2.56-2.57,4.66-2.57,4.66a16.87,16.87,0,0,1-4,3.27c-.11.27-1.31,4-2.17,6-.58,1.42-.77,5.68-.77,8h-.32a2.81,2.81,0,0,0,.23.46l.09-.12,4.59,3.31C960.24,556.94,960.56,557.07,960.67,557.18Z" transform="translate(-615.16 -82)"/><path class="cls-1" d="M868.6,638.92l-.78.15a1.23,1.23,0,0,0,.53.47A.8.8,0,0,0,868.6,638.92Z" transform="translate(-615.16 -82)"/><path class="cls-1" d="M940.42,563.81c.7-4.27,1.65-10.49,1.65-12.19,0-.66-.08-2-.12-3.61a55.34,55.34,0,0,1-6.54,6.42A2.25,2.25,0,0,1,934,555c-.25.75-1.26,3.76-2.32,6.71-1.22,3.28-3,9.22-3,9.22l-.55-.1c-.35,5.24.67,10.84,5.38,15.06a5.8,5.8,0,0,0,.4.71v-.19l.32.33c1.67-2.64.88-10,.64-12.46A26.79,26.79,0,0,1,936,571C937.6,568.72,939,566.29,940.42,563.81Z" transform="translate(-615.16 -82)"/><path class="cls-1" d="M866.49,631c-1,1.91-2,4-2,4.9a4,4,0,0,0,.64,1l3.35-.7v-.08C868.52,634.33,867.28,632.22,866.49,631Z" transform="translate(-615.16 -82)"/><path class="cls-1" d="M852.31,616c-2.68.75-6.66,3.94-8.76,5.68,1.12,2.19,2.82,4.82,3.82,5.39a11.84,11.84,0,0,0,4,1.3,14.67,14.67,0,0,1,.79-6c.46-1.25,2.23-4.68,3.78-7.57A26.14,26.14,0,0,1,852.31,616Z" transform="translate(-615.16 -82)"/><path class="cls-1" d="M861.63,626.19a18,18,0,0,1-7.55,1.73,9,9,0,0,0,1.88,5.81,14.5,14.5,0,0,0,5.95,3.06,4.64,4.64,0,0,0-.12-.47c-.32-2,1.17-4.7,3.25-8.4l.31-.65c.59-1,1.48-2.47,2.34-3.77C865.86,624.3,863.64,625.24,861.63,626.19Z" transform="translate(-615.16 -82)"/><path class="cls-1" d="M845,639.53a1.31,1.31,0,0,0,.8.37c2.68.57,7.14-.6,8.71-1.15l3.36-.58a13.86,13.86,0,0,1-3.91-2.59,11.87,11.87,0,0,1-1.3-2.17l-7.28,5C845.26,638.64,844.87,639.37,845,639.53Z" transform="translate(-615.16 -82)"/><path class="cls-1" d="M837.9,629.68a32.54,32.54,0,0,1,4.24-4.88l0,.16c-.74-1.34-1.39-2.6-1.6-3l-.3-.73a13.47,13.47,0,0,0-2,3.29c-2.73,2.27-4.62,4.34-4.31,6.17a4.78,4.78,0,0,0,1.87,2.84A41,41,0,0,1,837.9,629.68Z" transform="translate(-615.16 -82)"/><polygon class="cls-1" points="261.43 559.75 261.52 560.08 261.52 559.53 261.43 559.75"/><path class="cls-1" d="M875,644.18s-1-.07-1.49-.07c-4.93-.21-7.45-2.64-8.29-3.72a7.89,7.89,0,0,1-2-.49l-8,1.49a27.2,27.2,0,0,1-7.63,1.39,9.42,9.42,0,0,1-2.41-.2,4,4,0,0,1-1.72-.83,11.28,11.28,0,0,0,3.15,1.55,11.1,11.1,0,0,0,7.2,3.33,42.34,42.34,0,0,0,7.71-1.75c5.76,6.69,13.38,4.08,14.92-.91A6.51,6.51,0,0,1,875,644.18Z" transform="translate(-615.16 -82)"/><path class="cls-1" d="M842.32,640.39a4.59,4.59,0,0,1,1.22-3.93l7.6-5.38a18.2,18.2,0,0,1-5.1-1.63,8.85,8.85,0,0,1-2.34-2.33,19.17,19.17,0,0,0-5.41,7.91l-.26-.09a10,10,0,0,0,1.2.8,1,1,0,0,0,1.08.87h.18v.28a2.64,2.64,0,0,0-.63,1.22c-.09.64.63,1.11,1.41,1.35l.07.22a7.17,7.17,0,0,0,1.49,1.47A4.81,4.81,0,0,1,842.32,640.39Z" transform="translate(-615.16 -82)"/><path class="cls-1" d="M889.13,598.86c-.56-.48-1.07-1.62-.37-3.37a9,9,0,0,1,1.13-2,23.63,23.63,0,0,1-2.4.41c-.33.2-.88.45-.88.45-.87,0-1.2,0-1.56-.28-.59-.17-1.32-.91-1.56-2.41s-.34-2.88-.4-3.9c-7,8-14.24,16-22.09,23.48-1.57,2.78-5.56,10.17-6.26,12.09a10,10,0,0,0-.47,1.79,15.41,15.41,0,0,0,6.17-1.39c4.6-2.11,10.46-4.51,10.46-4.51l4.32-1.87-2.62,3.83s-3.39,4.81-4.86,7.47l-.32.54-.07.17.93-.66s3,4,3,7.44a9.66,9.66,0,0,0,.14,1.72,4.23,4.23,0,0,1-.48,2.74,7.78,7.78,0,0,0,2.71.79,8.7,8.7,0,0,0,2.85-.1l.16-.07c.37-.4.46-1.14.24-2.3a23.61,23.61,0,0,0,1.41-4,22.66,22.66,0,0,0-1.73-5.43l-2-10.92c4.2-6.69,10.15-12.82,16.81-18.82A3,3,0,0,1,889.13,598.86Z" transform="translate(-615.16 -82)"/><path class="cls-1" d="M821.1,596.83c-3-2.48-6.22-5.28-9.61-8.2-3.45-2.74-6.47-6.52-9.92-10-6.74-7.14-13.88-14.68-21.11-22.23-6.63-8.08-12.72-16.47-18.68-24.19q-4.53-5.79-8.6-11.14c-2.29-3.89-4.34-7.43-6.36-10.92-7.8-13.35-13-22.26-13-22.26l13.82,21.84c2,3.35,4.25,6.87,6.66,10.66,2.81,3.39,5.79,7.07,8.89,10.81,6.22,7.45,12.55,15.68,19.39,23.24,7.32,7.32,14.63,14.58,21.53,21.43,3.52,3.26,6.49,6.87,10.1,9.59s6.86,5.4,9.86,7.75l20.39,16.1L841,613.61,821.1,596.83Zm17.77,20.68a17.15,17.15,0,0,1,2.82,1.33,12.36,12.36,0,0,0-.93,1.61l.11-.12c.3-.25,6.43-5.61,10.66-6.92,1.41-.46,2.49-.87,3.49-1.24a5.77,5.77,0,0,0,.38-4.57c-.51-2.54-6.15-4.19-7.72.84-38-25.08-94.38-94.05-126.79-146.85,14.57,47.68,64,119.38,118.24,155.76Z" transform="translate(-615.16 -82)"/><path class="cls-1" d="M1022.73,569.57c.11.14.23.33.23.33s.24-.3.24-.3Z" transform="translate(-615.16 -82)"/><path class="cls-1" d="M1112,623.18c-1,2-3.68,7.07-6.8,8.72a7.12,7.12,0,0,1-3,.93,3.27,3.27,0,0,1-1-.22,7.87,7.87,0,0,1-3.9,5.54,25.52,25.52,0,0,1-8.56,3.06l-.07.46-11.58-2.13.46-2.67,9.64,1.77c.32-.28.82-1.45.7-4.28-.15-1.75-1.26-3.94-2.58-6.07l-1,1.61a6.23,6.23,0,0,1-5.22,3.5,8.77,8.77,0,0,1-1.5-.24,11.39,11.39,0,0,1-5.41-3.72,19,19,0,0,0-1,4.19,17.91,17.91,0,0,0,1.3,3.87c-1.69,2.14-3.11,4.58-5.22,6a82.52,82.52,0,0,1-15.63,8.23c-3.67,1.55,5.21,1.27,6.86,1.66,2.52.71,2.44,1.32,5,1.6,1.88-.28,5.79-5,12.75-10.31a3.84,3.84,0,0,0,1-1c.25.21.38.5.7.65a16.2,16.2,0,0,0,10.26-.86,35.37,35.37,0,0,0,8.64,2.1c5.89-.54,8.71-3.4,10.17-7.28a5.48,5.48,0,0,0-2.21-3c.4-.32.85-.53,1.27-.86,1,.39,2.12.86,3.65,1.34,4.28-1.94,6.74-3.94,6.86-6.07C1117.06,627.76,1115,625.49,1112,623.18Z" transform="translate(-615.16 -82)"/><path class="cls-1" d="M1057,597v-.25h2.24a24.89,24.89,0,0,0-2.73-4.09,23.26,23.26,0,0,0-3.66-3.43l1.47-2.32a55.61,55.61,0,0,0,7.94,3.85,23.91,23.91,0,0,1,5.28,2.22c.84-1.18,1.89-3.27.7-4.42l.5-.56c-.48-.52-.93-1.09-1.41-1.57a11.23,11.23,0,0,0,3.51-.28c2.75-.78,5.26-3,7.18-6.53a21.15,21.15,0,0,1-15.56-1.23,32.8,32.8,0,0,1-7.12-6.27,60.61,60.61,0,0,1-8.69-13.15v-.13c-.38-.57-.58-1.12-.94-1.74-2.63-4.39-4-9-6.08-13.54a27.84,27.84,0,0,0-.51,3.05,3.61,3.61,0,0,1-1.75,3.06,3.51,3.51,0,0,1-1.77.39c-1.56,0-3.56-.78-6.08-2.13a26.56,26.56,0,0,1-4.7-3.08,10.16,10.16,0,0,1,.92,4.48c-.62,4-4.23,6.51-5.64,7.3,1.32,2.49,2.39,4.8,2.46,5l2.21,7.36-.33.11c.36.32.76.6,1.14.92l.08.44a5.86,5.86,0,0,1-.29,1.63,4.22,4.22,0,0,0-.12,1.19c.33,4,1.27,5.83,3.49,5.81,2.24-.24,4.89,15.65,7.81,12.93a25.55,25.55,0,0,0,5.89,4.59,7.45,7.45,0,0,0,.61-2.07l.11-.45a10.79,10.79,0,0,0-.72-4.72C1046.92,594.06,1051.79,596.43,1057,597Z" transform="translate(-615.16 -82)"/><path class="cls-1" d="M1168.87,616.16h-.08l-8.77-2.64c-.63-.11-1.39-.29-2.11-.48l-1.14-.1a6.71,6.71,0,0,0-.89-.2l-4.14-1h-.1c-2.72-.35-5.24-.75-8-1.3-2-.42-3.75-.55-5.69-.82.34-.29.7-.39,1-.75a23.52,23.52,0,0,1,5.17,0c2.51.31,5.27.46,7.88.62h0l4.6.63c.48.12.5.11,1.25.32l1.08.29c.75.26,1.42.31,2.21.66l8.13,3.13h-.09c2.9.75,5.58,2.49,8.48,2.7-2.9.56-6-.46-8.78-1Zm-40.33-7.35c-1.54-.79-3-2.31-4.22-3l-2.43-1.56h.08c-2.13-1.18-4.13-2.66-6-3.93v0l-3-1.65-1.46-.84-1.16-.78a61.36,61.36,0,0,0-5.6-3.05h-.13l-4.22-1.82-.07,0a34.78,34.78,0,0,1-5-2.84h-.06a16.77,16.77,0,0,1-1.9-2.25,22.46,22.46,0,0,0,2.4,1.71l0-.05a44.8,44.8,0,0,1,5.26,2h0l4,1.3-.16-.06a29.7,29.7,0,0,1,6.42,2.61l.75.48.94.56,1.46.84,2.69,1.87,0,.06c1.88,1.47,3.61,3,5.64,4.34h.1l2,1.8,0,.08c1.65,1.38,2.31,2.93,3.69,4.07l0,.07Zm13.31-11.14c1.09-1.4,2.21-.09,3.05-.56l-3.52,1.12c.06-.2.31-.34.47-.56Zm2.86-2.18c-.2.19-2.2-.28-2.63-.28l2.63.28Zm.19-1.51-3.46-.49c.64-.14,3.46.61,3.46.49Zm-1.57-7.1-1.48,3.21c.47-1,.08-3.14,1.48-3.21Zm3,2.5c-.25-.32-1.46,0-2.17.26a2.62,2.62,0,0,0-1.61.85l3.78-1.11Zm0-1.78a15.56,15.56,0,0,0,5.06-5.57,3.58,3.58,0,0,1,.14-.9,16.37,16.37,0,0,0,.85-1.81l-.15,1.32a4.49,4.49,0,0,0,.6,0c2,0,4.1-.62,4.68-2.86a3.62,3.62,0,0,0,.21,1,5.6,5.6,0,0,0,3.52,2.86,11.65,11.65,0,0,1-1.57,1.57,3.36,3.36,0,0,0-2.1-2.11,4.94,4.94,0,0,0-4,.66,4.13,4.13,0,0,0-2.16,2.87,5.64,5.64,0,0,0,.22,2.94c-1,.34-2.11.52-3.14.9a.76.76,0,0,1-.17,0l-.08-.1a8.08,8.08,0,0,0-2-.82l.14,0Zm7-10.85a6.18,6.18,0,0,1-.36,1.19c.45,0,1.7,0,1.92-.8a1.59,1.59,0,0,0-.18-1.28,2,2,0,0,0-1.29-.76,5.27,5.27,0,0,1-.09,1.65Zm.3-6.1-.21-1.36c0,1,.08,2,.09,3a5.26,5.26,0,0,1,3.42,1.94,3.55,3.55,0,0,1,.64,2.35,3.12,3.12,0,0,1,.54-1.57,4,4,0,0,1,6.6-1.29l-1.85,1.94a2.27,2.27,0,0,0-1.14-.47h-.11c-.49.08-.9.68-1.12,1.11-.5,1-.34,1.42-.27,1.48a3.38,3.38,0,0,0,1.88,1.35l-.68,2.41a17.33,17.33,0,0,0,1.58-2.32c1.14-2.07,2-4.17,3.1-6.17.64-1.15.64-2.39,1-3.86l-.36,1.29a6.1,6.1,0,0,1-2.43-1.52,4.9,4.9,0,0,1-2,2.91,4.16,4.16,0,0,1-2,.57l-1-.15a5.16,5.16,0,0,1-3-2.86,13.63,13.63,0,0,1-2.7,1.23Zm3.73-5.66,1,.15a1.8,1.8,0,0,1,2-1.33h0a1.63,1.63,0,0,1,1.08.35,2.23,2.23,0,0,1,.37,1.3s.56,3-1.06,4.11a1.93,1.93,0,0,1-.56.14,2.56,2.56,0,0,1-1.48-1.63l-1.49.64a.35.35,0,0,1,.24-.12,3.2,3.2,0,0,0,.62-2.46c-.17-.68-.51-.77-.75-1.15Zm-3.25-4.51c-.08,1.63-.38,5.3-.56,7.32a3.62,3.62,0,0,0,1.74-.81c0-.7-.23-1.25-.83-1.13l-.38-2.72a4.38,4.38,0,0,1,2.16.43,4.28,4.28,0,0,1,4.11-2.54h0a4.18,4.18,0,0,1,3.13,1.26,4.1,4.1,0,0,1,.62,1.28,5.22,5.22,0,0,1,3.31-1.74l.07,1.36v1.34s-1.82.19-1.82,1.33,1.4,1.79,1.75,1.89a14.61,14.61,0,0,0,.46-4.61,45,45,0,0,1,0-4.79,3.83,3.83,0,0,1-3.08.19l-1.77.24a3.13,3.13,0,0,0-1.82,0,1.47,1.47,0,0,0-1.09.62,1.89,1.89,0,0,0-.06,1.25l-2.66.82a4.36,4.36,0,0,1,.29-3.37,4,4,0,0,1,2.89-2,4.81,4.81,0,0,1,3.57.37,4.34,4.34,0,0,1,.84-2.61,14.18,14.18,0,0,1-1.44.31,2.46,2.46,0,0,1-1.12-.2,3.75,3.75,0,0,1-1.54-1l-.14.43c-1.31,1.73-4.32,1.53-5.17,1.51l.24-2.76a3.27,3.27,0,0,0,2.65-.33.92.92,0,0,0-.08-.3,1.8,1.8,0,0,0-.85-1.07,2.81,2.81,0,0,0-1.19.11l-.34-.58a6.89,6.89,0,0,1-.28,2.17,24.46,24.46,0,0,0-.79,3,4.75,4.75,0,0,1,2.19,5.59l-1.31-.38-1.29-.45a4.66,4.66,0,0,0-.23-1.37c0,.64-.22,1.37-.22,1.82Zm2.13-12.55a14.45,14.45,0,0,1,.14-2.41c.72-.77,1.73-.93,1.86-1.79a3.27,3.27,0,0,0,.43,1.69,3.38,3.38,0,0,0,2.75,1.86l.37,0a2.71,2.71,0,0,0,2-1.84c.08.18.17.34.24.48a4,4,0,0,1,.54,1.05c-1.08.08-3.6.11-4.68,1.67v.08c-.56-.29-1-.62-1.42-.77a1.68,1.68,0,0,1-.49-.07,2.17,2.17,0,0,1-2.16.67l1-.67a2.9,2.9,0,0,0-.65.07Zm1.4-6.3c-.07.43.3.92.37,1.38a3,3,0,0,0-.37-.81,2.61,2.61,0,0,1,0-.57Zm1.28-2.07a3.45,3.45,0,0,0-1.28,1.83c.17-1,.64-2.22,1.28-1.83Zm1.92,1.08a1.36,1.36,0,0,1-.69,0l.54,1a.91.91,0,0,0-.38.57,2.15,2.15,0,0,0,.59,1.62,6.13,6.13,0,0,0,.42.58l.15-.42,1.81.49a35,35,0,0,0-2-3.34c-.15-.19-.22-.39-.48-.49Zm4.18,7c.91,1.92,1.62,4.11,2.31,5.94a10,10,0,0,1,.49,3.29l-1.5-3.68a2,2,0,0,0-.62.14l-1.25-2.06a1.57,1.57,0,0,1-1.17.14,1.64,1.64,0,0,1-.94-.91c-.07-.2-.12-.38-.12-.38a4.38,4.38,0,0,1,2.66-.46l.14-2Zm-6.52,36.65a5.56,5.56,0,0,0,.86-.75l-2.26.75a1.05,1.05,0,0,0-.52-.58,2.81,2.81,0,0,0-1.61.5,1.75,1.75,0,0,0-.94,1,2.83,2.83,0,0,0,.18,1.47,3.46,3.46,0,0,0,.5-.26c1.33-.68,2.64-1.55,3.79-2.13Zm-14,7a.36.36,0,0,0-.15-.27l6.49-.86c-1.28.16-4.49,1-6.34,1.13Zm-8.5-2.58c-.15-.79-.82-3.55.07-3.73l-.07,3.73ZM1180.54,616c-.87-.07-2.42-.85-3.69-1.09a12.09,12.09,0,0,1-2.88-1,10.32,10.32,0,0,1-3.06-1.37c-1.21-1.06-3-1.59-4.24-2.69-.74-.56-2.58-1.73-3.51-1.73a19.45,19.45,0,0,1-3.21-.29,12.8,12.8,0,0,0-3.88-.24,11.19,11.19,0,0,0-3.09-.29c-1,0-1.73-.11-2.91,0s-2.47.53-3.71.53a18.27,18.27,0,0,0-4,.29,8.05,8.05,0,0,1-2.6.32,15.89,15.89,0,0,0,4.52-5c1-2.66,3-5.34,2.32-8.27a9.2,9.2,0,0,1,.13-2.16c.76-.13,1.64-.46,2-.46,1.16-.12,5.4-1.92,6.48-2l-6.89,3.16a15,15,0,0,0,3.23.89,1.75,1.75,0,0,1,.59.11,21.59,21.59,0,0,0,7.35-.32,25.33,25.33,0,0,0,5.55-2c1.84-1.12,4-1.74,5.94-2.77,1.36-.64,3.68-1.8,4.46-3a47.43,47.43,0,0,1,3.88-5.42,13.71,13.71,0,0,0,2.3-5.1,18.19,18.19,0,0,1,.88-3.34,5.89,5.89,0,0,0,.72-3.16c-.11-1,.1-2.11-.11-3.35-.3-2-.07-4.35-.86-6.43a28.23,28.23,0,0,0-2.59-4.87c-2-2.43-4.22-4.81-6.09-7.16-2.11-2.85-4.71-5.78-4.71-5.78-.8-.74-1.8-.38-2.6-.93-.93-.79-3-1.39-4.38-2.11a6.09,6.09,0,0,1-1.17-.45c-1.56-.75-2.75-1.81-4.93-2a20.68,20.68,0,0,0-6.49.19c-1.43.58-3.08.62-4.51,1.41-1.16.57-2.4.95-3.73,1.57-2.12,1.13-4.19,2.32-6.21,3.41a31.25,31.25,0,0,0-6.09,4c-2.14,1.8-3,5-4.54,7.21-1,1.49-1.43,3.63-2.5,5.13-.71,1.08-.54,2-1,3.17a8.21,8.21,0,0,0,0,4.26,14.15,14.15,0,0,1,1.41,4.35c.23,1.76,1.11,2.79,1.75,4.33a24.27,24.27,0,0,0,2.67,5c.76.81,1.29,2.15,2.09,3.2a16.21,16.21,0,0,0,2.67,2.41l0,0-2.06-4.82c-.28,0,3.65,3.14,4,5.82a4.66,4.66,0,0,0,2.09,1.58c1,.35,2.15.6,3.19,1,.17-2.56.87-3.87,1.53-3.59l-.82,3.75.32.18c.63.26,1.36.64,2,1a15.63,15.63,0,0,0-.54,2.57c0,8.63-2.64,9-8.56,13.31-1,.53-2.19,1-3.27,1.55-.77-.85-1.75-1.87-2.36-2.4a14.68,14.68,0,0,1-2-2.25,17,17,0,0,0-2.26-2.76,33.41,33.41,0,0,1-2.19-2.65,15.45,15.45,0,0,0-2-2,9.76,9.76,0,0,0-2.27-1.9,24.29,24.29,0,0,0-3-2.36,13.21,13.21,0,0,1-2.43-1.85,8.81,8.81,0,0,0-3.79-1.1c-1.71-.16-3.43-.94-5.17-.94a10.52,10.52,0,0,1-3.17-.85,9.73,9.73,0,0,1-2.86-1.32c-1-.61-2.54-1-3.44-1.43a12.06,12.06,0,0,0-2.71-1.7,3.58,3.58,0,0,1-.75-.17,3.54,3.54,0,0,0,.24,2.39c.44.9.62,1.68,1.11,2.5.62,1,1.33,1.94,1.86,2.89a9.8,9.8,0,0,0,1.82,1.88,20.3,20.3,0,0,0,2.46,2,10.29,10.29,0,0,1,2.65,2.61,5.41,5.41,0,0,0,1.74,1.28c.91.47,1.44,1.24,2.62,1.7a48.86,48.86,0,0,0,4.64,2.08,27.46,27.46,0,0,0,4.09.68h.28c1.51.09,2.65.25,3.91.41a6.18,6.18,0,0,1,2.58,1.19c.19,0,.23.08.23.08,1.43.53,2.43,1,3.53,1.52a14.49,14.49,0,0,1,2.27,1.15,11.83,11.83,0,0,1,2.23,2.1h.43a19.55,19.55,0,0,1-7,1.85c-3.07.08-5.27-.38-8.21.21-2.36.13-4.53.13-5.91,2.16a28,28,0,0,0-3.13,4.15,44.75,44.75,0,0,0-7-3.28,75.6,75.6,0,0,1,3.83,7.34,39.4,39.4,0,0,1,2,8.5c.18-.23.64,0,1.87-.69,2.34-1.25,4.91-5.79,6-8-.25-.12-.41-.27-.56-.34,1.53-1.71,4-2.18,6.25-2.62,2.84-.91,6.47-1.49,8.39-3.3a61.19,61.19,0,0,0,12.63-4.69,24.09,24.09,0,0,1,3.18,0,23.26,23.26,0,0,1,2.52.68c1.16.43,2.27.69,3.53,1.21a1.13,1.13,0,0,0,.45.11,7.75,7.75,0,0,1,2.7.93c1,.76,1.93,1.4,2.87,2.26l.36.23a28.67,28.67,0,0,0,3.39,2,44.92,44.92,0,0,0,5,1.7c1,.28,1.93.23,3.11.55a8.28,8.28,0,0,0,2.19.13c1.09,0,2.8-.4,3.9-.09a15,15,0,0,0,3.42.29,11.71,11.71,0,0,0,2.71-.13c1.19-.37,2.51-.47,3.54-.75s2-.75,2.89-1a11.4,11.4,0,0,0,2-1.16c-.24-.54-.3-.54-.57-.67C1182.82,616.6,1181.63,616.37,1180.54,616Z" transform="translate(-615.16 -82)"/><path class="cls-1" d="M943.17,664.25a87.52,87.52,0,0,0,10.47-15.75l-.5-.19s5.22-12.65,7-17.77,5.71-21.16,5.75-21.31l.19.07c-.08-1.28-.12-2.42-.19-3.6-.68-3.68-1.29-7.64-1.88-11.63-.08-.58-.11-1.18-.19-1.83-1.11,6.19-2.64,14.21-3.18,17.28-.89,5.07-3.88,16.21-4,16.66l-2.74-.69s2.28-8.44,3.47-14c-.47,1.46-.95,3-1.41,4.27-3.14,9.11-8.95,20.42-11.24,24.78-.21,4-.68,10-1.86,11.27a17,17,0,0,1-1.49,1.62h2.4s-.53,7.58-.53,9.14Z" transform="translate(-615.16 -82)"/><path class="cls-1" d="M926.22,570.23H926c0-.22,1.83-6.08,3-9.45,1-2.53,1.88-5.34,2.23-6.34a8.26,8.26,0,0,1-1.28-1.75l-3.26-6a13.92,13.92,0,0,1-5.88,1.66,4.94,4.94,0,0,1-2-.36,8.66,8.66,0,0,1-3.81-4,2.26,2.26,0,0,0-.22.47c-2.91,4.73-6.94,8.48-9.42,12.65-.26.6-.66,1.15-.87,1.7l0,.15a59.46,59.46,0,0,1-8.67,13.16,38.61,38.61,0,0,1-7,6.25A21.61,21.61,0,0,1,873,579.6c2,3.51,4.45,5.78,7.27,6.53a9.5,9.5,0,0,0,4.1.13l1.36,0s.19,2.73.49,5.08v.17h0l.4-.15a33.49,33.49,0,0,0,5.81-1.44,21.11,21.11,0,0,0,4.23-3.38l1.88,2.08c-.32.2-1.18,1.07-2.11,1.75l.08.15s-3.92,2.56-5.26,6a2.52,2.52,0,0,0-.14.68,8,8,0,0,0,3.05-.39l.06.39c5.14-.61,10-3.07,14.42-7.75a9.21,9.21,0,0,0-.67,4.72v.35a5.3,5.3,0,0,0,.67,2.15,29.05,29.05,0,0,0,5.89-4.58c2.82,2.73,5.49-13.16,7.75-12.92,2.18,0,3.35-1.86,3.41-5.82v-.77c-.06-.83-.2-1.26-.23-1.63C925.74,570.65,926,570.48,926.22,570.23Z" transform="translate(-615.16 -82)"/><path class="cls-1" d="M941.27,641.22c.12-.17,8.27-15.2,12.14-26.34s9.38-33.21,9.38-33.21l.17-.21c-.17-4.64-.23-9.29-.17-13.45-1.23,5.64-2.76,12.06-4.27,16.91-3.34,10.42-11.54,34.45-11.6,34.77l-2.61-.93s8.25-24.21,11.54-34.68c2.35-7.44,4.76-18.87,5.95-24.88-.38.12-.61.66-1,.66h-.11a3.46,3.46,0,0,1-2.62-1.25l-2.43-1.68-4,16.76c-4,18.72-20.73,34.43-21.19,54.57a13.54,13.54,0,0,0,3.14,1.1s-2.06,13.28-3.93,14.9c-1.41,1.31-1.64,1.5-1.64,1.5l2.43.59s-1.48,7.6-1.72,9.3l-.25,1.63a92.45,92.45,0,0,0,13.08-15.89Z" transform="translate(-615.16 -82)"/><path class="cls-1" d="M955.15,670.35a86.74,86.74,0,0,0,5.7-8.53c-.29-2.23,1.77-9.18,2.69-11.14a20.29,20.29,0,0,1,4.86-6.42c-.32-4-.65-8.45-1-13.5-.24,1-.45,2-.63,2.74l-2.71-.71c.91-3.27,2.43-11.32,2.43-11.32h.28c0-1.24-.17-2.32-.18-3.56-1.27,4.89-2.83,10.78-3.86,13.48-1.77,5.08-6.58,16.86-7,17.77-.16,3.71-.48,7.67-1.33,8.82a21.88,21.88,0,0,0-1.57,1.76l2.46-.25s-.19,7.54-.19,9.17Z" transform="translate(-615.16 -82)"/><path class="cls-1" d="M1022.06,569.78l-2.11-7.24a39.16,39.16,0,0,0-4.07-7.4,55.56,55.56,0,0,0-6-5.88c.05,3.56.19,7,.19,7l1.54,8.69-.43,0c1.3,2.18,2.52,4.4,3.95,6.4a20.68,20.68,0,0,1,.71,2c-.14,1.73-1.2,10.15.55,13,.37-.3.53-.7.89-1v1.17a20.12,20.12,0,0,0,2.34-3.62,1.2,1.2,0,0,1,.29-.52l.11-.19c2.47-3.91,2.82-8.42,2.4-12.63Z" transform="translate(-615.16 -82)"/><path class="cls-1" d="M1001.39,650.36c-1.07-1.3-1.6-6.38-1.8-10.37l-6.87-14-.31,6.27a72.84,72.84,0,0,0,0,9.11l-2.73.28a78.43,78.43,0,0,1,0-9.57l.62-11.72c-1.55-3.9-4.46-11.65-6.92-18.56.09.73.09,1.19.17,1.5.32,2.13,1.25,7.56,1.25,7.56l-2.71.35s-.94-5.38-1.25-7.51-2.17-17.23-2.17-17.23l.52-.08c-.67-5.28-1.42-13.45-1.82-17.84a10,10,0,0,1-1.13.72c0,4,.2,30.62,2.17,39,2,9.24,7.74,23.88,7.82,24l-2.5.94c.07,1.15.14,2.15.14,3.46a80.78,80.78,0,0,1-.4,8.38l.26.23-.26.25a76.62,76.62,0,0,1-1.16,8.37l-2-.46a49.15,49.15,0,0,0,3,5.35l-2.23,1.64c-.08-.14-2.54-3.56-6.54-13a87.64,87.64,0,0,1-4.26-15.56c.86,12.63,1.73,23.27,1.73,23.27l-2.79.36s-.22-3-.54-7.6a16.48,16.48,0,0,0-2.56,3.81,42,42,0,0,0-2.65,9.54c4.42,10.52,9.81,20.12,10.21,23.68,0,0,6.16-8.12,10.45-23.43a60,60,0,0,0,5,7.22v-1.66c0-1.65-.26-9-.26-9l2.43.09s-.31-.39-1.32-1.78c-1.38-1.72-1.57-10-1.57-13.41,6.26,12.89,12.53,19.74,12.53,19.74s.08,0,0-1.65-.54-9.08-.54-9.08h2.47A14.77,14.77,0,0,1,1001.39,650.36Z" transform="translate(-615.16 -82)"/><path class="cls-1" d="M1014.54,642.78c-1.91-1.76-3.76-15-3.76-15a10.76,10.76,0,0,0,3.11-1.16c-.64-20-17.41-35.77-21.31-54.5l-2.82-11.76-.59.41c-.34-.41-3.56-4.76-5.12-6.74-.17,1.18-.47,2.6-.79,4.08h.32s2.26,26.58,11.18,47c9,20.55,12.14,26.73,12.14,26.73l-2.44,1.29s-3.18-6.29-12.28-27c-6.7-15.21-9.63-33.62-10.78-42.47l-.06.28a22.41,22.41,0,0,1-1.37,2c.23,2.63,1.56,18.54,2.34,23.45,1,5.25,11.45,32.39,11.52,32.7l8.29,16.88c7.31,11.12,13.63,16.76,13.63,16.76l-.15-1.6c-.45-1.76-1.71-9.41-1.71-9.41l2.33-.54S1015.9,643.9,1014.54,642.78Z" transform="translate(-615.16 -82)"/><path class="cls-1" d="M933.1,552.56a1.51,1.51,0,0,0,.66-.25,99.73,99.73,0,0,0,8-8.16c-.19-3.52-.41-7.07-.53-9a4.45,4.45,0,0,1-1.92-1.68,43.18,43.18,0,0,1-4,5.16,79.19,79.19,0,0,1-6.33,6.49l3.43,6.33C932.65,552.22,933,552.54,933.1,552.56Z" transform="translate(-615.16 -82)"/><path class="cls-1" d="M926.55,543.74a89.28,89.28,0,0,0,6.7-6.93c3.71-4.24,4.59-6.29,4.59-6.29l.38.15a43.74,43.74,0,0,1-1.16-7.9,48.65,48.65,0,0,1-10.84,10.92,4.09,4.09,0,0,1-2.16.69l-1.19-.18a6.32,6.32,0,0,1-2.75-2.32.8.8,0,0,1-.14.24c-2,2.53-2.71,5.41-3.54,8.25.4,1.11,1.74,4.39,3.44,5.1S925.05,544.62,926.55,543.74Z" transform="translate(-615.16 -82)"/><path class="cls-1" d="M952.87,553.11h-.12c0-.64,0-6.7,1-9,.52-1.31,1.13-3.18,1.58-4.49a3.34,3.34,0,0,1-1.72-.52c-2-1.36-3-5.43-3.49-8.7a21.25,21.25,0,0,1-3.39,3.49,8.56,8.56,0,0,1-2.81,1.27c.28,3.86.86,14.08.86,16.41,0,2.85-2.06,15.09-2.15,15.62h-.15a3.64,3.64,0,0,0,.28,1.37A30,30,0,0,0,952.87,553.11Z" transform="translate(-615.16 -82)"/><path class="cls-1" d="M1178.42,540.26a6.84,6.84,0,0,1-1.29,1.33,19,19,0,0,0-2.19.15,6.29,6.29,0,0,1-1.29-.35,3.12,3.12,0,0,1,.52-1.13,13.86,13.86,0,0,1,1.82-1.6,15.84,15.84,0,0,1,2.84,0,1.85,1.85,0,0,1,.81.65,11.93,11.93,0,0,0-1.22,1Zm-8.39-5.61a5,5,0,0,0-1.55,1.53c-.47.3-1.27.49-1.35,1.13l-1,1a3.19,3.19,0,0,1-.75-1.35c-.29-.78.31-2.18,1.08-3.21a4.77,4.77,0,0,1,4.15-.4,2.46,2.46,0,0,1-.63,1.3Zm19.68,2.5c-1.37-1.41-4-1.82-6.11-2-2.34,0-3.54-.54-3.86-1.25-1.38-1.72-1.47-4.59-3-7-1.23-2-2.43-2.61-4-4.19s-4.51.09-6.76.75c-1.82.58-3.59,1.78-5.32,2.2-2.8.69-3.67-2.45-5.23-4a22.82,22.82,0,0,0-4.94-4c-1.61-1-3.91-.74-5.48-.9-2.11-.15-5.88-.83-4.32,1.47a28.15,28.15,0,0,0,5.43,5.53c2.21,1.38,3.45,4.08,4.05,6,.59,1.64,0,3.79.48,5.23.11.2,1.95-1.05,4.29-.31-.39-.4.08,0,.32-.67a20.51,20.51,0,0,1,.08-3.21l.34,0a25.08,25.08,0,0,1,2,2.62c1.46.85,1.53,2.1,1.26,2.53,2.54.79,3.79,1.86,5,2.13,1.5.48,5.33,1.53,6.36,2.53.87.69,4,4.83,4.83,5,1.5.46,4.69-2.62,6-3,1,1.08,3.25-.52,4.78-.66,2.87-.35,4,.25,6.37.14C1195.27,542,1190.25,537.74,1189.71,537.15Z" transform="translate(-615.16 -82)"/><path class="cls-1" d="M1301,403.91l4.06-2.13c1.13-.6,2.58-1.28,3.74-1.88-1.28,0-2.93,0-4.12-.13l-4.59-.35.91,4.49Zm-4.56-4.44-5.56-.41-.93-4.69,21.73,2,1.23,6-19.22,10.38-1-4.93,4.89-2.57Z" transform="translate(-615.16 -82)"/></svg>