<svg id="Capa_1" data-name="Capa 1" xmlns="http://www.w3.org/2000/svg" xmlns:xlink="http://www.w3.org/1999/xlink" viewBox="0 0 1007.01 966"><defs><style>.cls-1,.cls-2,.cls-3,.cls-4{fill-rule:evenodd;}.cls-1{fill:url(#GradientFill_3);}.cls-2{fill:url(#GradientFill_3-2);}.cls-3{fill:url(#GradientFill_3-3);}.cls-4{fill:url(#GradientFill_3-4);}</style><linearGradient id="GradientFill_3" x1="408" y1="562.48" x2="809.86" y2="562.48" gradientUnits="userSpaceOnUse"><stop offset="0" stop-color="#41c0f0"/><stop offset="1" stop-color="#1b5892"/></linearGradient><linearGradient id="GradientFill_3-2" x1="1014.72" y1="559.89" x2="1415.01" y2="559.89" xlink:href="#GradientFill_3"/><linearGradient id="GradientFill_3-3" x1="833.03" y1="676.1" x2="990.58" y2="676.1" xlink:href="#GradientFill_3"/><linearGradient id="GradientFill_3-4" x1="436.8" y1="183.97" x2="1383.37" y2="183.97" xlink:href="#GradientFill_3"/></defs><title>Bibliotecas</title><path class="cls-1" d="M808.91,1003.47c-43.6-21.45-85.56-41.61-127.08-62.6-86.54-43.73-172.78-88-259.36-131.7-9.53-4.79-14.19-9.8-14.19-21.43q.29-326.29-.28-652.57c0-4.09.57-8.15,1-13.68,5.39,2.09,9.9,3.39,14,5.46q185.19,93.28,370.44,186.57c9.47,4.75,14.67,9.87,14.68,21.53q.52,329.86,1.76,659.7C809.87,996.54,809.5,998.31,808.91,1003.47Z" transform="translate(-408 -57)"/><path class="cls-2" d="M1415,117.56c0,18,0,32.73,0,47.5q-.23,302.22-.25,604.44c0,11.14-2.14,18.28-13.07,24.18q-185,100-369.42,201c-4.56,2.5-9.45,4.35-16.6,7.59,0-8.27,0-14.11,0-20q-.28-320.19-.94-640.4c-.05-16.11,5-24.33,19.42-31.6C1154,250,1273.4,188.82,1393,128,1399.16,124.79,1405.57,122,1415,117.56Z" transform="translate(-408 -57)"/><path class="cls-3" d="M833.55,329.2c51.71,14,103,14.46,156.29.42,0,6.2,0,12,0,17.72.11,214,0,428.06.75,642.09.08,19.05-6.05,26.63-24.47,29.11-37.66,5.06-75,7.18-112.48-1.11-13-2.86-20-9.14-19.47-23,.33-8.37-.6-16.78-.61-25.16q-.31-314.75-.53-629.5C833,336.18,833.37,332.63,833.55,329.2Z" transform="translate(-408 -57)"/><path class="cls-4" d="M436.8,104.13,448.68,80l380.68,198.9c1.07-1.74,2.13-3.48,3.21-5.22L526.42,81.15l14.51-22.9c38.44,24.1,75.85,47.53,113.26,71,68.06,42.6,135.88,85.54,204.4,127.35,9.91,6,23.06,7.39,35,9.43,40.62,7,73.12-10.55,106.09-32.2C1084.26,178.22,1170.45,125.07,1256,71c7-4.45,14.26-8.65,23.11-14,4.83,7.16,9.27,13.76,14.79,22L986.8,273.53c1,1.71,1.92,3.42,2.88,5.13L1370.4,78.18c4.43,8,8.07,14.58,13,23.45L988.17,310.94c-50.39-24.06-99.33-27.11-149-2-3.45,1.74-9.25,2.15-12.53.45C697.34,241.57,568.16,173.39,436.8,104.13Z" transform="translate(-408 -57)"/></svg>