<svg id="Capa_1" data-name="Capa 1" xmlns="http://www.w3.org/2000/svg" xmlns:xlink="http://www.w3.org/1999/xlink" viewBox="0 0 972.27 930"><defs><style>.cls-1{fill:url(#GradientFill_4);}.cls-2,.cls-5,.cls-7{fill-rule:evenodd;}.cls-2{fill:url(#GradientFill_4-2);}.cls-3{fill:url(#GradientFill_4-3);}.cls-4{fill:url(#GradientFill_4-4);}.cls-5{fill:url(#GradientFill_4-5);}.cls-6{fill:url(#GradientFill_4-6);}.cls-7{fill:url(#GradientFill_4-7);}.cls-8{fill:url(#GradientFill_4-8);}.cls-9{fill:url(#GradientFill_4-9);}</style><linearGradient id="GradientFill_4" y1="686.93" x2="295.92" y2="686.93" gradientUnits="userSpaceOnUse"><stop offset="0" stop-color="#d9b300"/><stop offset="1" stop-color="#f49406"/></linearGradient><linearGradient id="GradientFill_4-2" x1="246" y1="234.52" x2="541.9" y2="234.52" xlink:href="#GradientFill_4"/><linearGradient id="GradientFill_4-3" y1="380.45" x2="295.92" y2="380.45" xlink:href="#GradientFill_4"/><linearGradient id="GradientFill_4-4" x1="676.35" y1="824.32" x2="972.27" y2="824.32" xlink:href="#GradientFill_4"/><linearGradient id="GradientFill_4-5" x1="922.35" y1="371.9" x2="1218.27" y2="371.9" xlink:href="#GradientFill_4"/><linearGradient id="GradientFill_4-6" x1="676.35" y1="655.21" x2="972.27" y2="655.21" xlink:href="#GradientFill_4"/><linearGradient id="GradientFill_4-7" x1="584.19" y1="297.93" x2="880.09" y2="297.93" xlink:href="#GradientFill_4"/><linearGradient id="GradientFill_4-8" x1="338.17" y1="750.34" x2="634.09" y2="750.34" xlink:href="#GradientFill_4"/><linearGradient id="GradientFill_4-9" x1="338.17" y1="507.27" x2="634.09" y2="507.27" xlink:href="#GradientFill_4"/></defs><title>Icono Amrillo1</title><rect class="cls-1" y="443.86" width="295.92" height="486.14"/><path class="cls-2" d="M541.9,76S499.64,97.13,394,97.13,246,76,246,76V393H541.9Z" transform="translate(-246 -76)"/><rect class="cls-3" y="359.33" width="295.92" height="42.25"/><rect class="cls-4" x="676.35" y="718.64" width="295.92" height="211.36"/><path class="cls-5" d="M1218.27,76s-42.29,21.13-148,21.13S922.35,76,922.35,76V667.8h295.92Z" transform="translate(-246 -76)"/><rect class="cls-6" x="676.35" y="634.07" width="295.92" height="42.29"/><path class="cls-7" d="M880.09,76s-31,15.35-105.69,19.86V393l-42.26-42.28L689.87,393V95.86C615.13,91.35,584.19,76,584.19,76V519.86h295.9Z" transform="translate(-246 -76)"/><rect class="cls-8" x="338.17" y="570.69" width="295.92" height="359.31"/><rect class="cls-9" x="338.17" y="486.13" width="295.92" height="42.27"/></svg>