<svg id="Capa_1" data-name="Capa 1" xmlns="http://www.w3.org/2000/svg" xmlns:xlink="http://www.w3.org/1999/xlink" viewBox="0 0 1222.99 1011"><defs><style>.cls-1,.cls-2,.cls-3,.cls-4{fill-rule:evenodd;}.cls-1{fill:url(#GradientFill_4);}.cls-2{fill:url(#GradientFill_4-2);}.cls-3{fill:url(#GradientFill_4-3);}.cls-4{fill:url(#GradientFill_4-4);}</style><linearGradient id="GradientFill_4" x1="500.01" y1="563.04" x2="988.06" y2="563.04" gradientUnits="userSpaceOnUse"><stop offset="0" stop-color="#d9b300"/><stop offset="1" stop-color="#f49406"/></linearGradient><linearGradient id="GradientFill_4-2" x1="1236.85" y1="560.32" x2="1722.95" y2="560.32" xlink:href="#GradientFill_4"/><linearGradient id="GradientFill_4-3" x1="1016.2" y1="681.94" x2="1207.53" y2="681.94" xlink:href="#GradientFill_4"/><linearGradient id="GradientFill_4-4" x1="534.97" y1="166.89" x2="1684.57" y2="166.89" xlink:href="#GradientFill_4"/></defs><title>Icono Amrillo2</title><path class="cls-1" d="M986.9,1024.56C933.94,1002.12,883,981,832.56,959c-105.09-45.76-209.84-92.12-315-137.82-11.58-5-17.23-10.28-17.23-22.44q.36-341.49-.33-683c0-4.27.69-8.52,1.19-14.31,6.54,2.17,12,3.54,17,5.71q224.94,97.64,449.88,195.26c11.51,5,17.82,10.32,17.86,22.53q.62,345.21,2.13,690.42C988.06,1017.3,987.61,1019.16,986.9,1024.56Z" transform="translate(-500.01 -34)"/><path class="cls-2" d="M1723,97.38c0,18.81,0,34.26,0,49.72q-.27,316.31-.31,632.6c0,11.65-2.61,19.13-15.88,25.31q-224.65,104.61-448.64,210.31c-5.53,2.6-11.49,4.55-20.17,7.95,0-8.67,0-14.77,0-20.89q-.33-335.1-1.13-670.22c-.08-16.86,6-25.46,23.57-33.08C1406,236,1551,172,1696.2,108.27,1703.74,105,1711.52,102,1723,97.38Z" transform="translate(-500.01 -34)"/><path class="cls-3" d="M1016.82,318.88c62.81,14.63,125.06,15.14,189.82.44,0,6.49,0,12.52,0,18.54.13,224,0,448,.91,672,.09,19.94-7.36,27.88-29.73,30.48-45.75,5.29-91.08,7.51-136.62-1.17-15.74-3-24.29-9.56-23.62-24.12.41-8.75-.72-17.56-.74-26.32q-.39-329.4-.64-658.82C1016.18,326.19,1016.6,322.48,1016.82,318.88Z" transform="translate(-500.01 -34)"/><path class="cls-4" d="M535,83.33c4.82-8.42,8.88-15.54,14.44-25.29,155.12,69.85,308.74,139,462.32,208.16,1.31-1.8,2.61-3.64,3.9-5.46C892.3,193.93,769,127.11,643.82,59.29c5.93-8.07,11.16-15.17,17.62-24,46.7,25.21,92.12,49.74,137.57,74.25,82.63,44.59,165,89.53,248.23,133.3,12,6.31,28,7.73,42.45,9.87C1139,260,1178.5,241.69,1218.55,219,1321.29,160.87,1426,105.26,1529.93,48.66c8.55-4.66,17.3-9,28.06-14.66,5.87,7.5,11.27,14.41,18,23l-373,203.63c1.16,1.79,2.33,3.56,3.5,5.35l462.39-209.8,15.74,24.53-480,219.08c-61.2-25.19-120.65-28.39-180.91-2.06-4.2,1.82-11.24,2.25-15.21.46C851.4,227.17,694.52,155.83,535,83.33Z" transform="translate(-500.01 -34)"/></svg>