<svg id="Capa_1" data-name="Capa 1" xmlns="http://www.w3.org/2000/svg" xmlns:xlink="http://www.w3.org/1999/xlink" viewBox="0 0 1010.44 835.97"><defs><style>.cls-1,.cls-2{fill-rule:evenodd;}.cls-1{fill:url(#GradientFill_3);}.cls-2{fill:url(#GradientFill_3-2);}</style><linearGradient id="GradientFill_3" x1="643.23" y1="618.81" x2="1486" y2="618.81" gradientUnits="userSpaceOnUse"><stop offset="0" stop-color="#41c0f0"/><stop offset="1" stop-color="#1b5892"/></linearGradient><linearGradient id="GradientFill_3-2" x1="475.56" y1="350.64" x2="831.95" y2="350.64" xlink:href="#GradientFill_3"/></defs><title>Notas</title><path class="cls-1" d="M1485.86,318.28Q1473.92,474.87,1462,631.46c-5.18,68.66-9.84,137.39-15.34,206-2.54,31.66-18,57.25-41.36,78.13-62.55,56-173.67,56.73-237.73,2.33-66.18-56.18-59-147.43,17.48-193.72,60.16-36.43,123.45-37.22,187.05-7.2,2.18,1,4.33,2.16,6.52,3.18,16.85,7.94,24.65,3.46,26.39-15.47,1.82-20,3.4-40.12,5.08-60.17,4.71-55.78,9.26-111.55,14.18-167.32,2.7-30.41,0-32.73-30.23-29.32-78,8.8-156.1,16.95-234.15,25.39-49.24,5.33-98.43,10.91-147.71,15.85-11.54,1.16-16.12,6.89-17,17.71q-8.61,106-17.47,211.89c-3.35,40.91-5.53,82-10.14,122.77-3.77,33.3-22.38,59.05-48.27,79.51-62.94,49.72-163.13,49.74-226.33.27-66-51.65-66.55-136.11-.51-187.67,36-28.13,77.82-39.13,123.37-36.86,32.47,1.63,62.25,11.39,90.35,27.4,16.92,9.63,24.65,5.73,26.42-13.64,5.6-61.35,10.72-122.74,16-184.13,5.07-59.37,9.89-118.77,15.14-178.13,1.81-20.46,10.48-28,30.88-29.77q163.68-14,327.37-28.3,63.78-5.49,127.61-10.62c28.59-2.3,38,7.29,36.2,36.28-.06.79-.1,1.61-.14,2.4Z" transform="translate(-475.56 -122.39)"/><path class="cls-2" d="M807.6,408.53c-1.67-17.69-2.18-33.6-4.81-49.13-5.16-30.55-17-57.71-43-76.95-13.15-9.74-27.92-15.11-45.06-18.29-1.51,14-3,27.67-4.38,41.31Q701.72,392.22,693.22,479c-1.14,11.68-1.77,23.42-2.79,35.11-2.51,29.45-20.55,46.7-46.31,57-47.93,19.14-115.62,1.63-149-38-36.83-43.69-19.83-96.82,35.95-111.25,41.87-10.83,80.72-2.58,116.56,20.81,12.77,8.34,17.49,6.59,19.11-8.55q15.53-143.25,31-286.55A64.28,64.28,0,0,1,700,135.14c2.68-8.48,9-12.67,17.71-12.75s15.61,4.16,17.74,12.66c9.82,39.15,32.07,71.17,57.69,101.15C812,258.34,827.57,281.91,831,311.69,835,346.27,825.82,377.56,807.6,408.53Z" transform="translate(-475.56 -122.39)"/></svg>