<svg id="Capa_1" data-name="Capa 1" xmlns="http://www.w3.org/2000/svg" xmlns:xlink="http://www.w3.org/1999/xlink" viewBox="0 0 1125.29 931"><defs><style>.cls-1,.cls-2{fill-rule:evenodd;}.cls-1{fill:url(#GradientFill_6);}.cls-2{fill:url(#GradientFill_6-2);}</style><linearGradient id="GradientFill_6" x1="613.32" y1="618.85" x2="1551.89" y2="618.85" gradientUnits="userSpaceOnUse"><stop offset="0" stop-color="#f9b000"/><stop offset="1" stop-color="#f49406"/></linearGradient><linearGradient id="GradientFill_6-2" x1="426.6" y1="320.2" x2="823.5" y2="320.2" xlink:href="#GradientFill_6"/></defs><title>Icono Amrillo5</title><path class="cls-1" d="M1551.74,284.16q-13.29,174.38-26.55,348.77c-5.76,76.48-11,153-17.07,229.45-2.84,35.24-20.11,63.74-46.07,87-69.65,62.43-193.4,63.2-264.76,2.61-73.7-62.56-65.67-164.18,19.47-215.74,67-40.58,137.5-41.44,208.32-8,2.43,1.15,4.82,2.4,7.25,3.55,18.76,8.84,27.47,3.85,29.39-17.22,2-22.32,3.79-44.69,5.68-67,5.23-62.12,10.3-124.23,15.78-186.33,3-33.86,0-36.45-33.66-32.65-86.88,9.79-173.85,18.87-260.78,28.26-54.83,5.94-109.61,12.16-164.49,17.66-12.86,1.28-18,7.68-19,19.72q-9.56,118-19.45,236c-3.72,45.57-6.15,91.32-11.29,136.72-4.19,37.09-24.91,65.77-53.75,88.55-70.09,55.37-181.67,55.41-252.06.3-73.48-57.52-74.11-151.58-.56-209,40.13-31.35,86.66-43.59,137.39-41.07,36.16,1.82,69.32,12.69,100.62,30.53,18.84,10.71,27.45,6.37,29.42-15.21,6.23-68.33,11.94-136.68,17.77-205,5.66-66.11,11-132.27,16.86-198.38,2-22.8,11.7-31.21,34.41-33.17q182.27-15.6,364.57-31.51,71-6.09,142.12-11.83c31.83-2.54,42.34,8.14,40.31,40.42-.06.89-.12,1.79-.17,2.67Z" transform="translate(-426.6 -66)"/><path class="cls-2" d="M796.38,384.66C794.53,365,793.94,347.27,791,330c-5.75-34-19-64.27-47.84-85.69-14.64-10.86-31.09-16.82-50.19-20.37-1.66,15.63-3.37,30.8-4.88,46Q678.5,366.52,669,463.18c-1.27,13-2,26.07-3.1,39.09-2.8,32.81-22.9,52-51.58,63.46-53.39,21.32-128.76,1.82-165.94-42.31-41-48.67-22.1-107.84,40-123.89,46.63-12.07,89.88-2.88,129.8,23.15,14.22,9.31,19.48,7.35,21.3-9.51Q656.8,253.62,674,94a73.18,73.18,0,0,1,2.49-13.83c3-9.44,10-14.12,19.72-14.21s17.4,4.65,19.75,14.11c10.95,43.6,35.72,79.25,64.26,112.64,21.09,24.67,38.41,50.9,42.25,84.07C826.94,315.33,816.67,350.18,796.38,384.66Z" transform="translate(-426.6 -66)"/></svg>