<svg id="Capa_1" data-name="Capa 1" xmlns="http://www.w3.org/2000/svg" xmlns:xlink="http://www.w3.org/1999/xlink" viewBox="0 0 1112 1014.93"><defs><style>.cls-1,.cls-2,.cls-3{fill-rule:evenodd;}.cls-1{fill:url(#GradientFill_3);}.cls-2{fill:url(#GradientFill_3-2);}.cls-3{fill:url(#GradientFill_3-3);}</style><linearGradient id="GradientFill_3" x1="659.28" y1="520.91" x2="791.69" y2="520.91" gradientUnits="userSpaceOnUse"><stop offset="0" stop-color="#41c0f0"/><stop offset="1" stop-color="#1b5892"/></linearGradient><linearGradient id="GradientFill_3-2" x1="425" y1="584.91" x2="881.56" y2="584.91" xlink:href="#GradientFill_3"/><linearGradient id="GradientFill_3-3" x1="908.53" y1="552.76" x2="1537" y2="552.76" xlink:href="#GradientFill_3"/></defs><title>Pintar</title><path class="cls-1" d="M761.33,461.67a13.63,13.63,0,0,0,2.67-5.6L727.7,229.72c-.43.43-.93.74-1.37,1.15,9.51-11.12,15.15-25.77,16.55-40.3,2.17-22.61-4.25-45.09-11.72-66.6-5.64-16.22-12-32.43-22.36-46.31S683.66,52.4,666.34,49.18c15.1,12.56,21.57,34.05,15.83,52.55-2.22,7.12-6,13.64-9.34,20.36-10.05,20.38-15.67,43.3-12.81,65.73,2.2,17.23,9.85,34.05,22.1,46.49-.18-.1-.37-.17-.52-.27l7,227.09a18,18,0,0,0,3,5.59l65.81,511.43a16.94,16.94,0,0,0,20,14.22l.33,0a16.66,16.66,0,0,0,13.93-17.14L761.33,461.67ZM686.75,244.59c3.6,2.81,8.86,4.19,14.18,3.85l17.28,185-13.43,1.45a19,19,0,0,0-10.53,4.38Z" transform="translate(-425 -49.18)"/><path class="cls-2" d="M879.59,1037.32,628.33,419.69a9.22,9.22,0,0,0,.53-2.92L535.54,224.44c-.06,0-.16.09-.22.14l.22-.19L510.48,105.72l-41.65,8.11c-.18-.22-.39-.49-.54-.69l-1.84.74.33.76-11.64,4.72c-.19-.24-.4-.48-.57-.72l-2.43,1,.37.81-6.12,2.47c-.15-.29-.34-.58-.43-.79l-3.39,1.34c0,.26.13.58.2.91L425,131.55,504.11,237c.46,0,.88,0,1.32,0-.41.08-.84.2-1.25.26l67.33,183.69c.13.32.19.63.33.95l.17.4,5,13.59a14.22,14.22,0,0,0,2.06,2.41l269,611.42c5.14,11.58,16.79,17.62,25.34,12.7l.3-.11c7.51-3.89,10-14.71,5.87-25ZM519.3,239.2l69.46,163.36L579,406.7a14.68,14.68,0,0,0-5.43,3.81L509.45,241.45C512.74,241.89,515.25,241.36,519.3,239.2Z" transform="translate(-425 -49.18)"/><path class="cls-3" d="M1168.3,111.64c-29.88,3-61.43,28-75.74,39.3-33.22,26.12-62.09,63.27-82.34,100.05C959,344,933.15,440.06,919.5,544.16c-18.41,140.63-32.45,361.66,122.17,435.65,79.32,38,164.06-3.7,222.37-50.16,75.52-60.19,133.15-120.9,182.6-202.71,50.31-83.22,92.6-216.42,90.27-315-.93-38.9-20.05-94.87-55.77-116.4-16.61-10-34.23-16.16-50.36-13.13-10.21,1.9-19.82,7.51-28.19,18.13-.25.3-.73,1-1.41,1.9-6.49,9.22-31.56,46.38-44.52,69.44-18,32.1-59.13,51.2-81.08,10.43-18.58-34.54-4-84.21-3.18-122.51.8-38,.1-77.71-15.5-109.74-8.11-16.67-33.13-44-88.6-38.4Zm60,722c-.28,19.26-12.28,29.52-26.36,37.55s-39.58,13.1-49.48,22.07c-9,8.12-10.46,22.8-20.22,31C1108,944.75,1078.49,945,1071,893.4c-5.11-35.22,26.64-65.27,62.78-59.56a52.77,52.77,0,0,0,18.92-.07c1.39-.24,10.29-10.61,11.82-13.57C1179,792,1228.8,798,1228.3,833.62ZM1023.57,583.29c-5.75,30.71-14.67,39.81-.86,67.05,11.39,22.5-3.24,36.11-28.42,48.66-23.78,11.86-43,2.6-44.73-23.59C948.38,657,953,607.9,964.1,578.58c4.14-11,32.45-32,42.86-29.43,24.8,6.09,20.33,14.24,16.61,34.14Zm2.92-90.51c-14.69-10.4-22.9-29-23.27-44.53-.51-22,20.22-34.06,18.26-55.33-5.08-55.44,25-62.24,33.9-62.1,23.28.34,44.12,25.24,34.56,56.4-8.9,29-41.43,40.74-38.94,65.8a104.85,104.85,0,0,1,.78,17.34c-1,16.34-9.25,33.8-25.29,22.42Zm363,74.75c-18.88,38.59-48.63,63.24-66.42,55s-16.92-46.18,2-84.78,48.61-63.23,66.42-55,16.93,46.17-2,84.78ZM1185.1,198.67C1175,230.28,1132.91,228.76,1128,267c-2.78,21.8-26.19,54.91-50.34,7.76-16-31.3,20.12-66.09,41-83.69,11.95-10.11,24.39-26.52,41.59-26.3C1181.66,165.09,1190.24,182.62,1185.1,198.67Z" transform="translate(-425 -49.18)"/></svg>