<svg id="Capa_1" data-name="Capa 1" xmlns="http://www.w3.org/2000/svg" xmlns:xlink="http://www.w3.org/1999/xlink" viewBox="0 0 1079 1013.68"><defs><style>.cls-1,.cls-2,.cls-3{fill-rule:evenodd;}.cls-1{fill:url(#GradientFill_6);}.cls-2{fill:url(#GradientFill_6-2);}.cls-3{fill:url(#GradientFill_6-3);}</style><linearGradient id="GradientFill_6" x1="567.33" y1="505.8" x2="695.82" y2="505.8" gradientUnits="userSpaceOnUse"><stop offset="0" stop-color="#f9b000"/><stop offset="1" stop-color="#f49406"/></linearGradient><linearGradient id="GradientFill_6-2" x1="340" y1="569.71" x2="783.02" y2="569.71" xlink:href="#GradientFill_6"/><linearGradient id="GradientFill_6-3" x1="809.18" y1="537.6" x2="1419" y2="537.6" xlink:href="#GradientFill_6"/></defs><title>Icono Amrillo3</title><path class="cls-1" d="M666.36,446.62a13.83,13.83,0,0,0,2.58-5.59L633.71,215c-.41.43-.9.74-1.33,1.15,9.24-11.1,14.71-25.74,16.08-40.25,2.09-22.58-4.14-45-11.38-66.51-5.48-16.2-11.68-32.41-21.7-46.26S591,37.85,574.17,34.64c14.66,12.54,20.94,34,15.36,52.48-2.15,7.12-5.83,13.63-9,20.34-9.75,20.36-15.22,43.25-12.44,65.65,2.14,17.2,9.55,34,21.45,46.43-.17-.1-.36-.17-.51-.27l6.83,226.82a18.22,18.22,0,0,0,2.93,5.58l63.85,510.81A16.5,16.5,0,0,0,682,976.67l.32-.06a16.53,16.53,0,0,0,13.53-17.11L666.36,446.62ZM594,229.82c3.49,2.81,8.59,4.18,13.76,3.85L624.5,418.4l-13,1.45a18.11,18.11,0,0,0-10.22,4.38Z" transform="translate(-340 -34.64)"/><path class="cls-2" d="M781.09,1021.57,537.3,404.69a9.74,9.74,0,0,0,.5-2.92L447.26,209.68c-.05,0-.15.09-.21.14a1.16,1.16,0,0,0,.2-.18L422.94,91.11l-40.41,8.1a8.31,8.31,0,0,1-.52-.69l-1.79.75.32.75-11.29,4.72c-.19-.24-.4-.49-.57-.72l-2.35,1c.11.24.25.55.35.81l-5.92,2.47c-.15-.29-.33-.58-.43-.8l-3.28,1.35c0,.26.12.58.18.9L340,116.92l76.77,105.31c.44,0,.85,0,1.28,0-.4.06-.82.2-1.22.26l65.33,183.45c.12.32.18.64.32,1l.17.4,4.83,13.57a14.59,14.59,0,0,0,2,2.4l261,610.66c5,11.57,16.31,17.62,24.61,12.7l.29-.12c7.28-3.89,9.68-14.67,5.68-24.91ZM431.5,224.43l67.39,163.16-9.51,4.14a14,14,0,0,0-5.25,3.8L421.94,226.67C425.13,227.11,427.57,226.58,431.5,224.43Z" transform="translate(-340 -34.64)"/><path class="cls-3" d="M1061.24,97c-29,3-59.61,28-73.5,39.24-32.22,26.09-60.23,63.2-79.89,99.93C858.14,329.12,833.07,425,819.81,529,802,669.47,788.34,890.23,938.38,964.13c77,37.91,159.18-3.7,215.76-50.1,73.27-60.11,129.19-120.75,177.18-202.46,48.82-83.11,89.85-216.15,87.59-314.63-.9-38.85-19.45-94.75-54.11-116.26-16.12-10-33.22-16.14-48.87-13.11-9.9,1.91-19.23,7.49-27.35,18.1-.25.31-.7,1-1.36,1.91-6.32,9.2-30.64,46.33-43.22,69.34-17.49,32.06-57.37,51.14-78.65,10.42-18-34.49-3.89-84.1-3.1-122.35.78-38,.09-77.62-15-109.62-7.87-16.64-32.14-43.94-86-38.34Zm58.22,721.08c-.27,19.24-11.92,29.48-25.58,37.51s-38.41,13.08-48,22c-8.7,8.11-10.15,22.78-19.62,31-23.5,20.44-52.15,20.7-59.39-30.85-5-35.17,25.85-65.18,60.91-59.49a49.71,49.71,0,0,0,18.36-.06c1.34-.24,10-10.61,11.47-13.55,14-28.14,62.33-22.21,61.86,13.39Zm-198.65-250c-5.59,30.67-14.24,39.76-.83,67,11.06,22.46-3.15,36.08-27.58,48.61-23.08,11.83-41.78,2.58-43.41-23.57-1.15-18.42,3.37-67.42,14.12-96.72,4-11,31.47-31.91,41.58-29.38,24.07,6.09,19.72,14.22,16.12,34.1Zm2.82-90.42c-14.24-10.37-22.21-28.92-22.56-44.46-.5-21.94,19.62-34,17.71-55.26-4.93-55.36,24.22-62.16,32.88-62,22.6.34,42.83,25.2,33.55,56.33C976.57,401.21,945,413,947.43,438a110.14,110.14,0,0,1,.76,17.31c-1,16.32-9,33.75-24.56,22.37Zm352.22,74.68c-18.32,38.53-47.18,63.15-64.45,54.94s-16.42-46.11,1.89-84.68,47.17-63.16,64.45-54.95,16.43,46.13-1.89,84.69ZM1077.55,184c-9.82,31.55-50.65,30-55.38,68.26-2.71,21.79-25.42,54.85-48.85,7.77-15.56-31.27,19.52-66,39.75-83.6,11.6-10.09,23.66-26.48,40.36-26.26C1074.22,150.41,1082.54,167.92,1077.55,184Z" transform="translate(-340 -34.64)"/></svg>