<svg id="Capa_1" data-name="Capa 1" xmlns="http://www.w3.org/2000/svg" xmlns:xlink="http://www.w3.org/1999/xlink" viewBox="0 0 1562.76 846.01"><defs><style>.cls-1,.cls-2{fill-rule:evenodd;}.cls-1{fill:url(#GradientFill_3);}.cls-2{fill:url(#GradientFill_3-2);}</style><linearGradient id="GradientFill_3" x1="163.24" y1="520.65" x2="918.13" y2="520.65" gradientUnits="userSpaceOnUse"><stop offset="0" stop-color="#41c0f0"/><stop offset="1" stop-color="#1b5892"/></linearGradient><linearGradient id="GradientFill_3-2" x1="961.68" y1="540.82" x2="1726" y2="540.82" xlink:href="#GradientFill_3"/></defs><title>Teatro</title><path class="cls-1" d="M812.52,110.73a36.54,36.54,0,0,0-16.18,7.82,14.68,14.68,0,0,0-2.31,1.53,567.15,567.15,0,0,1-273.9,139A567.08,567.08,0,0,1,214,235.84a12.36,12.36,0,0,0-2.87-.56,36.51,36.51,0,0,0-17.86-1A37.23,37.23,0,0,0,164,278.08l.63,3.23,3.56,17.76,51.21,256.66c38.14,191.19,284.48,402.63,434.3,372.73,158.58-31.61,296.18-319.66,258-510.84L857,143.2l-.65-3.23a37.24,37.24,0,0,0-43.8-29.24Zm-496.39,426c-7-34.95,19-83.89,74.73-95,52.19-10.42,98.69,25.18,105.45,59.05a148.34,148.34,0,0,0-180.18,35.95ZM628.31,801.36c-98.95,19.75-187.12-47.73-199.94-112A281.11,281.11,0,0,0,770,621.24c13.23,66.27-36,159-141.67,180.12ZM718.73,424a147.75,147.75,0,0,0-83.85,49.23c-7-34.94,19-83.88,74.73-95,52.18-10.4,98.7,25.19,105.44,59.06A147.85,147.85,0,0,0,718.73,424Z" transform="translate(-163.24 -110)"/><path class="cls-2" d="M1697.76,279.46a37,37,0,0,0-18,.19,13,13,0,0,0-2.74.4,567.26,567.26,0,0,1-307,8.74A567.06,567.06,0,0,1,1103.1,137a14.41,14.41,0,0,0-2.37-1.74,36.93,36.93,0,0,0-60.88,18.6l-.8,3.18-4.38,17.57-63.29,254c-47.16,189.16,85.31,485.57,233.55,522.51,156.91,39.09,404.32-162.6,451.46-351.78l67.69-271.51.8-3.19a37.25,37.25,0,0,0-27.12-45.16Zm-611.83,97.12A148.4,148.4,0,0,0,1264.21,421c-8.62,34.58-53,67.76-108.14,54-51.63-12.87-78.5-64.95-70.14-98.44Zm323.16,475.51a281.1,281.1,0,0,0-338-84.25c16.36-65.56,100.39-128.45,205-102.39,97.93,24.39,148.85,123.09,133,186.64Zm62.35-298.46c-51.63-12.87-78.47-64.92-70.13-98.44a148.29,148.29,0,0,0,178.28,44.43C1571,534.23,1526.63,567.37,1471.44,553.63Z" transform="translate(-163.24 -110)"/></svg>