<svg id="Capa_1" data-name="Capa 1" xmlns="http://www.w3.org/2000/svg" xmlns:xlink="http://www.w3.org/1999/xlink" viewBox="0 0 611.47 1003"><defs><style>.cls-1,.cls-2,.cls-3,.cls-4,.cls-5{fill-rule:evenodd;}.cls-1{fill:url(#GradientFill_6);}.cls-2{fill:url(#GradientFill_6-2);}.cls-3{fill:url(#GradientFill_6-3);}.cls-4{fill:url(#GradientFill_6-4);}.cls-5{fill:url(#GradientFill_6-5);}</style><linearGradient id="GradientFill_6" x1="895.02" y1="325.72" x2="1265.27" y2="325.72" gradientUnits="userSpaceOnUse"><stop offset="0" stop-color="#f9b000"/><stop offset="1" stop-color="#f49406"/></linearGradient><linearGradient id="GradientFill_6-2" x1="653.83" y1="724.99" x2="880.55" y2="724.99" xlink:href="#GradientFill_6"/><linearGradient id="GradientFill_6-3" x1="770.83" y1="624.04" x2="1034.44" y2="624.04" xlink:href="#GradientFill_6"/><linearGradient id="GradientFill_6-4" x1="887.37" y1="617.84" x2="1160.59" y2="617.84" xlink:href="#GradientFill_6"/><linearGradient id="GradientFill_6-5" x1="897.36" y1="714.62" x2="1104.33" y2="714.62" xlink:href="#GradientFill_6"/></defs><title>Icono Amrillo4</title><path class="cls-1" d="M895,421l28.56-59.37c5.35.19,12.46.47,20.1.77.72-2.63,1.52-5.12,2.07-7.68Q971.84,234.52,998,114.31c1.29-5.85.36-9.65-3.66-14.26-14.76-16.84-14.32-44.23.31-62.3A50,50,0,0,1,1056.4,24.5c20.79,10.75,31.65,35.37,25.77,57-4.26,15.64-14.25,25.93-28,33.61-2.69,1.49-5.62,4.64-6.25,7.5q-27.3,123.21-54.05,246.53c-.2.85-.13,1.77-.07.69l43.28,17.23c12.8-21.22,26.7-44.33,40.64-67.43q44-72.92,88.17-145.75c3.19-5.21,4.18-9.41,2.12-15.65-7.92-24-.06-46,20.07-59.11,18.6-12.17,43.11-10.22,60.18,4.78,15,13.15,21.38,35.61,13.77,55.15-7.31,18.76-21.89,29.43-42.12,32.26-3,.42-6.8,2.42-8.31,4.88q-66,108.09-131.48,216.44a25.41,25.41,0,0,0-1.42,3.24c68.42,56,102,128.13,101.63,216.54C1118.37,519.93,1025,449.61,895,421Z" transform="translate(-653.8 -19)"/><path class="cls-2" d="M762.9,840c-77.77-60.77-115.73-139.5-108.15-238,5.4-69.88,36.28-127.76,89.59-174-2.74,9.19-5.71,18.32-8.2,27.56C709,556.47,718.53,653.92,765.51,747.2c26.28,52.22,63.15,96.25,109.4,132.16,5.38,4.16,6.5,7.8,5.07,14.17-8.5,37.78-16.56,75.69-24.78,113.53-3,13.93-7.62,16.85-21.59,13.89-4.69-1-9.39-2-14.09-3-13.24-3-16.54-8-13.66-21.15q12.32-56.37,24.71-112.71c.65-2.88,1.17-5.8,1.74-8.78l-25.82-10.38q-28.28,46.9-56.32,93.5c-3.1,5.16-6,10.43-9.3,15.46-5.12,7.86-11.85,9.68-20.15,5.25-5.81-3.1-11.4-6.66-17-10.2-9.93-6.32-11.39-12.38-5.19-22.61q28.91-47.8,58-95.49C758.7,847.27,760.74,843.65,762.9,840Z" transform="translate(-653.8 -19)"/><path class="cls-3" d="M1034.19,863.31c-19,6.26-37.85,12.65-56.88,18.62-2.17.69-5.28-.56-7.56-1.7-86.21-43.19-147-109.84-178.48-200.87-35.14-101.61-24.74-200,29.05-293.39,2.54-4.42,7.62-8.38,12.44-10.31,9.66-3.85,19.92-6.14,32.12-9.71-35.39,93.35-38.41,186.24-6.07,279,32.27,92.61,90.85,164.76,175.6,215.39C1034.33,861.35,1034.27,862.33,1034.19,863.31Z" transform="translate(-653.8 -19)"/><path class="cls-4" d="M887.72,471.47c45.62,8.42,85.2,24.39,121.69,47.78q112.27,72,150.11,200c.72,2.46,1.61,5.66.65,7.7-5.65,12.16-11.82,24-18.41,37.26-9.17-16.2-16.85-31.11-25.72-45.25-52-82.86-125-139-217.93-169.14-7.8-2.53-11-5.74-10.76-14.16C888,514.72,887.66,493.78,887.72,471.47Z" transform="translate(-653.8 -19)"/><path class="cls-5" d="M897.34,602.24c41.16,15.59,76.08,36.1,107.38,62.9,44.19,37.85,76.52,84,98.41,137.82,2.17,5.33,1.5,8.42-2.81,12.26-16.43,14.68-16.43,15.11-35.73,4.24-53.78-30.24-96.21-72.27-127.75-125.12a417.2,417.2,0,0,1-23.79-47.4C907.13,633.29,903.08,618.82,897.34,602.24Z" transform="translate(-653.8 -19)"/></svg>