<svg id="Capa_1" data-name="Capa 1" xmlns="http://www.w3.org/2000/svg" xmlns:xlink="http://www.w3.org/1999/xlink" viewBox="0 0 604.28 963"><defs><style>.cls-1,.cls-2,.cls-3,.cls-4,.cls-5{fill-rule:evenodd;}.cls-1{fill:url(#GradientFill_3);}.cls-2{fill:url(#GradientFill_3-2);}.cls-3{fill:url(#GradientFill_3-3);}.cls-4{fill:url(#GradientFill_3-4);}.cls-5{fill:url(#GradientFill_3-5);}</style><linearGradient id="GradientFill_3" x1="917.2" y1="353.48" x2="1283.11" y2="353.48" gradientUnits="userSpaceOnUse"><stop offset="0" stop-color="#41c0f0"/><stop offset="1" stop-color="#1b5892"/></linearGradient><linearGradient id="GradientFill_3-2" x1="678.83" y1="736.83" x2="902.9" y2="736.83" xlink:href="#GradientFill_3"/><linearGradient id="GradientFill_3-3" x1="794.45" y1="639.91" x2="1054.96" y2="639.91" xlink:href="#GradientFill_3"/><linearGradient id="GradientFill_3-4" x1="909.62" y1="633.94" x2="1179.66" y2="633.94" xlink:href="#GradientFill_3"/><linearGradient id="GradientFill_3-5" x1="919.5" y1="726.88" x2="1124.06" y2="726.88" xlink:href="#GradientFill_3"/></defs><title>Tejer</title><path class="cls-1" d="M917.2,445c9.45-19.07,18.58-37.5,28.23-57l19.87.73c.72-2.51,1.5-4.91,2-7.36Q993.11,265.91,1019,150.5c1.26-5.62.35-9.26-3.63-13.68-14.59-16.18-14.15-42.47.31-59.83a50.44,50.44,0,0,1,61.06-12.71c20.53,10.31,31.27,34,25.46,54.75-4.21,15-14.09,24.9-27.64,32.26-2.66,1.45-5.57,4.47-6.19,7.22q-27,118.29-53.42,236.69c-.19.81-.13,1.7-.06.66,14.33,5.54,28.06,10.84,42.77,16.55,12.64-20.39,26.39-42.57,40.16-64.74q43.53-70,87.14-140c3.15-5,4.13-9,2.1-15-7.83-23-.06-44.13,19.82-56.75,18.38-11.69,42.62-9.81,59.49,4.59,14.82,12.62,21.11,34.19,13.59,53-7.21,18-21.62,28.25-41.62,31-3,.4-6.72,2.32-8.21,4.68Q1164.9,332.92,1100.16,437a24.87,24.87,0,0,0-1.41,3.1c67.62,53.74,100.78,123,100.43,207.9C1137.93,540,1045.66,472.44,917.2,445Z" transform="translate(-678.83 -59)"/><path class="cls-2" d="M786.64,847.23c-76.87-58.35-114.37-133.94-106.87-228.5,5.32-67.1,35.84-122.67,88.53-167.07-2.72,8.82-5.64,17.59-8.11,26.47-26.81,96.9-17.4,190.47,29,280,26,50.13,62.42,92.42,108.12,126.88,5.33,4,6.43,7.49,5,13.61-8.39,36.28-16.34,72.66-24.48,109-3,13.38-7.54,16.19-21.32,13.35-4.64-1-9.29-1.92-13.94-2.91-13.08-2.86-16.34-7.68-13.5-20.31q12.17-54.12,24.42-108.21c.64-2.77,1.15-5.57,1.74-8.43-8.61-3.36-16.84-6.57-25.54-10l-55.65,89.78c-3.07,4.95-6,10-9.19,14.84-5.06,7.55-11.72,9.3-19.91,5-5.75-3-11.27-6.4-16.79-9.79-9.82-6.06-11.25-11.88-5.13-21.72q28.56-45.88,57.3-91.68C782.48,854.23,784.51,850.76,786.64,847.23Z" transform="translate(-678.83 -59)"/><path class="cls-3" d="M1054.74,869.63c-18.73,6-37.41,12.15-56.21,17.89-2.13.65-5.22-.54-7.47-1.63C905.86,844.4,845.79,780.41,814.68,693,780,595.45,790.23,501,843.39,411.33c2.51-4.25,7.53-8.05,12.29-9.89,9.53-3.7,19.69-5.91,31.74-9.33-35,89.64-37.95,178.81-6,267.89,31.9,88.93,89.79,158.2,173.54,206.81C1054.88,867.74,1054.82,868.69,1054.74,869.63Z" transform="translate(-678.83 -59)"/><path class="cls-4" d="M910,493.42c45.09,8.09,84.2,23.41,120.27,45.88q111,69.08,148.34,192c.72,2.36,1.59,5.43.64,7.4-5.58,11.66-11.68,23.08-18.19,35.76-9.06-15.55-16.65-29.86-25.42-43.43-51.4-79.57-123.55-133.45-215.37-162.41-7.7-2.42-10.88-5.5-10.63-13.59C910.26,535,909.93,514.84,910,493.42Z" transform="translate(-678.83 -59)"/><path class="cls-5" d="M919.5,619c40.68,15,75.18,34.65,106.12,60.39,43.67,36.34,75.61,80.69,97.26,132.32,2.14,5.12,1.47,8.08-2.78,11.78-16.23,14.09-16.23,14.51-35.32,4.07-53.14-29-95.08-69.39-126.24-120.14A394.59,394.59,0,0,1,935,661.9C929.18,648.79,925.17,634.9,919.5,619Z" transform="translate(-678.83 -59)"/></svg>