<svg id="Capa_1" data-name="Capa 1" xmlns="http://www.w3.org/2000/svg" xmlns:xlink="http://www.w3.org/1999/xlink" viewBox="0 0 1031.86 987"><defs><style>.cls-1{fill:url(#GradientFill_3);}.cls-2,.cls-5,.cls-7{fill-rule:evenodd;}.cls-2{fill:url(#GradientFill_3-2);}.cls-3{fill:url(#GradientFill_3-3);}.cls-4{fill:url(#GradientFill_3-4);}.cls-5{fill:url(#GradientFill_3-5);}.cls-6{fill:url(#GradientFill_3-6);}.cls-7{fill:url(#GradientFill_3-7);}.cls-8{fill:url(#GradientFill_3-8);}.cls-9{fill:url(#GradientFill_3-9);}</style><linearGradient id="GradientFill_3" y1="729.04" x2="314.05" y2="729.04" gradientUnits="userSpaceOnUse"><stop offset="0" stop-color="#41c0f0"/><stop offset="1" stop-color="#1b5892"/></linearGradient><linearGradient id="GradientFill_3-2" x1="381" y1="220.24" x2="695.04" y2="220.24" xlink:href="#GradientFill_3"/><linearGradient id="GradientFill_3-3" y1="403.78" x2="314.05" y2="403.78" xlink:href="#GradientFill_3"/><linearGradient id="GradientFill_3-4" x1="717.82" y1="874.84" x2="1031.86" y2="874.84" xlink:href="#GradientFill_3"/><linearGradient id="GradientFill_3-5" x1="1098.82" y1="366.04" x2="1412.86" y2="366.04" xlink:href="#GradientFill_3"/><linearGradient id="GradientFill_3-6" x1="717.82" y1="695.39" x2="1031.86" y2="695.39" xlink:href="#GradientFill_3"/><linearGradient id="GradientFill_3-7" x1="739.9" y1="287.54" x2="1053.95" y2="287.54" xlink:href="#GradientFill_3"/><linearGradient id="GradientFill_3-8" x1="358.9" y1="796.34" x2="672.94" y2="796.34" xlink:href="#GradientFill_3"/><linearGradient id="GradientFill_3-9" x1="358.9" y1="538.37" x2="672.94" y2="538.37" xlink:href="#GradientFill_3"/></defs><title>Libros</title><rect class="cls-1" y="471.08" width="314.05" height="515.92"/><path class="cls-2" d="M695,52S650.17,74.43,538,74.43,381,52,381,52V388.48H695Z" transform="translate(-381 -52)"/><rect class="cls-3" y="381.35" width="314.05" height="44.87"/><rect class="cls-4" x="717.82" y="762.68" width="314.04" height="224.32"/><path class="cls-5" d="M1412.86,52s-44.87,22.43-157,22.43-157-22.43-157-22.43V680.09h314Z" transform="translate(-381 -52)"/><rect class="cls-6" x="717.82" y="672.95" width="314.04" height="44.86"/><path class="cls-7" d="M1054,52s-32.86,16.29-112.16,21.09V388.48l-44.86-44.87-44.86,44.87V73.09C772.77,68.29,739.9,52,739.9,52V523.08H1054Z" transform="translate(-381 -52)"/><rect class="cls-8" x="358.9" y="605.68" width="314.04" height="381.32"/><rect class="cls-9" x="358.9" y="515.94" width="314.04" height="44.86"/></svg>