<svg id="Capa_1" data-name="Capa 1" xmlns="http://www.w3.org/2000/svg" viewBox="0 0 1222.64 1017"><defs><style>.cls-1{fill:#e7b22a;}.cls-1,.cls-2,.cls-3,.cls-4{fill-rule:evenodd;}.cls-2{fill:#ef811a;}.cls-3{fill:#26558d;}.cls-4{fill:#336698;}</style></defs><title>Logo Portafolio</title><path class="cls-1" d="M926.47,1053s284-227.12,402.36-349.49c0,0,185-173.67,151.84-339,0,0-8.28-96.26-60.74-148.72,0,0-25.65,8-13.8,93.39,3.86,27.84,13.8,64.24,2.77,112.42,0,0-35.89,107.53-151.85,192.65l-118.71,81.25s-55.2,28.25-35.89-29.71c0,0,40-92.51,116-163.43,20.7-19.32,38.65-61.58,14.11-101.81,0,0-154.89,105.61-229.44,192.68,0,0-91.8,93.26-82.82,208.43Z" transform="translate(-262 -36)"/><path class="cls-2" d="M820.16,1051.48S536.22,824.35,417.81,702c0,0-184.1-172.85-152.07-337.8l.35-2.25a337.76,337.76,0,0,1,15.63-69.88c11.58-34,62.3-23.26,59.07,12.53q-.14,1.51-.27,3.09C331,408,372.25,529.54,489.58,612.75c25.83,18.29,98.15,67.31,115.12,78.8a30.33,30.33,0,0,0,9,4.16c12.41,3.32,41,7.45,31.08-29.22a29.81,29.81,0,0,0-1.64-4.46c-6.63-14.53-45.92-96.77-114.95-161.17-10.65-10-20.6-26-24.37-44.71-5.45-27.12,25.39-46.79,47.73-30.5,50.48,36.81,140,105.51,191.52,165.54l.92,1c7,7.33,91,97.59,82.36,207.95Z" transform="translate(-262 -36)"/><path class="cls-3" d="M875.71,177.62S770.4,78.22,692.81,56.15C622,36,529.93,42.33,466.43,75.47s-107.67,88.35-107.67,88.35,227.33,117.79,338.65,229c72.41,0,210.72-178.51,210.72-178.51Z" transform="translate(-262 -36)"/><path class="cls-4" d="M1394,158.29S1279,31.68,1131.75,36.11c-79.06,2.39-138.42,8.56-270.53,166.36,0,0-129.28,161.72-221.19,140.13,0,0,44.93,36.39,100.79,91.52,57,56.21,130.45,169.66,130.45,169.66s156.38-189.9,221.8-246.27C1223.33,245.25,1394,158.29,1394,158.29Z" transform="translate(-262 -36)"/></svg>